<svg width="27" height="27" viewBox="0 0 27 27" fill="none" xmlns="http://www.w3.org/2000/svg">
<path d="M12.6289 0H14.2916C14.5993 0.0369695 14.9086 0.0656079 15.2148 0.11195C18.1995 0.563394 20.7865 1.79745 22.8735 4.01093C25.9317 7.25852 27.1293 11.1013 26.4003 15.4954C25.3979 21.5355 20.2204 25.8896 14.3129 26.3426C11.801 26.5353 9.4286 26.0234 7.19161 24.8669C7.08618 24.8169 6.96698 24.8037 6.85314 24.8295C4.5672 25.4175 2.28282 26.0102 0 26.6076V26.5035C0.0337598 26.4361 0.0629847 26.3665 0.0874803 26.2952C0.665996 24.1958 1.24555 22.0968 1.81261 19.9948C1.84389 19.8493 1.82364 19.6974 1.75533 19.5652C0.245257 16.7925 -0.223387 13.8474 0.331696 10.7503C1.36167 5.01692 5.9648 1.11169 11.1433 0.208279C11.6364 0.122364 12.1327 0.068732 12.6289 0ZM3.19876 23.4116C3.32113 23.3856 3.39559 23.3725 3.46901 23.3533C4.67395 23.0409 5.87992 22.7326 7.08278 22.4129C7.16695 22.3863 7.256 22.3787 7.34345 22.3908C7.43091 22.4028 7.51458 22.4342 7.58839 22.4827C10.1977 24.0448 12.9861 24.5134 15.9501 23.8011C21.6857 22.4202 25.286 16.8706 24.2029 11.1054C23.0412 4.91851 16.7566 0.940379 10.6294 2.51393C3.6247 4.31762 0.23276 12.2885 3.80123 18.5681C3.96577 18.8581 4.22821 19.1382 4.26414 19.4439C4.30007 19.7495 4.11366 20.0906 4.02149 20.4155C3.75176 21.4007 3.48203 22.3811 3.19876 23.4116Z" fill="white"/>
<path d="M16.6138 19.7095C16.3126 19.6687 15.999 19.6703 15.7112 19.5796C14.0902 19.0682 12.5405 18.3953 11.2167 17.2136C10.1868 16.2938 9.32574 15.2055 8.49989 14.0791C7.95889 13.3417 7.4932 12.5582 7.18307 11.6739C6.6069 10.0307 6.91753 8.57852 8.00546 7.30078C8.10146 7.18264 8.21855 7.08679 8.34967 7.019C8.4808 6.95122 8.62324 6.91289 8.7684 6.90635C9.05574 6.89347 9.34457 6.89669 9.63191 6.91332C9.87962 6.92781 10.001 7.1312 10.0902 7.34746C10.2482 7.72955 10.3939 8.11701 10.5435 8.50285C10.7446 9.02017 10.9398 9.53964 11.1474 10.0543C11.2376 10.2786 11.2395 10.4938 11.1112 10.6891C10.8734 11.0514 10.6297 11.4104 10.3721 11.756C10.1006 12.1209 10.0852 12.2164 10.3042 12.6098C11.3099 14.4166 12.6961 15.7454 14.5093 16.5385C14.8893 16.7043 15.0265 16.678 15.2836 16.341C15.5809 15.9493 15.8781 15.5554 16.1694 15.1556C16.381 14.8642 16.4949 14.8046 16.8273 14.9356C17.1598 15.0665 17.4778 15.2329 17.8018 15.3847C18.3096 15.623 18.8189 15.8575 19.3227 16.1038C19.6804 16.2782 19.7136 16.3722 19.7092 16.7848C19.6898 18.6094 18.3795 19.4144 17.1365 19.651C16.967 19.6832 16.7897 19.6773 16.6193 19.6891L16.6138 19.7095Z" fill="white"/>
</svg>
