<svg width="189" height="91" viewBox="0 0 189 91" fill="none" xmlns="http://www.w3.org/2000/svg">
<path d="M59.4517 87.2542C58.8454 86.7637 58.1052 86.4961 57.4364 86.4961C56.1256 86.4961 55.1001 87.5039 55.1001 88.7437C55.1001 89.9834 56.1167 90.9912 57.4721 90.9912C58.132 90.9912 58.9078 90.7415 59.4607 90.3312V88.4315H57.3116V89.1985H58.5868V89.912C58.3192 90.0904 57.8912 90.1975 57.5078 90.1975C56.5625 90.1975 56.0632 89.4929 56.0632 88.7526C56.0632 87.9588 56.625 87.3077 57.4364 87.3077C57.8734 87.3077 58.453 87.5039 58.8275 87.8428L59.4428 87.2631L59.4517 87.2542Z" fill="#964A26"/>
<path d="M62.1 88.7347C62.1 87.9499 62.7243 87.2988 63.5179 87.2988C64.3115 87.2988 64.9625 87.9499 64.9625 88.7347C64.9625 89.5196 64.3294 90.1975 63.5179 90.1975C62.7064 90.1975 62.1 89.5374 62.1 88.7347ZM61.1191 88.7347C61.1191 89.9923 62.1714 90.9912 63.509 90.9912C64.8466 90.9912 65.9256 89.9923 65.9256 88.7347C65.9256 87.4772 64.8466 86.4961 63.509 86.4961C62.1714 86.4961 61.1191 87.5039 61.1191 88.7347Z" fill="#964A26"/>
<path d="M67.7183 86.6206V90.866H71.1336V90.0633H68.6457V86.6206H67.7183Z" fill="#964A26"/>
<path d="M73.6125 90.0633V87.4322H74.6469C75.1462 87.4322 75.3692 87.5571 75.5921 87.7712C75.824 88.012 75.9488 88.3509 75.9488 88.7522C75.9488 89.1803 75.8061 89.5193 75.5564 89.769C75.3335 89.9652 75.1373 90.0722 74.6469 90.0722H73.6125V90.0633ZM74.6736 90.866C75.4762 90.866 75.931 90.652 76.2966 90.3041C76.6889 89.9117 76.9029 89.3587 76.9029 88.7433C76.9029 88.1279 76.6979 87.6106 76.3322 87.2271C75.9577 86.8436 75.4494 86.6206 74.6736 86.6206H72.6851V90.8571H74.6736V90.866Z" fill="#964A26"/>
<path d="M83.0114 89.9563C82.7083 90.1347 82.4407 90.206 82.2356 90.206C81.9146 90.206 81.5044 90.0544 81.5044 89.5995C81.5044 89.2517 81.7541 89.0376 82.0038 88.9128L83.0204 89.9563H83.0114ZM83.9478 87.0755C83.6713 86.9417 83.2255 86.7544 82.7439 86.7544C82.0216 86.7544 81.3974 87.1736 81.3974 87.8425C81.3974 88.0566 81.4598 88.2349 81.5847 88.4222C81.0229 88.6363 80.5859 89.002 80.5859 89.6709C80.5859 90.5895 81.4063 90.9641 82.1108 90.9641C82.5299 90.9641 83.056 90.8304 83.5376 90.5004L83.8943 90.866H85.0446L84.1796 89.9652C84.465 89.6709 84.7592 89.3141 85.0624 88.8504L84.3758 88.5114C84.135 88.8949 83.8943 89.1982 83.6713 89.439L82.8777 88.6185C82.7528 88.4936 82.3248 88.119 82.3248 87.8425C82.3248 87.6909 82.4586 87.5393 82.7439 87.5393C83.0293 87.5393 83.3771 87.673 83.5643 87.7801L83.9567 87.0844L83.9478 87.0755Z" fill="#964A26"/>
<path d="M89.7261 90.0633V87.4322H90.7605C91.2599 87.4322 91.4828 87.5571 91.6968 87.7712C91.9287 88.012 92.0535 88.3509 92.0535 88.7522C92.0535 89.1803 91.9108 89.5193 91.6612 89.769C91.4382 89.9652 91.242 90.0722 90.7516 90.0722H89.7172L89.7261 90.0633ZM90.7962 90.866C91.5898 90.866 92.0535 90.652 92.4191 90.3041C92.8115 89.9117 93.0255 89.3587 93.0255 88.7433C93.0255 88.1279 92.8204 87.6106 92.4548 87.2271C92.0803 86.8436 91.572 86.6206 90.7962 86.6206H88.8076V90.8571H90.7962V90.866Z" fill="#964A26"/>
<path d="M95.7541 86.6206H94.8267V90.8571H95.7541V86.6206Z" fill="#964A26"/>
<path d="M99.5978 87.7358H99.6335L100.276 89.2342H98.9558L99.5978 87.7358ZM97.2793 90.8664H98.2602L98.6437 89.9745H100.605L100.998 90.8664H102.014L100.053 86.6299H99.25L97.2882 90.8664H97.2793Z" fill="#964A26"/>
<path d="M108.069 90.866V86.6206H107.204L105.822 88.9485H105.813L104.422 86.6206H103.53V90.866H104.431V88.4044H104.467L105.653 90.3844H105.911L107.097 88.4044H107.133V90.866H108.069Z" fill="#964A26"/>
<path d="M110.825 88.7347C110.825 87.9499 111.449 87.2988 112.242 87.2988C113.036 87.2988 113.687 87.9499 113.687 88.7347C113.687 89.5196 113.054 90.1975 112.242 90.1975C111.431 90.1975 110.825 89.5374 110.825 88.7347ZM109.853 88.7347C109.853 89.9923 110.905 90.9912 112.242 90.9912C113.58 90.9912 114.659 89.9923 114.659 88.7347C114.659 87.4772 113.58 86.4961 112.242 86.4961C110.905 86.4961 109.853 87.5039 109.853 88.7347Z" fill="#964A26"/>
<path d="M119.412 86.6206V89.2517H119.403L117.245 86.6206H116.442V90.866H117.379V88.2439H117.388L119.537 90.866H120.339V86.6206H119.412Z" fill="#964A26"/>
<path d="M123.371 90.0633V87.4322H124.406C124.905 87.4322 125.128 87.5571 125.342 87.7712C125.574 88.012 125.699 88.3509 125.699 88.7522C125.699 89.1803 125.556 89.5193 125.306 89.769C125.083 89.9652 124.887 90.0722 124.397 90.0722H123.362L123.371 90.0633ZM124.432 90.866C125.226 90.866 125.69 90.652 126.055 90.3041C126.448 89.9117 126.662 89.3587 126.662 88.7433C126.662 88.1279 126.457 87.6106 126.091 87.2271C125.717 86.8436 125.208 86.6206 124.432 86.6206H122.444V90.8571H124.432V90.866Z" fill="#964A26"/>
<path d="M131.985 87.0669C131.62 86.8172 130.879 86.4961 129.997 86.4961C129.194 86.4961 128.249 86.8172 128.249 87.8428C128.249 88.922 129.337 89.0201 130.264 89.0826C130.897 89.1361 131.334 89.2253 131.334 89.6356C131.334 90.0458 130.906 90.242 130.371 90.242C129.515 90.242 128.909 89.8139 128.552 89.5285L128.026 90.1618C128.516 90.5631 129.256 91.0002 130.353 91.0002C131.388 91.0002 132.262 90.5899 132.262 89.5464C132.262 88.378 131.058 88.2888 130.282 88.2353C129.729 88.1907 129.176 88.1639 129.176 87.7893C129.176 87.4147 129.551 87.272 129.979 87.272C130.683 87.272 131.209 87.5396 131.468 87.7269L132.003 87.0758L131.985 87.0669Z" fill="#964A26"/>
<path d="M8.07909 71.8869C14.0715 71.8869 16.1314 68.2836 16.1314 65.0817V54.5752H12.7607V64.7517C12.7607 67.4363 11.8155 69.7909 7.91858 69.7909C4.54783 69.7909 2.8803 66.9725 2.19366 65.8666L0 67.5969C0.490453 68.4798 2.62169 71.8869 8.07909 71.8869Z" fill="#964A26"/>
<path d="M23.9878 71.4588H40.0211V69.3985H27.3853V63.735H34.1981V61.7371H27.3853V56.5998H39.3345V54.5752H23.9878V71.4588Z" fill="#964A26"/>
<path d="M50.8466 71.4588H52.9154L57.8556 58.7939L62.7601 71.4588H64.82L71.3029 54.5752H68.7793L64.2671 66.8833L59.6836 54.5752H57.267L52.523 66.8833L48.1 54.5752H44.5063L50.8466 71.4588Z" fill="#964A26"/>
<path d="M77.0903 71.4588H93.1237V69.3985H80.4967V63.735H87.3007V61.7371H80.4967V56.5998H92.437V54.5752H77.0903V71.4588Z" fill="#964A26"/>
<path d="M98.9199 71.4588H112.563V69.3985H102.317V54.5752H98.9199V71.4588Z" fill="#964A26"/>
<path d="M132.36 70.2188C127.812 70.2188 125.164 67.0794 125.164 63.0213C125.164 58.9631 127.812 55.8237 132.36 55.8237C136.908 55.8237 139.458 58.9988 139.458 63.0213C139.458 67.0437 136.872 70.2188 132.36 70.2188ZM132.36 72.0472C138.352 72.0472 143.221 68.0248 143.221 63.0123C143.221 57.9999 138.343 53.9507 132.36 53.9507C126.376 53.9507 121.499 58.0088 121.499 63.0123C121.499 68.0159 126.403 72.0472 132.36 72.0472Z" fill="#964A26"/>
<path d="M148.884 71.4588H151.238V58.7314L162.759 71.4588H165.283V54.5752H162.955V66.8477L151.925 54.5752H148.884V71.4588Z" fill="#964A26"/>
<path d="M172.675 71.4588H188.708V69.3985H176.072V63.735H182.885V61.7371H176.072V56.5998H188.022V54.5752H172.675V71.4588Z" fill="#964A26"/>
<path d="M111.698 30.3512C110.307 33.0001 109.522 37.8609 102.745 38.1285H92.9273C93.7299 37.6379 94.479 37.0582 95.1923 36.3982C103.289 30.5385 105.581 17.7755 111.618 12.5935C113.179 11.3806 114.819 10.6581 116.612 10.3817C117.013 10.3371 117.566 10.2925 118.333 10.2657L118.261 10.2479C118.261 10.2479 118.306 10.2479 118.333 10.2479V8.59786C109.531 8.59786 105.26 11.006 101.497 13.1287C99.972 13.9849 98.5274 14.7965 96.8688 15.3941C99.9364 9.58787 102.745 3.98677 106.99 2.23866C107.721 1.96217 108.488 1.78379 109.3 1.6946C109.389 1.6946 109.487 1.68568 109.585 1.67676C109.612 1.67676 109.638 1.67676 109.665 1.65892C109.888 1.64109 110.111 1.63217 110.343 1.63217V0H82.3781L82.3068 0.16946L78.4278 8.85651L80.0418 9.43624C81.4418 6.76948 82.2176 1.8819 89.0929 1.65H104.484C104.243 1.79271 104.003 1.95325 103.771 2.11379C98.786 4.80731 95.8255 10.5868 92.9363 16.1522C89.0661 16.2057 84.8839 14.4933 84.8839 14.4933C84.8483 14.4576 84.0189 17.1511 84.0189 17.1511C86.4801 17.5079 88.8343 18.1501 91.991 17.9628C89.1821 23.2784 86.2304 28.0501 81.3794 29.2898C80.6393 29.4504 79.8724 29.5306 79.0787 29.5306C74.6112 29.5306 72.5423 27.5417 71.5971 25.8739C71.4366 25.5885 71.3028 25.303 71.178 24.9998C70.3487 22.5917 71.2226 20.2282 72.6137 18.926L71.2315 18.159L70.2684 17.5792C68.6544 20.2817 68.6098 23.9474 70.1703 26.6855C71.8111 29.5752 74.9768 31.1717 79.0787 31.1717C79.0787 31.1717 80.024 31.145 80.4698 31.1004C87.9158 30.5028 92.1515 24.1168 95.7809 17.4455C98.3223 16.8211 100.284 15.7063 102.308 14.5736C104.77 13.1822 107.284 11.7641 111.074 10.9525C110.343 11.4787 109.692 12.1119 108.996 12.7273C101.613 19.2828 98.2064 31.4214 92.2675 36.6212C90.7515 37.5844 89.0483 38.1374 87.0776 38.1374H83.368C80.0061 38.0393 77.2418 37.3436 74.3347 36.5944C74.2277 37.3525 74.085 39.172 73.9602 39.8498L81.6469 39.7785H103.325H109.371H109.38L110.102 38.1374L113.321 30.9309L111.707 30.3512H111.698Z" fill="#964A26"/>
</svg>
