<svg width="20" height="18" viewBox="0 0 20 18" fill="none" xmlns="http://www.w3.org/2000/svg">
<path fill-rule="evenodd" clip-rule="evenodd" d="M5.07618 8.02668H3.14815V9.86373H5.07618V8.02668ZM5.07618 12.7603H3.14815V14.5974H5.07618V12.7603ZM2.80155 12.1016H5.42171C5.61228 12.1016 5.76738 12.2494 5.76738 12.431V14.9275C5.76738 15.109 5.61228 15.2568 5.42171 15.2568H2.80155C2.61098 15.2568 2.45588 15.109 2.45588 14.9275V12.431C2.45588 12.2494 2.61098 12.1016 2.80155 12.1016ZM10.9138 8.05015H8.98491V9.88719H10.9138V8.05015ZM8.63913 7.39064H11.2593C11.4499 7.39064 11.605 7.53843 11.605 7.72V10.2165C11.605 10.3981 11.4499 10.5459 11.2593 10.5459L8.63913 10.5467C8.44856 10.5467 8.29346 10.3989 8.29346 10.2173V7.72079C8.29346 7.53842 8.44856 7.39064 8.63913 7.39064ZM16.6531 8.07295H14.7251V9.91H16.6531V8.07295ZM14.3794 7.41423H16.9995C17.1901 7.41423 17.3452 7.56201 17.3452 7.74359V10.2401C17.3452 10.4217 17.1901 10.5695 16.9995 10.5695H14.3794C14.1888 10.5695 14.0337 10.4217 14.0337 10.2401V7.74359C14.0337 7.56122 14.188 7.41423 14.3794 7.41423ZM10.9136 12.784H8.9847V14.6218H10.9136V12.784ZM8.63892 12.1252H11.2591C11.4497 12.1252 11.6047 12.273 11.6047 12.4546V14.9511C11.6047 15.1327 11.4496 15.2805 11.2591 15.2805H8.63892C8.44835 15.2805 8.29325 15.1327 8.29325 14.9511V12.4546C8.29325 12.2722 8.44835 12.1252 8.63892 12.1252ZM16.6529 12.8303H14.7249V14.6674H16.6529V12.8303ZM14.3791 12.1716H16.9993C17.1899 12.1716 17.345 12.3194 17.345 12.501V14.9975C17.345 15.1791 17.1899 15.3269 16.9993 15.3269H14.3791C14.1886 15.3269 14.0335 15.1791 14.0335 14.9975V12.501C14.0335 12.3186 14.1877 12.1716 14.3791 12.1716ZM19.8002 6.18249V15.2105C19.8002 15.9281 19.4917 16.5798 18.9959 17.053C18.4992 17.5262 17.8144 17.8194 17.0621 17.8194L2.73845 17.8202C1.98605 17.8202 1.30129 17.5262 0.804653 17.0538C0.308817 16.5806 0.000274581 15.9281 0.000274581 15.2104V6.18248L19.8002 6.18249ZM5.842 0.135205C5.75455 0.0518822 5.63492 0.000786743 5.50291 0.000786743C5.37174 0.000786743 5.25129 0.052667 5.16383 0.135205C5.07638 0.218528 5.02276 0.332509 5.02276 0.458287V2.86203C5.02276 2.9878 5.0772 3.10178 5.16383 3.18511C5.25128 3.26843 5.37091 3.31953 5.50291 3.31953C5.63492 3.31953 5.75454 3.26765 5.842 3.18511C5.92945 3.10179 5.98307 2.98781 5.98307 2.86203V1.55165L5.9839 0.457442C5.9839 0.332457 5.92945 0.217751 5.842 0.135205ZM10.2392 0.135205C10.1517 0.0518822 10.0321 0 9.90011 0C9.7681 0 9.64848 0.0518801 9.56102 0.134418C9.47357 0.217741 9.41995 0.331722 9.41995 0.4575V2.86124C9.41995 2.98701 9.4744 3.10099 9.56102 3.18432C9.64847 3.26765 9.7681 3.31874 9.90011 3.31874C10.0321 3.31874 10.1517 3.26686 10.2392 3.18432C10.3266 3.101 10.3803 2.98702 10.3803 2.86124V0.4575C10.3803 0.332515 10.3266 0.217751 10.2392 0.135205ZM14.6355 0.135205C14.5481 0.0518822 14.4285 0.000786743 14.2965 0.000786743C14.1644 0.000786743 14.0448 0.052667 13.9574 0.135205C13.8699 0.218528 13.8163 0.332509 13.8163 0.458287V2.86203C13.8163 2.9878 13.8707 3.10178 13.9574 3.18511C14.0448 3.26843 14.1644 3.31953 14.2965 3.31953C14.4285 3.31953 14.5481 3.26765 14.6355 3.18511C14.723 3.10179 14.7766 2.98781 14.7766 2.86203V1.55165L14.7774 0.457442C14.7774 0.332457 14.723 0.217751 14.6355 0.135205ZM15.4688 1.88029H17.061C17.8135 1.88029 18.4982 2.17427 18.9948 2.64671C19.4915 3.12072 19.8 3.77316 19.8 4.49005V5.52373H0V4.49005C0 3.77237 0.308543 3.12072 0.804378 2.64751C1.30104 2.17429 1.98579 1.88109 2.73817 1.88109H4.33043V2.86211C4.33043 3.16945 4.46243 3.44853 4.67446 3.65133C4.88648 3.85335 5.18018 3.97912 5.50277 3.97912C5.82533 3.97912 6.11822 3.85335 6.33107 3.65133C6.5431 3.44931 6.6751 3.16947 6.6751 2.86211V1.88109H8.72854V2.86211C8.72854 3.16945 8.86054 3.44853 9.07256 3.65133C9.28458 3.85335 9.57828 3.97912 9.90087 3.97912C10.2235 3.97912 10.5163 3.85335 10.7292 3.65133C10.9412 3.44931 11.0732 3.16947 11.0732 2.86211V1.88109H13.1266V2.86211C13.1266 3.16945 13.2586 3.44853 13.4707 3.65133C13.6827 3.85335 13.9764 3.97912 14.2981 3.97912C14.6207 3.97912 14.9136 3.85335 15.1265 3.65133C15.3385 3.44931 15.4705 3.16947 15.4705 2.86211L15.4697 1.88031L15.4688 1.88029ZM2.80098 7.36794H5.42114C5.61171 7.36794 5.76681 7.51572 5.76681 7.6973V10.1938C5.76681 10.3754 5.61171 10.5232 5.42114 10.5232H2.80098C2.61041 10.5232 2.45531 10.3754 2.45531 10.1938V7.6973C2.45531 7.51494 2.61041 7.36794 2.80098 7.36794Z" fill="#ECBE62"/>
</svg>
