<svg width="59" height="61" viewBox="0 0 59 61" fill="none" xmlns="http://www.w3.org/2000/svg">
<path d="M29.4999 23.6C23.6471 23.6 18.8799 28.3672 18.8799 34.22C18.8799 40.0728 23.6471 44.84 29.4999 44.84C35.3527 44.84 40.1199 40.0728 40.1199 34.22C40.1199 28.3672 35.3527 23.6 29.4999 23.6ZM29.4999 42.48C24.9451 42.48 21.2399 38.7748 21.2399 34.22C21.2399 29.6652 24.9451 25.96 29.4999 25.96C34.0547 25.96 37.7599 29.6652 37.7599 34.22C37.7599 38.7748 34.0547 42.48 29.4999 42.48Z" fill="#964A26"/>
<path d="M29.5001 4.71999C26.2433 4.71999 23.6001 7.36319 23.6001 10.62C23.6001 13.8768 26.2433 16.52 29.5001 16.52C32.7569 16.52 35.4001 13.8768 35.4001 10.62C35.4001 7.36319 32.7569 4.71999 29.5001 4.71999ZM29.5001 14.16C27.5531 14.16 25.9601 12.567 25.9601 10.62C25.9601 8.67299 27.5531 7.07999 29.5001 7.07999C31.4471 7.07999 33.0401 8.67299 33.0401 10.62C33.0401 12.567 31.4471 14.16 29.5001 14.16Z" fill="#964A26"/>
<path d="M10.6202 43.66C7.36342 43.66 4.72021 46.3032 4.72021 49.56C4.72021 52.8168 7.36342 55.46 10.6202 55.46C13.877 55.46 16.5202 52.8168 16.5202 49.56C16.5202 46.3032 13.877 43.66 10.6202 43.66ZM10.6202 53.1C8.67322 53.1 7.08021 51.507 7.08021 49.56C7.08021 47.613 8.67322 46.02 10.6202 46.02C12.5672 46.02 14.1602 47.613 14.1602 49.56C14.1602 51.507 12.5672 53.1 10.6202 53.1Z" fill="#964A26"/>
<path d="M48.38 38.94C46.6926 38.94 45.0996 39.3412 43.6836 40.0492C44.427 38.2556 44.84 36.285 44.84 34.22C44.84 27.612 40.6392 21.9834 34.7628 19.8358C37.9606 17.995 40.12 14.5612 40.12 10.62C40.12 4.7672 35.3528 0 29.5 0C23.6472 0 18.88 4.7672 18.88 10.62C18.88 14.5612 21.0394 17.995 24.2372 19.8358C18.3608 21.9834 14.16 27.612 14.16 34.22C14.16 36.285 14.573 38.2556 15.3164 40.0492C13.9004 39.3412 12.3074 38.94 10.62 38.94C4.7672 38.94 0 43.7072 0 49.56C0 55.4128 4.7672 60.18 10.62 60.18C16.4728 60.18 21.24 55.4128 21.24 49.56C21.24 48.6396 21.1102 47.7546 20.886 46.905C23.3522 48.5806 26.314 49.56 29.5 49.56C32.686 49.56 35.6478 48.5806 38.114 46.905C37.8898 47.7546 37.76 48.6396 37.76 49.56C37.76 55.4128 42.5272 60.18 48.38 60.18C54.2328 60.18 59 55.4128 59 49.56C59 43.7072 54.2328 38.94 48.38 38.94ZM21.24 10.62C21.24 6.0652 24.9452 2.36 29.5 2.36C34.0548 2.36 37.76 6.0652 37.76 10.62C37.76 15.1748 34.0548 18.88 29.5 18.88C24.9452 18.88 21.24 15.1748 21.24 10.62ZM10.62 57.82C6.0652 57.82 2.36 54.1148 2.36 49.56C2.36 45.0052 6.0652 41.3 10.62 41.3C15.1748 41.3 18.88 45.0052 18.88 49.56C18.88 54.1148 15.1748 57.82 10.62 57.82ZM16.52 34.22C16.52 27.0574 22.3374 21.24 29.5 21.24C36.6626 21.24 42.48 27.0574 42.48 34.22C42.48 41.3826 36.6626 47.2 29.5 47.2C22.3374 47.2 16.52 41.3826 16.52 34.22ZM48.38 57.82C43.8252 57.82 40.12 54.1148 40.12 49.56C40.12 45.0052 43.8252 41.3 48.38 41.3C52.9348 41.3 56.64 45.0052 56.64 49.56C56.64 54.1148 52.9348 57.82 48.38 57.82Z" fill="#964A26"/>
<path d="M48.38 43.66C45.1232 43.66 42.48 46.3032 42.48 49.56C42.48 52.8168 45.1232 55.46 48.38 55.46C51.6368 55.46 54.28 52.8168 54.28 49.56C54.28 46.3032 51.6368 43.66 48.38 43.66ZM48.38 53.1C46.433 53.1 44.84 51.507 44.84 49.56C44.84 47.613 46.433 46.02 48.38 46.02C50.327 46.02 51.92 47.613 51.92 49.56C51.92 51.507 50.327 53.1 48.38 53.1Z" fill="#964A26"/>
</svg>
