<svg width="64" height="67" viewBox="0 0 64 67" fill="none" xmlns="http://www.w3.org/2000/svg">
<path fill-rule="evenodd" clip-rule="evenodd" d="M54.7041 4.95763V3.17014C54.7041 2.61394 55.1548 2.1633 55.7109 2.1633C56.2671 2.1633 56.7178 2.61398 56.7178 3.17014V4.95763C56.7178 5.51383 56.2671 5.96447 55.7109 5.96447C55.1548 5.96447 54.7041 5.51368 54.7041 4.95763ZM51.1021 8.78583H52.8896C53.4458 8.78583 53.8964 8.33515 53.8964 7.77899C53.8964 7.22283 53.4458 6.77215 52.8896 6.77215L51.1021 6.77211C50.5459 6.77211 50.0953 7.22279 50.0953 7.77895C50.0953 8.33511 50.5459 8.78583 51.1021 8.78583ZM31.9998 10.0712C32.556 10.0712 33.0067 9.62055 33.0067 9.06439V1.00714C33.0067 0.450939 32.556 0.000298066 31.9998 0.000298066C31.4437 0.000298066 30.993 0.45098 30.993 1.00714V9.06439C30.9929 9.62059 31.4436 10.0712 31.9998 10.0712ZM24.5463 17.5212L29.5152 17.5307L31.0416 12.802C31.3404 11.876 32.6591 11.8762 32.9581 12.802L34.4846 17.5307L39.4555 17.5212C40.4265 17.5212 40.8324 18.7744 40.0458 19.3438L36.0203 22.2568L37.5649 26.9798C37.866 27.9003 36.7966 28.6765 36.0145 28.1061L32.0001 25.1777L27.9859 28.106C27.2038 28.6767 26.1313 27.9098 26.4354 26.9797L27.9801 22.2567L23.9546 19.3437C23.1678 18.7744 23.5739 17.521 24.5449 17.521C24.5449 17.5212 24.5456 17.5212 24.5463 17.5212ZM27.6615 19.5409L29.7552 21.0559C30.1098 21.3124 30.258 21.7687 30.122 22.1845L29.3186 24.6408L31.4064 23.1178C31.7599 22.8598 32.2398 22.8598 32.5932 23.1176L34.6811 24.6408L33.8778 22.1845C33.7418 21.7686 33.89 21.3124 34.2446 21.0558L36.3383 19.5409L33.752 19.5458C33.3152 19.5458 32.928 19.2641 32.7937 18.8483L31.9998 16.3889L31.206 18.8483C31.0715 19.2651 30.6839 19.5463 30.2457 19.5458L27.6615 19.5409ZM36.5486 9.62903C37.0548 9.83986 37.6486 9.60647 37.8651 9.08615L41.0652 1.39392C41.2788 0.880571 41.0357 0.291064 40.5224 0.0775039C40.0088 -0.136084 39.4195 0.106931 39.2059 0.620386L36.0058 8.31262C35.7923 8.82609 36.0353 9.41558 36.5486 9.62903ZM58.5323 8.78568H60.3198C60.876 8.78568 61.3266 8.335 61.3266 7.77884C61.3266 7.22267 60.8759 6.77198 60.3198 6.77198H58.5323C57.9761 6.77198 57.5255 7.22267 57.5255 7.77884C57.5255 8.335 57.9762 8.78568 58.5323 8.78568ZM46.6667 25.6545L41.93 23.6839C41.4161 23.4702 40.8271 23.7133 40.6135 24.2268C40.3999 24.7401 40.6431 25.3296 41.1564 25.5432L45.8932 27.5138C46.3998 27.7246 46.9932 27.4911 47.2096 26.9709C47.4232 26.4576 47.1802 25.8681 46.6667 25.6545ZM55.7111 9.59346C55.1549 9.59346 54.7042 10.0441 54.7042 10.6003V12.3878C54.7042 12.944 55.1549 13.3946 55.7111 13.3946C56.2672 13.3946 56.7179 12.9439 56.7179 12.3878V10.6003C56.7179 10.0441 56.2671 9.59346 55.7111 9.59346ZM56.8802 20.6471C56.8802 20.0909 56.4296 19.6403 55.8734 19.6403H43.5823C43.0261 19.6403 42.5754 20.0909 42.5754 20.6471C42.5754 21.2033 43.0261 21.6539 43.5823 21.6539H55.8734C56.4296 21.6539 56.8802 21.2031 56.8802 20.6471ZM40.9019 28.1252C40.5085 27.7321 39.8711 27.7321 39.4779 28.1252C39.0847 28.5185 39.0847 29.1559 39.4779 29.5492L45.3857 35.457C45.779 35.8501 46.4167 35.85 46.8098 35.457C47.203 35.0636 47.203 34.4262 46.8098 34.033L40.9019 28.1252ZM38.5974 14.0585C38.9907 14.4517 39.6283 14.4515 40.0214 14.0585L43.6484 10.4314C44.0416 10.0381 44.0416 9.40056 43.6484 9.0075C43.2549 8.61427 42.6175 8.61443 42.2244 9.0075L38.5975 12.6346C38.2042 13.0279 38.2042 13.6654 38.5974 14.0585ZM8.28865 9.59346C7.73245 9.59346 7.28181 10.0441 7.28181 10.6003V12.3878C7.28181 12.944 7.73249 13.3946 8.28865 13.3946C8.84482 13.3946 9.29549 12.9439 9.29549 12.3878V10.6003C9.29553 10.0441 8.84485 9.59346 8.28865 9.59346ZM8.12624 21.6539H20.4174C20.9736 21.6539 21.4242 21.2033 21.4242 20.6471C21.4242 20.0909 20.9735 19.6403 20.4174 19.6403H8.12624C7.57004 19.6403 7.1194 20.0909 7.1194 20.6471C7.1194 21.2033 7.57004 21.6539 8.12624 21.6539ZM28.0097 61.5746C28.0097 60.5125 27.1456 59.6483 26.0836 59.6483L25.9414 59.6483L25.8463 57.5703C25.4864 49.7034 24.1513 47.591 18.6084 42.065L13.2695 35.1676C12.1719 33.7497 10.1921 33.3396 8.62753 34.1954L7.5448 26.4777C7.25457 24.4089 5.33293 22.9609 3.26422 23.2504C1.19441 23.5408 -0.253325 25.461 0.0370651 27.531L1.88483 40.7001C2.36196 44.1028 3.1442 45.2616 4.85814 47.8006C7.11351 51.1417 9.68704 53.8857 12.1906 56.5976C13.0343 57.5115 13.3816 58.4229 13.473 59.6483H12.8244C11.7623 59.6483 10.8981 60.5125 10.8981 61.5746V64.5265C10.8981 65.5886 11.7623 66.4528 12.8244 66.4528H26.0834C27.1456 66.4528 28.0097 65.5886 28.0097 64.5265V61.5746ZM13.7691 55.1407C14.8821 56.3465 15.483 57.7283 15.606 59.3652L15.6272 59.6483H23.7913L23.7008 57.6684C23.368 50.3931 22.3896 48.8636 17.0435 43.5378L11.571 36.4825C10.8252 35.5189 9.26438 35.7954 8.92999 36.9962C8.91963 37.0334 8.90677 37.0693 8.89281 37.1046C8.78675 37.5658 8.88824 38.0534 9.17552 38.4246L13.9738 44.6238C14.4915 45.2925 13.9901 46.2468 13.1783 46.2468C12.8774 46.2468 12.5798 46.1126 12.3814 45.8563L7.58309 39.6572C7.00101 38.9051 6.74833 37.9469 6.86581 37.01C6.85115 36.9603 6.83924 36.9093 6.83198 36.8566L5.41768 26.776C5.29242 25.883 4.4562 25.2524 3.56253 25.3774C2.66548 25.5034 2.0383 26.3356 2.16408 27.2325L4.01172 40.4016C4.42009 43.3125 5.02408 44.2072 6.63839 46.5987C8.79897 49.7995 11.2249 52.3867 13.7691 55.1407ZM25.996 61.662V64.439L12.912 64.4391V61.662H25.996ZM3.6797 8.78583H5.46719C6.02339 8.78583 6.47403 8.33515 6.47403 7.77899C6.47403 7.22283 6.02335 6.77215 5.46719 6.77215L3.6797 6.77211C3.1235 6.77211 2.67286 7.22279 2.67286 7.77895C2.67286 8.33511 3.12365 8.78583 3.6797 8.78583ZM17.902 35.7518C18.1596 35.7518 18.4174 35.6535 18.614 35.457L24.5218 29.5492C24.9151 29.1558 24.9151 28.5184 24.5218 28.1252C24.1284 27.732 23.4909 27.7323 23.0979 28.1252L17.1901 34.033C16.5546 34.6685 17.0126 35.7518 17.902 35.7518ZM63.9628 27.531C64.103 26.5313 63.8439 25.5345 63.2331 24.7248C61.1913 22.0173 56.9193 23.1674 56.4549 26.4782L55.3721 34.1959C53.8071 33.3401 51.8276 33.7503 50.7302 35.1681L45.3912 42.0653C39.8483 47.5914 38.5132 49.7039 38.1534 57.5706L38.0584 59.6486H37.9162C36.8541 59.6486 35.99 60.5127 35.99 61.5749V64.5267C35.99 65.5889 36.8542 66.453 37.9162 66.453H51.1753C52.2374 66.453 53.1016 65.5889 53.1016 64.5267V61.5749C53.1016 60.5127 52.2374 59.6486 51.1753 59.6486H50.5267C50.6181 58.4231 50.965 57.5119 51.8089 56.5978C54.3124 53.8863 56.8861 51.1417 59.1415 47.8007C60.8554 45.2617 61.6377 44.1029 62.1149 40.7001L63.9628 27.531ZM38.0037 61.662L51.0877 61.662V64.439L38.0037 64.4391V61.662ZM60.4371 25.3777C59.5442 25.2519 58.7073 25.8834 58.5821 26.7762L57.1678 36.8568C57.1604 36.9094 57.1483 36.9604 57.1338 37.0102C57.2513 37.9471 56.9987 38.9054 56.4165 39.6573L51.6183 45.8565C51.2762 46.2984 50.6431 46.3748 50.2057 46.0363C49.7661 45.696 49.6855 45.0636 50.0259 44.6239L54.8241 38.4248C55.6342 37.3783 54.8256 35.735 53.4311 35.913C53.0295 35.9642 52.6734 36.1666 52.4286 36.4828L46.9561 43.5381C41.6099 48.8638 40.6317 50.3933 40.2989 57.6687L40.2083 59.6486L48.3723 59.6486L48.3937 59.3653C48.5164 57.7288 49.1173 56.347 50.2304 55.141C52.7777 52.3822 55.1963 49.8059 57.3611 46.5992C58.9754 44.2079 59.5795 43.313 59.9878 40.4021L61.8357 27.233C61.9615 26.3357 61.334 25.5034 60.4371 25.3777ZM36.679 49.1268C37.2207 49.0013 37.5582 48.4604 37.4326 47.9187L32.9806 28.6966C32.7334 27.6511 31.2508 27.6756 31.0193 28.6962L26.5674 47.9183C26.4203 48.5531 26.907 49.1526 27.5491 49.1526C28.007 49.1526 28.4213 48.8379 28.5292 48.3726L30.9932 37.733V61.8408C30.9932 62.3971 31.4439 62.8477 32.0001 62.8477C32.5562 62.8477 33.0069 62.397 33.0069 61.8408V37.7327L35.4712 48.3726C35.5987 48.9231 36.1478 49.2502 36.679 49.1268ZM18.1034 27.4709L22.8462 25.5149C23.3602 25.3029 23.6051 24.7142 23.3931 24.2002C23.1813 23.6862 22.5931 23.4413 22.0784 23.6533L17.3356 25.6093C16.3192 26.0284 16.6277 27.5478 17.7199 27.5473C17.8478 27.5472 17.9777 27.5226 18.1034 27.4709ZM26.1007 9.06827C26.3154 9.589 26.9078 9.82448 27.4154 9.6153C27.9294 9.40334 28.1743 8.81464 27.9623 8.30059L24.7962 0.623393C24.5844 0.109508 23.996 -0.135372 23.4815 0.0764837C22.9675 0.288446 22.7226 0.877147 22.9346 1.39118L26.1007 9.06827ZM8.28855 5.96447C8.84474 5.96447 9.29539 5.51381 9.29539 4.95763V3.17014C9.29539 2.61394 8.8447 2.1633 8.28855 2.1633C7.73237 2.1633 7.2817 2.61398 7.2817 3.17014V4.95763C7.2817 5.51368 7.73249 5.96447 8.28855 5.96447ZM11.11 8.78568H12.8975C13.4537 8.78568 13.9044 8.335 13.9044 7.77884C13.9044 7.22267 13.4537 6.77198 12.8975 6.77198H11.11C10.5538 6.77198 10.1032 7.22267 10.1032 7.77884C10.1032 8.335 10.5538 8.78568 11.11 8.78568ZM23.9963 14.0585C24.3896 14.4517 25.0272 14.4515 25.4203 14.0585C25.8136 13.6653 25.8136 13.0278 25.4203 12.6346L21.7934 9.0075C21.4002 8.61454 20.7628 8.61427 20.3694 9.0075C19.9762 9.40071 19.9762 10.0382 20.3694 10.4314L23.9963 14.0585Z" fill="#964A26"/>
</svg>
