<svg width="52" height="58" viewBox="0 0 52 58" fill="none" xmlns="http://www.w3.org/2000/svg">
<path d="M51.0409 25.3083H50.3741C49.9136 22.1111 47.9828 19.312 45.1549 17.746L50.7147 8.27156C50.8442 8.0509 50.8802 7.78706 50.8154 7.53762C50.7626 7.34814 50.8442 7.52323 46.8123 0.481236V0.483635C46.5988 0.10946 46.1599 -0.077621 45.7401 0.0303124L37.993 2.03548C37.8395 2.09784 37.7051 2.20097 37.6044 2.3305C37.4221 2.56076 37.5324 2.31611 35.0763 11.2529H34.9396C34.0258 8.04843 30.4855 7.02429 27.8421 8.75124C25.6354 7.09626 22.8052 6.51342 20.1238 7.15619C18.9317 4.51299 16.6195 2.54141 13.8202 1.78346C11.0211 1.02311 8.03012 1.5556 5.66533 3.23219C3.30034 4.91118 1.80851 7.55917 1.5998 10.4519C1.39113 13.3421 2.48965 16.1772 4.58839 18.1776H4.59078C4.51643 18.7053 4.53322 19.2425 4.63876 19.7654C2.76549 21.1901 1.77488 23.3824 1.51828 25.3084H0.959415C0.429339 25.3084 0 25.7377 0 26.2678V52.7642C0 54.0355 0.503691 55.2563 1.40317 56.1557C2.3026 57.0552 3.52346 57.5613 4.79708 57.5613H47.2029C48.4765 57.5613 49.6974 57.0552 50.5968 56.1557C51.4963 55.2563 52 54.0355 52 52.7642V26.2678C52 26.0136 51.8993 25.7689 51.7194 25.589C51.5395 25.4091 51.2975 25.3083 51.0409 25.3083ZM48.0954 6.58054L43.8404 6.02408L40.4729 3.36412L45.5098 2.06889L48.0954 6.58054ZM38.9041 4.56819L42.286 7.24019L40.7629 10.8476C40.2688 12.0156 42.0389 12.7664 42.5306 11.5935L44.0537 7.9861L48.3279 8.54497L43.3893 16.9639C42.9024 16.8032 42.4035 16.6784 41.8974 16.5897C41.2522 14.1696 39.3933 12.2579 36.99 11.5431L38.9041 4.56819ZM3.49684 11.1499C3.49684 7.51613 6.01054 4.36433 9.55556 3.55873C13.1006 2.75313 16.7298 4.50617 18.3005 7.78495C17.0796 8.35101 15.9812 9.14735 15.0625 10.1331C12.261 9.97001 9.80491 11.4739 8.74971 13.9708C7.94619 13.2536 7.49047 12.2271 7.49286 11.1501C7.49286 8.22386 10.6805 6.41776 13.1822 7.87368C14.2807 8.51171 15.2449 6.85188 14.1416 6.2139C10.3615 4.01446 5.57409 6.75118 5.57409 11.1501C5.56929 12.4861 6.03701 13.7789 6.89326 14.8055C6.28643 15.1581 5.76597 15.6378 5.36538 16.211C4.15895 14.8007 3.49445 13.0064 3.49684 11.1499ZM6.2408 20.9885C6.62457 20.7558 6.79486 20.2833 6.64855 19.8563C5.94101 17.8176 7.41129 16.1002 9.44525 15.9923H9.44285C9.85301 15.9707 10.2056 15.69 10.3159 15.2943C10.9324 13.0996 12.9951 11.7828 15.3337 12.085C15.6551 12.1282 15.9765 12.0035 16.1876 11.7588C19.0994 8.34571 23.8752 7.80125 27.1946 10.6939C27.5592 11.0105 28.106 11.0081 28.4658 10.6843C30.188 9.13963 32.8935 9.71528 33.2149 12.3633C33.2437 12.6151 33.3732 12.8478 33.5723 13.0037C33.7738 13.162 34.028 13.234 34.2822 13.2028C37.1053 12.855 39.6981 14.8002 40.1586 17.6065C40.2282 18.0334 40.576 18.3597 41.0053 18.4052C44.7543 18.7746 47.7958 21.6001 48.4406 25.3106H3.4681C3.72713 23.7635 4.6194 21.9815 6.2408 20.9885ZM18.7516 27.2245V30.5129H7.95829L7.96069 27.2269L18.7516 27.2245ZM31.325 27.2245V35.2836C31.325 42.3209 20.6705 42.3209 20.6705 35.2836V27.2245H31.325ZM7.96074 32.4342H18.7541C18.7541 35.4179 18.7253 35.7154 18.8404 36.5117H7.96051L7.96074 32.4342ZM7.96074 52.8216H39.8612C41.13 52.8216 41.13 50.9028 39.8612 50.9028H7.96074V38.4307H19.3921C21.817 43.8275 30.1854 43.8275 32.6059 38.4307H44.0372V43.7075H11.3569C10.0881 43.7075 10.0881 45.6264 11.3569 45.6264H44.0397V55.6424H7.96074V52.8216ZM44.0397 36.5119H33.1573C33.2772 35.7108 33.2436 35.399 33.2436 32.4344H40.7869C42.0582 32.4344 42.0582 30.5156 40.7869 30.5156H33.2436L33.246 27.2272H44.0394L44.0397 36.5119ZM1.91873 52.7645V27.2272H6.04179V55.6425H4.79698C3.20677 55.6425 1.91873 54.3548 1.91873 52.7645ZM50.0835 52.7645H50.0811C50.0811 54.3548 48.7931 55.6428 47.2029 55.6428H45.9581V27.2275H50.0836L50.0835 52.7645Z" fill="#964A26"/>
<path d="M25.041 35.255V36.2672C25.041 37.5384 26.9599 37.5384 26.9599 36.2672V35.255C28.5717 34.7777 29.5886 33.1898 29.3488 31.5253C29.109 29.8631 27.6818 28.6278 26.0005 28.6278C24.3191 28.6278 22.892 29.8631 22.6521 31.5253C22.4123 33.1898 23.4292 34.7777 25.041 35.255ZM26.0005 30.5467C26.5929 30.5467 27.1254 30.9016 27.3532 31.4485C27.5787 31.9954 27.4564 32.6262 27.039 33.0436C26.6193 33.4633 25.9909 33.5905 25.444 33.365C24.8971 33.1419 24.5397 32.6094 24.5373 32.017C24.5349 31.2087 25.1921 30.5515 26.0004 30.5491L26.0005 30.5467Z" fill="#964A26"/>
<path d="M15.6195 21.2229C15.4276 19.8078 16.6317 18.9779 17.9557 19.2297C18.3754 19.3113 18.8 19.1002 18.9919 18.7165C20.1 16.4642 22.7312 15.4113 25.0866 16.282C26.2858 16.7089 26.9263 14.9004 25.7294 14.4735C22.6185 13.3677 19.311 14.5406 17.6077 17.2654C15.2307 17.203 13.391 19.0643 13.7173 21.4772C13.8876 22.7341 15.7898 22.4774 15.6195 21.2229Z" fill="#964A26"/>
</svg>
