<svg width="52" height="60" viewBox="0 0 52 60" fill="none" xmlns="http://www.w3.org/2000/svg">
<path d="M31.8647 9.09316C32.2111 8.84469 32.5907 8.64591 32.9922 8.50261C33.2581 8.35523 33.5353 8.22537 33.8121 8.09448C34.0975 7.9605 34.383 7.82601 34.6577 7.67399L34.703 7.63946C34.8226 7.51579 34.9432 7.39572 35.0705 7.27874L35.2127 7.14888L35.0828 7.00614C34.6812 6.59276 34.2247 6.2366 33.726 5.94769L33.6436 5.89616L33.5529 5.93171C32.6474 6.2199 31.812 6.69377 31.1 7.32306C31.0655 7.35427 31.0284 7.38254 30.9892 7.40757C30.8119 7.55856 30.631 7.69409 30.4429 7.83322L30.2368 7.98781L30.4429 8.14241C30.8475 8.44747 31.2412 8.76078 31.6344 9.08183L31.7467 9.17355L31.8647 9.09316Z" fill="#964A26"/>
<path d="M21.6402 22.3216L21.4763 22.2356C21.2393 22.1114 20.9986 21.9908 20.7549 21.8784L20.6054 21.8099L20.5142 21.9454C20.2665 22.3356 19.9579 22.6836 19.6 22.9761C19.511 23.0431 19.4171 23.1036 19.3192 23.1569L19.2677 23.1848L19.2398 23.2363C18.1451 25.1946 16.9454 27.0923 15.646 28.9212C14.1038 31.0632 12.7209 33.3155 11.5086 35.66L11.4694 35.7409L11.5055 35.8228C11.5263 35.8738 11.5363 35.9286 11.5349 35.9836V36.1382C11.5519 36.7373 11.5316 37.3369 11.4741 37.9336L11.4565 38.0799L11.5931 38.135C11.6903 38.174 11.7853 38.2184 11.8776 38.268L12.0543 38.3633L12.1429 38.183C13.5044 35.5527 15.0364 33.0144 16.7292 30.5842C18.535 28.0061 20.1495 25.2993 21.5598 22.4855L21.6402 22.3216Z" fill="#964A26"/>
<path d="M18.9445 22.4567L19.0243 22.4314C19.1805 22.3393 19.3187 22.2195 19.432 22.0779C19.7098 21.7355 19.9671 21.3769 20.2023 21.004L20.3843 20.7304C20.7009 20.229 21.0712 19.7635 21.4886 19.3421L21.6597 19.1803L21.4674 19.0443C21.3407 18.9546 21.2139 18.8619 21.0882 18.7583L20.9923 18.6769C20.7312 18.407 20.3955 18.2213 20.0282 18.1435L19.9411 18.1327L19.8762 18.1909C19.2702 18.7913 18.7621 19.483 18.3704 20.2408C18.083 20.7647 17.7537 21.2645 17.3856 21.7352L17.2666 21.8785L17.4052 22.0027C17.7023 22.3199 18.1025 22.5212 18.5343 22.5706C18.5934 22.5706 18.6524 22.5651 18.7105 22.5541L18.794 22.5149C18.8373 22.4811 18.8897 22.4608 18.9445 22.4567Z" fill="#964A26"/>
<path d="M21.8871 21.5835L21.9742 21.4113C22.9312 19.5155 24.6647 18.1649 26.341 16.8601C26.7048 16.5767 27.0665 16.2933 27.418 16.0103C29.7251 14.1413 31.977 12.1259 34.1542 10.177L34.8334 9.56944L34.5906 9.43906C34.4047 9.3139 34.1947 9.22867 33.9742 9.18876C33.7536 9.14885 33.5271 9.15512 33.3091 9.20717L33.1065 9.30147C33.0477 9.33931 32.991 9.38025 32.9365 9.42412C32.86 9.48344 32.7659 9.51554 32.669 9.51533H32.6175L32.5722 9.54264C32.2705 9.7275 31.9788 9.92806 31.6982 10.1435C30.8943 10.8108 30.1337 11.5477 29.3978 12.2604C28.6723 12.9628 27.9225 13.6889 27.1346 14.3454L27.0227 14.4392C25.4355 15.699 23.9426 17.0734 22.556 18.5514L22.4462 18.674L22.5493 18.8018C22.6106 18.8799 22.6407 18.9779 22.6338 19.077V19.1043L22.64 19.1311C22.6596 19.207 22.6536 19.2872 22.6231 19.3594C22.5925 19.4315 22.5391 19.4917 22.471 19.5304C21.9251 19.9077 21.4687 20.4002 21.1343 20.9733L21.0137 21.1583L21.2131 21.2531C21.3811 21.333 21.5486 21.4134 21.7166 21.4974L21.8871 21.5835Z" fill="#964A26"/>
<path d="M31.6938 3.35418C31.6974 3.35778 31.6974 3.36191 31.7015 3.36551C31.9855 3.84527 31.1259 4.85992 30.6003 4.70894C30.3854 4.80839 30.1742 4.94289 29.967 5.05007C30.3792 5.384 30.7843 5.76378 31.1795 6.14769C31.8946 5.72546 32.6369 5.3512 33.4016 5.0274C33.4661 4.98839 33.5387 4.96463 33.6138 4.95793C33.6889 4.95123 33.7645 4.96177 33.8349 4.98875C33.9406 4.98891 34.0442 5.01815 34.1343 5.07326C34.7609 5.43628 35.3321 5.8875 35.8302 6.41308C38.313 4.64401 41.8476 3.88443 44.6833 4.03748C44.7207 4.04062 44.7578 4.04578 44.7946 4.05294C44.8101 3.99162 44.8214 3.92617 44.8328 3.86125C44.8637 3.67676 44.5452 3.46188 44.4205 3.36242C44.1711 3.163 43.8068 2.80949 43.4414 2.894C43.0998 2.97078 42.7715 3.10013 42.436 3.20319C42.3344 3.24132 42.2231 3.24509 42.1191 3.21391C42.0152 3.18273 41.9243 3.11832 41.8604 3.03056C41.8301 3.01182 41.8028 2.98853 41.7795 2.96151C41.5754 2.66417 41.2764 2.44502 40.9313 2.34004C40.7846 2.29921 40.66 2.20203 40.5846 2.06969C40.5092 1.93736 40.4892 1.78058 40.5289 1.63354C40.5551 1.53883 40.6063 1.45291 40.6771 1.38474C40.7479 1.31657 40.8357 1.26867 40.9313 1.24603C41.0426 1.16925 41.1503 1.09659 41.2575 1.02341C41.0017 0.803127 40.7036 0.637416 40.3815 0.536442C40.1621 0.479269 39.9378 0.443205 39.7116 0.428741C39.6309 0.542329 39.5118 0.622827 39.3763 0.655325C39.2408 0.687823 39.0981 0.67012 38.9747 0.605494C38.5352 0.341816 38.0624 0.138175 37.5689 0C36.1219 0.226738 34.7177 0.64878 33.2593 0.832747C32.323 0.951784 30.439 1.01311 29.7212 1.85358C30.3407 2.23829 30.9402 2.65452 31.5171 3.10064C31.6008 3.16484 31.6625 3.25342 31.6938 3.35418ZM35.4314 1.26252C35.5772 1.2012 35.7344 1.13627 35.907 1.06721C35.9957 1.0363 36.0838 1.00177 36.176 0.967244C36.2683 0.932718 36.3306 0.898192 36.4177 0.852329C36.5939 0.752358 36.782 0.646203 36.9778 0.537472C37.2148 0.398098 37.4746 0.301956 37.7451 0.253534C37.8285 0.25265 37.9119 0.257817 37.9946 0.268994C37.9868 0.264871 37.9832 0.264871 37.9755 0.261264L38.01 0.268994H37.9946C38.1381 0.300715 38.2714 0.368057 38.3821 0.464813C38.4601 0.532321 38.5345 0.604057 38.6047 0.679699C38.7315 0.810073 38.8623 0.951784 38.9139 0.99404L38.952 1.01723C39.9193 1.82318 40.7041 2.3756 40.6211 2.50236C40.583 2.55956 40.3526 2.49463 39.9883 2.32973C39.4743 2.10789 38.9914 1.82017 38.5516 1.4738C38.0224 1.03269 37.9992 0.741021 37.27 1.10174C37.0742 1.19759 36.8825 1.30117 36.6754 1.38929C36.5702 1.43507 36.4625 1.47481 36.3528 1.50832C36.2569 1.53151 36.1647 1.55419 36.0766 1.57738C35.8962 1.61963 35.7272 1.66189 35.5741 1.69641C34.9753 1.85101 34.5837 1.91491 34.5435 1.83091C34.5033 1.74691 34.8444 1.53512 35.4314 1.26252ZM33.0094 1.89584C33.0707 1.83091 33.4546 2.12618 34.0725 2.61367C34.391 2.84762 34.7517 3.1161 35.1737 3.45775C35.3773 3.63038 35.6071 3.78756 35.8184 4.00244C35.973 4.1524 36.1276 4.31163 36.2904 4.47086C36.4476 4.37501 36.6053 4.28277 36.7702 4.19053C37.4074 3.90211 38.0815 3.7032 38.7732 3.59947C39.3988 3.50362 39.9512 3.45003 40.4155 3.41189C41.3364 3.32738 41.9042 3.23875 41.9315 3.33511C41.9583 3.40777 41.4131 3.65718 40.4845 3.86073C39.3099 4.03834 38.1583 4.34456 37.0505 4.77387C36.8392 4.8929 36.6279 5.01555 36.4208 5.13098L36.1832 5.26908L35.9987 5.07687C35.7926 4.85838 35.5865 4.6471 35.3963 4.44767C35.2124 4.23691 34.9898 4.06376 34.8017 3.88392C34.4255 3.53454 34.0606 3.19701 33.7767 2.92028C33.2325 2.34468 32.9594 1.94943 33.0094 1.89584Z" fill="#964A26"/>
<path d="M27.104 5.50701L27.2158 5.5503L27.304 5.46939C27.6687 5.15492 28.0898 4.9124 28.5448 4.75465L28.6103 4.7124C28.6232 4.699 28.6376 4.68715 28.6778 4.65314C29.1596 4.32164 29.673 4.03839 30.2103 3.80751L30.6267 3.6122L30.3598 3.4205C29.8836 3.07782 29.3534 2.73565 28.6922 2.34401L28.6098 2.29506L28.5206 2.33113C27.5366 2.76268 26.611 3.31673 25.7657 3.98014L25.7096 4.02188L25.6926 4.0899C25.6744 4.17053 25.6302 4.24295 25.5668 4.29602L25.3726 4.46144L25.8317 4.77063C26.2255 5.065 26.6526 5.31215 27.104 5.50701Z" fill="#964A26"/>
<path d="M7.75146 38.9122C7.76228 38.977 7.79351 39.0368 7.84061 39.0827C8.04056 39.2492 8.24153 39.413 8.4425 39.5764C8.62647 39.7269 8.81043 39.8763 8.99182 40.0268C9.02663 40.0556 9.07033 40.0714 9.1155 40.0716C9.12657 40.0716 9.13761 40.0706 9.14848 40.0685C9.17591 40.0636 9.20198 40.0529 9.22491 40.0371C9.24785 40.0213 9.26712 40.0007 9.28143 39.9768C9.56624 39.4382 10.0109 39.0011 10.5543 38.7256C10.6012 38.7056 10.6384 38.6679 10.6577 38.6206C10.677 38.5733 10.6769 38.5203 10.6573 38.4731C10.6247 38.3974 10.618 38.3129 10.6383 38.233C10.6459 38.2062 10.6562 38.1803 10.6692 38.1557C10.6836 38.1294 10.6913 38.1001 10.6918 38.0701C10.7668 37.5806 10.7947 37.085 10.7753 36.5902C10.7752 36.5599 10.7679 36.5301 10.754 36.5032C10.7401 36.4764 10.72 36.4532 10.6955 36.4356C10.6455 36.4013 10.6032 36.3572 10.5712 36.3058C10.5392 36.2545 10.5182 36.1971 10.5094 36.1372C10.5028 36.0872 10.4769 36.0417 10.4373 36.0104C10.1271 35.7773 9.83433 35.5219 9.56125 35.2462C9.54142 35.2243 9.5166 35.2074 9.48888 35.1971C9.46116 35.1868 9.43137 35.1833 9.40202 35.187C9.3728 35.1898 9.34462 35.1992 9.31962 35.2146C9.29461 35.2299 9.27344 35.2508 9.25773 35.2756C9.00292 35.6842 8.72774 36.0798 8.43322 36.4608C8.415 36.484 8.40228 36.511 8.39603 36.5399C8.38979 36.5687 8.39017 36.5986 8.39715 36.6273C8.41966 36.7196 8.40795 36.817 8.36417 36.9014C8.00769 37.5155 7.798 38.2036 7.75146 38.9122Z" fill="#964A26"/>
<path d="M43.7436 7.27938L43.1865 7.45201L43.0474 7.53292V7.83283L43.202 7.86581C43.3986 7.91396 43.5917 7.97595 43.7796 8.05132C44.087 8.18389 44.4135 8.26652 44.7469 8.2961H44.8695L44.921 8.1853C44.9856 8.04082 45.0352 7.89007 45.0689 7.73544C45.1205 7.52055 45.1596 7.28093 45.1952 7.00318L45.2137 6.86043L45.0818 6.8022C45.038 6.78377 44.9931 6.76794 44.9473 6.75479L44.8525 6.72697L44.7742 6.78726C44.4638 7.01327 44.1144 7.1801 43.7436 7.27938Z" fill="#964A26"/>
<path d="M42.3134 2.11686L42.3985 2.20704L42.5159 2.16736C42.8617 2.0255 43.2302 1.94696 43.6038 1.93547L44.4262 1.95814L43.7007 1.57062C43.3568 1.3776 42.971 1.27147 42.5768 1.26144H42.4737L42.417 1.34956C42.3753 1.41619 42.3191 1.47255 42.2526 1.51446L41.9141 1.73192L42.1465 1.95196C42.2016 2.00606 42.2619 2.0612 42.3134 2.11686Z" fill="#964A26"/>
<path d="M17.4609 15.1424C17.5348 15.1989 17.5907 15.2759 17.6214 15.3638C17.6522 15.4517 17.6566 15.5467 17.634 15.6371C17.6845 15.7193 17.7082 15.815 17.702 15.9113C17.6959 16.0075 17.66 16.0995 17.5995 16.1745C17.2614 16.6502 16.9126 17.1186 16.5596 17.5829C17.1619 17.9019 17.683 18.3548 18.0828 18.9067C18.4125 18.3365 18.8352 17.8255 19.3335 17.3948C19.4187 17.3257 19.5208 17.2807 19.6293 17.2644C19.7311 17.1941 19.8554 17.164 19.9782 17.1799C20.4633 17.2221 20.9252 17.4064 21.3061 17.7097C21.4484 17.8168 21.5865 17.9359 21.7246 18.0508C23.1849 16.4766 24.7627 15.0156 26.4443 13.6804C27.9521 12.4061 29.2878 10.9441 30.7843 9.66665C30.792 9.65479 30.7961 9.64706 30.8034 9.63573C30.4158 9.32087 30.0247 9.00241 29.6181 8.70816C29.5432 8.65564 29.4797 8.58838 29.4316 8.5105C29.3835 8.43262 29.3517 8.34575 29.3383 8.2552C29.2401 8.14667 29.1873 8.00455 29.1908 7.85821C29.1944 7.71187 29.254 7.57248 29.3574 7.46883C29.6491 7.23849 29.9943 7.03133 30.2937 6.78192C29.8526 6.37894 29.4074 5.98731 28.9353 5.63071C28.4908 5.76766 28.0908 6.02059 27.7764 6.36348C27.7016 6.44097 27.6059 6.49496 27.5009 6.51885C27.3959 6.54274 27.2863 6.53549 27.1853 6.49798C27.0979 6.50674 27.0097 6.49492 26.9277 6.46346C26.1502 6.0941 25.4033 5.6633 24.6943 5.17517C22.7385 6.58031 20.8832 8.1202 19.1418 9.78362C18.5317 10.3747 15.9798 12.4772 15.8149 13.6402C16.1486 13.7732 16.4458 13.9836 16.6822 14.254C16.9202 14.5683 17.1804 14.8652 17.4609 15.1424ZM19.8019 10.8524C20.1006 10.4487 20.4332 10.0711 20.796 9.72385C21.2484 9.25594 21.8266 8.75712 22.4764 8.20419C22.8026 7.9321 23.1463 7.64816 23.507 7.35237C23.5498 7.31745 23.5908 7.2803 23.6297 7.24106L23.7374 7.13388C23.8178 7.04524 23.9023 6.95713 23.9868 6.86901C24.0713 6.78089 24.1671 6.68865 24.2743 6.59641C24.4068 6.48062 24.5625 6.39437 24.7309 6.34339L24.7464 6.33926H24.7654C25.002 6.33339 25.2351 6.39757 25.4353 6.52375C25.5985 6.61823 25.7536 6.72595 25.8991 6.84582C26.4902 7.32558 26.9658 7.88211 27.4188 8.30416C27.8598 8.7083 28.3575 9.0458 28.8962 9.30593L29.1915 9.42857L29.0456 9.69344C28.739 10.1996 28.344 10.6465 27.8795 11.0132C27.5459 11.298 27.1961 11.5633 26.8318 11.8078C26.2294 12.2144 25.8527 12.3988 25.8187 12.3525C25.7847 12.3061 26.0949 12.0227 26.6283 11.5465C26.8932 11.309 27.2193 11.025 27.5646 10.6756C27.8721 10.3771 28.1497 10.0492 28.3932 9.69653C27.8986 9.44591 27.435 9.13805 27.0122 8.77927C26.4788 8.30003 26.0331 7.78575 25.4961 7.35186C25.3762 7.25331 25.2493 7.16358 25.1164 7.08338C25.0335 7.03368 24.9427 6.9988 24.8479 6.98032C24.7888 7.01101 24.7335 7.04836 24.683 7.09162C24.6021 7.15655 24.5176 7.23746 24.4336 7.31784C24.3496 7.39823 24.2681 7.48687 24.1842 7.56726L24.0378 7.70948C23.9863 7.76101 23.9538 7.78214 23.8961 7.83213L22.8345 8.64942C22.1646 9.16473 21.5679 9.62439 21.0959 10.031C20.6048 10.4149 20.2441 10.7828 19.9756 11.0101C19.7071 11.2373 19.5494 11.3553 19.519 11.3285C19.4886 11.3017 19.5906 11.1307 19.8019 10.8524ZM18.3668 12.9894C18.4183 12.9167 18.862 13.1507 19.5371 13.5691C19.8823 13.7685 20.2817 13.9948 20.7269 14.2906C20.949 14.4364 21.1794 14.5936 21.421 14.7507C21.6555 14.9275 21.8895 15.1269 22.1311 15.3263C22.1621 15.3495 22.1889 15.3727 22.2157 15.3954C23.0402 14.8121 23.7544 14.2617 24.2723 13.8531C24.8252 13.4042 25.1705 13.1239 25.2395 13.1831C25.3008 13.2347 25.0669 13.6243 24.5758 14.1767C23.9079 14.8749 23.1754 15.5085 22.3883 16.0689L22.1925 16.2142L21.9817 16.0416L21.705 15.8118C21.4751 15.6273 21.2639 15.4356 21.0454 15.263C20.8186 15.0975 20.596 14.9368 20.3889 14.7832C19.9766 14.474 19.5757 14.1844 19.2645 13.9391C18.6543 13.4233 18.3132 13.0626 18.3668 12.9894Z" fill="#964A26"/>
<path d="M35.408 9.03095C35.4386 9.0447 35.4675 9.062 35.494 9.08248L35.5672 9.13401L35.6533 9.11185C37.5894 8.607 39.4891 7.97154 41.3392 7.20983C41.578 7.12742 41.8213 7.0586 42.0679 7.00371C43.1681 6.73265 44.8305 6.32246 44.5878 5.13982L44.5574 4.99037L44.4028 4.98522C42.0777 4.91462 38.7199 5.47838 36.2541 7.29486L36.1913 7.34124L36.1809 7.42059C36.1725 7.49173 36.141 7.55815 36.0913 7.60971C35.8433 7.82109 35.573 8.00493 35.2853 8.15801L35.1823 8.25489C35.0941 8.34507 35.006 8.43679 34.9246 8.53367L34.77 8.71918L34.9849 8.82946C35.1199 8.90006 35.2585 8.96654 35.408 9.03095Z" fill="#964A26"/>
<path d="M9.72302 46.6905C10.0079 45.0701 10.3777 43.4658 10.8309 41.8842C10.9072 41.6358 11.0025 41.3951 11.0968 41.1545C11.1778 40.9509 11.2581 40.7469 11.3164 40.5655C11.3844 40.4341 11.5653 40.0857 11.3597 39.877C11.1685 39.6833 10.7928 39.7549 10.0569 40.1233L9.98995 40.1672L9.9611 40.2295C9.88947 40.3877 9.81835 40.5454 9.75085 40.7036L9.71168 40.7958L9.76322 40.8809C9.78906 40.9237 9.80533 40.9716 9.81094 41.0213C9.81654 41.0711 9.81134 41.1214 9.79568 41.1689C9.55915 41.9475 9.27397 42.7105 8.94181 43.4533C8.50976 44.3915 8.17011 45.3696 7.92767 46.3736C7.7571 47.1904 7.62879 48.0262 7.50511 48.8347C7.41802 49.4047 7.33042 49.9746 7.22787 50.543L7.2119 50.6327C7.10162 51.2418 6.95424 52.0755 7.54067 52.3847C7.68824 52.4563 7.85078 52.4916 8.01476 52.4878C8.06862 52.4878 8.12246 52.485 8.17605 52.4795C9.30356 52.3801 9.28552 51.3185 9.27161 50.5435C9.27161 50.4281 9.26748 50.3163 9.27161 50.2096C9.32038 49.0255 9.47211 47.8478 9.72508 46.69L9.72302 46.6905Z" fill="#964A26"/>
<path d="M47.0474 20.0417L46.9815 20.2159C46.9186 20.3823 46.8573 20.5488 46.796 20.7157C46.5558 21.4316 46.2539 22.1253 45.8936 22.7889L45.7988 22.9517L45.9591 23.0506C46.1112 23.1487 46.2561 23.2574 46.393 23.3758L46.5553 23.5118L46.6759 23.3382C46.9774 22.8823 47.2461 22.4054 47.4798 21.9113C47.6627 21.5454 47.8524 21.1672 48.0667 20.8193L48.1548 20.6766L48.0255 20.5694C47.7895 20.3655 47.5178 20.2068 47.2242 20.1015L47.0474 20.0417Z" fill="#964A26"/>
<path d="M43.9548 17.4642C43.6277 17.208 43.2561 17.0145 42.8588 16.8932L42.7212 16.8582L42.4965 17.2189C41.9899 18.0244 41.4143 18.9375 41.4092 19.9223V20.0573L41.5359 20.1047C41.7155 20.1749 41.8848 20.2688 42.0394 20.384L42.1775 20.4819L42.2929 20.3582C43.0584 19.6021 43.6505 18.6887 44.028 17.6812L44.0723 17.5456L43.9548 17.4642Z" fill="#964A26"/>
<path d="M48.2136 8.04401C48.5197 8.34186 48.8681 8.62889 49.2051 8.90613C49.8011 9.35535 50.3398 9.87592 50.8092 10.4562L50.951 10.65L51.1102 10.4696C52.0718 9.37764 49.826 6.7279 49.8034 6.70111C48.918 5.67048 47.5164 4.4193 45.8679 4.32757L45.7092 4.31881L45.6391 4.59141C45.5979 4.75064 45.5572 4.90833 45.5304 5.06189C45.5197 5.12529 45.4911 5.1843 45.4479 5.23195L45.3892 5.2943L45.3959 5.37933C45.4114 5.55507 45.3999 5.73216 45.3619 5.90443L45.3237 6.06675L45.4783 6.12808C46.5067 6.58163 47.436 7.23257 48.2136 8.04401Z" fill="#964A26"/>
<path d="M50.2668 11.0191L50.2179 10.9491C49.7216 10.3189 49.1419 9.75933 48.4947 9.28563L48.1654 9.04704L48.1041 9.3619C47.9799 9.99316 47.8263 10.778 48.2788 11.0521C48.7925 11.3394 49.3494 11.5416 49.9278 11.6509L50.1138 11.6911L50.2668 11.0191Z" fill="#964A26"/>
<path d="M48.6209 20.0593L48.7075 19.8109C49.2153 18.1619 49.5422 16.4626 49.6825 14.7428C49.7644 14.0487 49.8489 13.3304 49.9582 12.6244L49.987 12.4414L49.8051 12.4054C49.0105 12.2887 48.2579 11.9745 47.6161 11.4917C47.1049 11.0424 47.2116 10.3843 47.3249 9.68812C47.379 9.40598 47.4099 9.11988 47.4172 8.83269C47.4145 8.75846 47.4348 8.68521 47.4754 8.62296L47.5697 8.48589L47.4476 8.37252C47.0598 8.00184 46.6418 7.66417 46.1979 7.36302L45.9403 7.19348L45.8975 7.497C45.8145 8.08549 45.6486 8.79095 45.0946 9.01821C44.612 9.11966 44.109 9.04853 43.6734 8.81723C43.5307 8.7657 43.39 8.71417 43.2534 8.6714L43.0179 8.59771L43.003 8.84352C42.7914 11.4781 42.2548 14.0765 41.4055 16.5794L41.3638 16.7103L41.7333 16.9917L42.094 16.413C42.1254 16.361 42.1674 16.3163 42.2171 16.2816L42.263 16.2362C42.2932 16.187 42.3357 16.1466 42.3863 16.1188C42.4369 16.0911 42.4939 16.077 42.5516 16.078C43.2728 16.1802 43.9531 16.4752 44.5206 16.9319C44.5844 16.9788 44.6344 17.042 44.6654 17.1148L44.7246 17.1906C44.7834 17.2332 44.8276 17.2928 44.8514 17.3614C44.8752 17.4299 44.8773 17.5041 44.8576 17.574C44.7098 18.1424 44.4753 18.6847 44.1624 19.1817L44.0032 19.444L44.3088 19.4739C44.3357 19.4777 44.3622 19.4836 44.3881 19.4914C44.8258 19.6719 45.2161 19.9505 45.5291 20.3056C45.6069 20.3809 45.6836 20.4571 45.7656 20.5319L45.981 20.7328L46.0794 20.4551C46.1706 20.1974 46.2654 19.9423 46.3711 19.679L46.1954 19.6022L46.3958 19.6337L46.4138 19.577C46.4244 19.4872 46.4665 19.404 46.5325 19.3423C46.5985 19.2805 46.6843 19.2441 46.7746 19.2395C47.3701 19.3041 47.9359 19.5332 48.4086 19.9011L48.6209 20.0593Z" fill="#964A26"/>
<path d="M35.659 33.5674L35.5353 33.7411C35.3807 33.9591 35.2313 34.1812 35.0875 34.411L34.9927 34.5615L35.1349 34.6681C35.4245 34.8866 35.7105 35.1108 35.9965 35.335C36.502 35.7317 37.0271 36.1425 37.5662 36.515L37.6733 36.5892C37.9276 36.8062 38.2398 36.944 38.5715 36.9855C38.6881 36.9832 38.8025 36.9533 38.9052 36.8982C39.008 36.8431 39.0962 36.7644 39.1626 36.6686C39.2069 36.6171 39.2471 36.5655 39.2873 36.514L39.4275 36.3295L39.2265 36.2223C37.9996 35.5161 36.8572 34.6725 35.8213 33.7076L35.659 33.5674Z" fill="#964A26"/>
<path d="M18.8071 51.0771C18.5747 50.9297 18.3433 50.7901 18.1022 50.6525C18.075 50.6374 18.0498 50.619 18.0269 50.5979L17.9481 50.5268L17.845 50.5561C17.1583 50.704 16.5191 51.02 15.9847 51.476L15.9672 51.4971V51.5002H15.1958L15.9616 51.8676C16.3056 52.0596 16.6889 52.1705 17.0824 52.1917C17.4417 52.1831 17.7913 52.074 18.0919 51.8769C18.3372 51.725 18.5776 51.5656 18.8133 51.3987L19.0498 51.2317L18.8071 51.0771Z" fill="#964A26"/>
<path d="M39.41 29.94C39.4409 29.9937 39.4827 30.0402 39.5328 30.0765C39.5829 30.1128 39.6401 30.1381 39.7007 30.1508L39.7594 30.1714C39.9417 30.2457 40.135 30.2894 40.3314 30.3007C40.4326 30.3029 40.5329 30.282 40.6248 30.2395C40.7167 30.1971 40.7977 30.1343 40.8617 30.056C41.0098 29.8779 41.1475 29.6914 41.2739 29.4974C41.3332 29.4098 41.3919 29.3222 41.4538 29.2366L41.5754 29.0666L41.3961 28.9583C41.0786 28.7672 40.7494 28.5909 40.4087 28.4085L40.2588 28.3286L40.0392 28.6342C39.8269 28.9077 39.6416 29.201 39.4858 29.5102C39.443 29.5722 39.4141 29.6427 39.401 29.7169C39.3879 29.791 39.391 29.8671 39.41 29.94Z" fill="#964A26"/>
<path d="M38.6643 27.425L38.4983 27.3168L38.3953 27.4853C38.1139 27.9425 37.8341 28.4001 37.5558 28.8581C36.8859 29.9541 36.1964 31.0878 35.4848 32.1824L35.3931 32.3235L36.0522 32.8955C37.1788 33.9622 38.4319 34.8867 39.7835 35.6483L39.8943 35.705L39.9922 35.6277C40.0394 35.5884 40.1 35.5688 40.1613 35.5731L40.2494 35.5793L40.3117 35.5175C41.6382 34.1988 42.4761 32.4637 43.2841 30.7853L43.3686 30.6112L43.2913 30.5158C43.0179 30.182 42.707 29.8808 42.3647 29.6181L42.2014 29.4909L42.0854 29.6625C42.0339 29.7418 41.9793 29.8243 41.9252 29.9078C41.718 30.3067 41.4144 30.6475 41.0419 30.8992C40.7625 31.0203 40.4587 31.0747 40.1546 31.0581C39.8505 31.0415 39.5544 30.9542 39.2899 30.8034C39.1455 30.7443 39.016 30.6539 38.9108 30.5387C38.8056 30.4234 38.7274 30.2863 38.6818 30.1371C38.538 29.5568 38.991 28.8034 39.4548 28.1428L39.5779 27.9681L39.3914 27.8651C39.144 27.7239 38.9018 27.5801 38.6643 27.425Z" fill="#964A26"/>
<path d="M28.2491 43.6041C28.6718 43.4028 29.0475 43.1151 29.3519 42.7595L29.5276 42.5828L29.5307 42.5065C29.64 41.9714 29.8868 41.4741 30.247 41.0636L30.3712 40.8889L30.1847 40.7859C30.0225 40.6953 29.8493 40.626 29.6694 40.5797L29.5513 40.5483L29.4725 40.6416C29.2376 40.9083 28.9891 41.1627 28.7279 41.4037C28.3198 41.7637 27.954 42.169 27.6375 42.6116C27.4829 42.8461 27.3283 43.2862 27.5344 43.5392C27.5761 43.5889 27.6287 43.6281 27.6882 43.6539C27.7477 43.6797 27.8124 43.6912 27.8771 43.6876C28.0052 43.6828 28.1313 43.6545 28.2491 43.6041Z" fill="#964A26"/>
<path d="M22.7203 53.3865L22.6007 53.3231L22.4977 53.4138C21.83 53.9759 21.0893 54.445 20.2957 54.8083L19.9824 54.966L20.2834 55.1468C20.5151 55.2991 20.7848 55.3835 21.062 55.3906C21.1373 55.3904 21.2125 55.3838 21.2867 55.371L21.3382 55.3535C21.584 55.2329 21.8252 55.1272 22.0633 55.0288L22.1318 54.9876C22.3683 54.8289 22.5956 54.6568 22.8192 54.4857C22.9738 54.3697 23.1227 54.2543 23.2768 54.144L23.4536 54.0173L23.3067 53.857C23.1403 53.6671 22.9418 53.5078 22.7203 53.3865Z" fill="#964A26"/>
<path d="M13.6581 19.479L13.8127 19.5924L14.4945 18.7164C15.2072 17.8017 15.9441 16.8556 16.6305 15.8966L16.7206 15.7708L16.6176 15.6554C16.5289 15.5565 16.4444 15.4493 16.3599 15.3411C16.1659 15.0583 15.9213 14.8137 15.6385 14.6196L15.521 14.5495L15.4179 14.6371C14.1963 15.6908 13.1548 16.9367 12.3343 18.3258L12.2354 18.4865L12.3936 18.5896C12.7744 18.8375 13.1907 19.1291 13.6581 19.479Z" fill="#964A26"/>
<path d="M22.9888 55.5627L22.8373 55.2762L22.6575 55.5462C22.6108 55.6122 22.5438 55.6612 22.4668 55.6859H22.4606C22.3952 55.7111 22.3267 55.7374 22.222 55.7853C21.9806 55.9209 21.7257 56.0309 21.4614 56.1136C20.8065 56.4259 20.1489 56.8005 19.5125 57.1628C17.7811 58.148 15.9976 59.1725 14.0502 59.0694L13.9657 59.0653L13.9054 59.1251C13.8776 59.1524 13.8532 59.1831 13.8327 59.2163L13.6982 59.4389L13.9502 59.5038C14.5565 59.6584 15.1797 59.7359 15.8054 59.7347C18.7828 59.7347 21.565 58.0311 23.2259 56.3336L23.3181 56.2398L23.2666 56.1198C23.1769 55.9312 23.0862 55.7472 22.9888 55.5627Z" fill="#964A26"/>
<path d="M12.9811 58.5526C10.9451 57.4704 9.85418 55.3752 8.91013 53.3242L8.84674 53.1861L8.69782 53.215C8.53577 53.2459 8.37218 53.2681 8.20775 53.2815L7.99854 53.2985L8.03306 53.5046C8.53858 56.5264 9.65372 58.3387 11.6495 59.3792L11.6954 59.4034H11.7469C12.2124 59.3938 12.6612 59.2281 13.0213 58.9329L13.1022 58.8329L13.0831 58.6072L12.9811 58.5526Z" fill="#964A26"/>
<path d="M19.0212 54.7324C19.0311 54.6831 19.0528 54.637 19.0845 54.5981C19.1162 54.5591 19.1569 54.5284 19.2031 54.5087C19.4319 54.3902 19.6643 54.2758 19.9003 54.1614L20.1632 54.0346L19.9436 53.8424C19.5252 53.4388 19.0451 53.1045 18.5214 52.852C18.4853 52.8361 18.454 52.8113 18.4302 52.7799L18.3333 52.6479L18.1874 52.7211C17.9772 52.8292 17.753 52.9074 17.5211 52.9535C16.7198 53.1019 16.1566 52.8201 15.4424 52.4629L15.2661 52.3753C15.2236 52.3581 15.1857 52.3314 15.1552 52.2972C15.1248 52.2629 15.1026 52.2222 15.0904 52.178V51.9203L14.824 52.0306C13.3027 52.7152 11.6757 53.1347 10.013 53.271L9.72754 53.2869L9.84864 53.5446C10.7035 55.3662 11.7934 57.3749 13.9248 58.1489C13.9893 58.1715 14.047 58.21 14.0928 58.2607L14.1474 58.3226L14.2293 58.3252C14.2896 58.3252 14.3484 58.3288 14.4076 58.3288C16.1808 58.3288 17.8927 57.3229 19.5499 56.3489L20.1374 56.0047L19.8885 55.8326C19.6772 55.6857 19.4695 55.5141 19.2701 55.3477L19.0728 55.19C19.042 55.1696 19.0156 55.1432 18.9951 55.1125C18.9747 55.0817 18.9605 55.0472 18.9535 55.011C18.9465 54.9747 18.9468 54.9374 18.9543 54.9013C18.9619 54.8651 18.9766 54.8308 18.9975 54.8004L19.0212 54.7324Z" fill="#964A26"/>
<path d="M46.788 27.5834L46.637 27.5998L46.5746 27.7194C46.3731 28.2485 46.0083 28.6998 45.5332 29.0077C44.9663 29.2808 44.2892 28.9768 43.8208 28.6743C43.5681 28.5453 43.3512 28.3558 43.1894 28.1228C43.0276 27.8898 42.9259 27.6204 42.8932 27.3386C42.898 26.8376 43.0199 26.3447 43.2493 25.8993L43.3086 25.7653L43.1957 25.6721C42.7458 25.3212 42.2593 25.02 41.7446 24.7739L41.6039 24.7022L41.5055 24.8254C41.2923 25.1434 40.9975 25.3982 40.6521 25.5633C40.4603 25.6176 40.2582 25.6246 40.063 25.5839C39.8679 25.5431 39.6854 25.4558 39.5313 25.3294C39.2425 25.1365 39.0071 24.8738 38.847 24.5657L38.7032 24.2534L38.4332 24.6538C37.4166 26.0182 36.5997 27.5205 36.0071 29.1154L36.0024 29.2561L36.2565 29.5184L36.7156 28.767C37.1011 28.1358 37.4886 27.5035 37.8741 26.8753C37.9065 26.8185 37.9537 26.7716 38.0107 26.7395C38.0677 26.7075 38.1323 26.6916 38.1977 26.6934L38.2904 26.6975L38.3512 26.628C38.3743 26.5957 38.4038 26.5685 38.4379 26.5483C38.4721 26.528 38.51 26.515 38.5494 26.5102C38.5888 26.5053 38.6287 26.5087 38.6668 26.5201C38.7048 26.5315 38.74 26.5507 38.7702 26.5764C39.3846 26.9919 40.0203 27.375 40.6748 27.724C41.9873 28.4511 43.2266 29.1375 44.114 30.3398C44.1574 30.3862 44.1827 30.4467 44.1854 30.5102C44.188 30.5738 44.1678 30.6362 44.1284 30.6861L44.0944 30.7324V30.7902C44.0904 30.8492 44.0761 30.9071 44.0522 30.9612L43.9702 31.1282C43.4977 32.0985 43.0097 33.1019 42.4336 34.0371L42.3305 34.2062L42.5026 34.3056C42.6979 34.4185 42.8845 34.5458 43.0695 34.6767L43.2828 34.8261L43.3642 34.5782C43.7026 33.7574 44.198 33.0105 44.8225 32.3794L45.0653 32.096C46.0817 30.8497 46.839 29.4131 47.293 27.8704L47.3723 27.6328L47.1219 27.6163C47.0101 27.6055 46.9029 27.5983 46.788 27.5834Z" fill="#964A26"/>
<path d="M48.3763 22.3968L48.1903 22.1634L48.0537 22.4293C47.7445 23.0852 47.3614 23.7037 46.9118 24.2726C46.886 24.3073 46.8529 24.336 46.8149 24.3568C46.7769 24.3775 46.7349 24.3897 46.6917 24.3926L46.6402 24.4019C46.5785 24.4231 46.5119 24.4258 46.4486 24.4097C46.3854 24.3936 46.3282 24.3593 46.2841 24.3112C45.9727 23.9772 45.6041 23.7015 45.1958 23.497C45.1425 23.4655 45.0988 23.42 45.0693 23.3656C45.0398 23.3111 45.0256 23.2497 45.0283 23.1878V23.1363L45.0015 23.0925C44.9698 23.0402 44.9546 22.9796 44.9579 22.9186C44.9612 22.8575 44.9829 22.7989 45.0201 22.7503C45.2628 22.3812 45.4714 21.9907 45.6431 21.5837L45.7152 21.4162L45.5524 21.3343C45.5187 21.3182 45.4872 21.2979 45.4586 21.274C45.3327 21.164 45.2137 21.0463 45.1025 20.9215C44.867 20.6231 44.5608 20.3882 44.2115 20.2382C44.1566 20.221 44.1064 20.1911 44.0651 20.1509C44.0239 20.1107 43.9926 20.0613 43.974 20.0068L43.8549 19.6744L43.6395 19.9543C43.2889 20.4049 42.9126 20.8351 42.5125 21.2425C42.4751 21.2845 42.4278 21.3163 42.3748 21.3351C42.3219 21.3539 42.265 21.3591 42.2095 21.3502L42.1833 21.3456L42.1565 21.3482C42.1056 21.3525 42.0544 21.3455 42.0065 21.3277C41.9587 21.3098 41.9154 21.2817 41.8797 21.2451L41.8009 21.1709L41.6978 21.1992C41.6517 21.2109 41.6038 21.2132 41.5568 21.2061C41.5098 21.1989 41.4647 21.1824 41.4242 21.1575C41.3387 21.106 41.2562 21.0627 41.1774 21.0194C40.7347 20.7793 40.5327 20.6695 40.6049 20.1794C40.6095 20.1459 40.6219 20.065 40.6384 19.9625C40.7929 18.9834 40.7966 18.9638 40.6615 18.8803C40.627 18.8602 40.5935 18.836 40.5585 18.8118L40.3766 18.6835L40.2735 18.8824C40.0609 19.2893 39.8815 19.7127 39.7371 20.1485L39.6603 20.3737C39.4542 20.9627 39.145 21.8522 39.3264 22.4174L39.3568 22.5118L39.4516 22.5416C39.5357 22.5667 39.6158 22.6034 39.6897 22.6509C39.7548 22.6917 39.8074 22.7497 39.8415 22.8186C39.8756 22.8875 39.8899 22.9644 39.8829 23.041L39.8788 23.0734L39.8855 23.1049C39.9036 23.1936 39.8868 23.2859 39.8386 23.3625L39.7788 23.4522C39.619 23.6412 39.522 23.8754 39.5016 24.1221C39.5181 24.3762 39.7804 24.5931 39.9978 24.7297L40.0442 24.757C40.118 24.8222 40.2145 24.8558 40.3129 24.8504C40.4113 24.845 40.5036 24.8011 40.5698 24.7281C40.7423 24.5546 40.9038 24.3705 41.0532 24.1767L41.1681 24.035C41.19 24.011 41.2169 23.992 41.2469 23.9794L41.2882 23.951C41.3451 23.8978 41.4178 23.8645 41.4952 23.8561C41.5727 23.8476 41.6508 23.8645 41.7179 23.9041L42.0627 24.085C42.7456 24.3989 43.3804 24.8086 43.9477 25.3017C43.9893 25.3384 44.0213 25.3849 44.0406 25.4369C44.0599 25.489 44.0661 25.545 44.0585 25.6L44.0518 25.6454L44.0662 25.6887C44.0976 25.7886 44.0884 25.8969 44.0405 25.9901C43.7179 26.694 43.3164 27.5701 44.3496 28.0957C44.3821 28.1127 44.4171 28.1328 44.4527 28.1539C44.62 28.2648 44.812 28.3326 45.0118 28.3513C45.0806 28.3522 45.1487 28.3377 45.2112 28.3088C45.2736 28.2799 45.3287 28.2374 45.3725 28.1843C45.588 27.9263 45.7687 27.6411 45.91 27.3361C45.9507 27.2573 45.9909 27.1815 46.0321 27.1032L46.0543 27.0362C46.0543 26.9957 46.0634 26.9558 46.081 26.9193C46.0985 26.8828 46.1241 26.8507 46.1557 26.8254C46.1873 26.8002 46.2242 26.7823 46.2636 26.7732C46.3031 26.7641 46.3441 26.764 46.3836 26.7729L46.6536 26.81C47.3292 26.9063 47.7734 26.9708 48.1995 26.1272C48.7106 25.1805 49.0885 24.1678 49.3224 23.1178L49.3642 22.8993L49.1426 22.8879C48.9873 22.8652 48.8386 22.8097 48.7065 22.725C48.5744 22.6403 48.4618 22.5284 48.3763 22.3968Z" fill="#964A26"/>
<path d="M7.55598 54.9327L7.47095 54.5931L7.22875 54.8462C6.68716 55.413 5.5746 54.8559 4.78513 54.3875L3.9292 53.8805L4.53315 54.671C5.70788 56.1571 7.13425 57.4256 8.74738 58.4188L9.58271 58.9182L9.00143 58.1375C8.31386 57.1745 7.8227 56.0855 7.55598 54.9327Z" fill="#964A26"/>
<path d="M34.4744 43.7117C34.1898 43.364 33.811 43.1057 33.3835 42.9676C33.1762 42.9562 32.9693 42.9974 32.7823 43.0875C32.5952 43.1776 32.434 43.3137 32.3137 43.4829L32.2622 43.538V43.6122C32.2641 43.6603 32.258 43.7084 32.2441 43.7545C32.0233 44.3786 31.7261 44.9729 31.3593 45.524L31.146 45.8775L31.3428 45.9677C31.6095 46.0972 31.9009 46.1675 32.1972 46.1739C32.428 46.1688 32.655 46.1147 32.8633 46.0152C33.0715 45.9157 33.2562 45.773 33.4051 45.5967C33.8086 45.1527 34.181 44.6815 34.5198 44.1863L34.7022 43.9328L34.4744 43.7117Z" fill="#964A26"/>
<path d="M51.2169 11.4483L50.9839 11.3035L50.9257 11.5715C50.6681 12.7526 50.5232 13.9337 50.3821 15.0756C50.1053 17.3126 49.8451 19.4248 48.8191 21.5031L48.7676 21.6113L48.8408 21.7067C48.8934 21.7891 48.965 21.8578 49.0497 21.907C49.1343 21.9561 49.2295 21.9842 49.3272 21.989C49.3477 21.9892 49.3682 21.988 49.3885 21.9854C49.843 21.9272 50.1615 21.2671 50.4439 20.5941L50.5068 20.4483C50.9312 19.52 51.2579 18.5501 51.4817 17.5543L51.5188 17.3785C51.9749 15.2018 52.4423 12.213 51.2169 11.4483Z" fill="#964A26"/>
<path d="M42.6583 35.2612C42.4425 35.1497 42.2519 34.9952 42.0981 34.8072L41.9147 34.5779L41.7766 34.8355C41.4641 35.4078 41.034 35.9075 40.5146 36.3016L40.4512 36.3557C40.4254 36.3794 40.3997 36.4072 40.3713 36.4366C40.343 36.466 40.3002 36.5118 40.293 36.518L40.2162 36.5438L40.174 36.6C39.6185 37.3296 39.1335 37.9588 38.1869 37.7455C37.5975 37.5385 37.0604 37.2052 36.6131 36.769C36.4797 36.6592 36.3514 36.5531 36.2287 36.4572C36.0422 36.3147 35.8568 36.1709 35.6727 36.0259C35.2244 35.676 34.7611 35.3148 34.2891 34.9803C34.2421 34.9487 34.2026 34.9073 34.1732 34.8589C34.1439 34.8105 34.1254 34.7563 34.119 34.7C34.1128 34.6368 34.1194 34.5729 34.1386 34.5124C34.1577 34.4518 34.1889 34.3957 34.2303 34.3475L34.2788 34.2517C34.473 33.9178 34.691 33.606 34.9399 33.2623L34.7853 33.1494L34.9817 33.2174L35.1002 33.0716L34.7204 32.7465C34.6921 32.7203 34.6671 32.6907 34.6462 32.6583L34.6127 32.6187C34.5508 32.5698 34.5107 32.4985 34.501 32.4203C34.4914 32.342 34.513 32.2631 34.5612 32.2007C34.9647 31.5891 35.3568 30.9707 35.7412 30.3523L35.8726 30.1415L35.6361 30.0663C35.5863 30.054 35.5412 30.0271 35.5068 29.989L35.229 29.6608L35.1105 29.9555C34.1829 32.2574 32.5617 34.2063 30.9808 36.0053L30.8262 36.1836L31.0323 36.3006C31.1633 36.3754 31.2866 36.4631 31.4002 36.5623L31.51 36.6582L31.6321 36.5794C31.9663 36.3728 32.2773 36.131 32.5597 35.8579C32.6202 35.7971 32.6993 35.7583 32.7844 35.7476L32.8483 35.7301C32.9002 35.7058 32.9574 35.6945 33.0147 35.6974C33.072 35.7003 33.1278 35.7172 33.177 35.7466C33.581 35.9754 33.9747 36.2197 34.3669 36.4634C34.4135 36.4893 34.4536 36.5256 34.484 36.5695C34.5144 36.6134 34.5343 36.6636 34.5421 36.7164L34.5488 36.768L34.5802 36.8087C34.6317 36.8872 34.6551 36.9809 34.6467 37.0744C34.6382 37.1679 34.5985 37.2559 34.5339 37.324C34.2226 37.7266 33.9339 38.1462 33.6692 38.5808L33.5692 38.7354L33.7238 38.8385C34.0783 39.0817 34.4411 39.3203 34.8028 39.5517L34.9636 39.6547L35.0667 39.496C35.396 38.9626 35.8475 38.5152 36.3838 38.1907C36.4465 38.1549 36.5178 38.137 36.59 38.1392C36.6702 38.1286 36.7517 38.1469 36.8198 38.1907C36.9342 38.2577 37.0501 38.3227 37.1656 38.3876C37.5934 38.5983 37.9863 38.8734 38.3307 39.2033C38.3718 39.2432 38.4026 39.2924 38.4206 39.3468C38.4385 39.4012 38.443 39.4591 38.4337 39.5156C38.4206 39.5827 38.3926 39.646 38.3519 39.701C38.3112 39.7559 38.2587 39.801 38.1983 39.833L38.1086 39.8799L38.0967 39.983C38.0456 40.3121 37.9578 40.6345 37.835 40.9441C37.8015 41.0036 37.7803 41.0692 37.7728 41.137C37.7653 41.2049 37.7715 41.2735 37.7912 41.3389C37.8108 41.4043 37.8434 41.465 37.8871 41.5175C37.9307 41.57 37.9845 41.6132 38.0452 41.6444L38.1684 41.7201L38.2761 41.6232C40.1183 39.9665 41.5004 37.9599 42.9896 35.6971L43.0927 35.5425L42.9438 35.4338C42.8518 35.3712 42.7565 35.3135 42.6583 35.2612Z" fill="#964A26"/>
<path d="M36.9821 41.1816C37.0174 40.9691 37.0742 40.7607 37.1517 40.5596C37.2915 40.2222 37.3584 39.8591 37.348 39.494V39.3909L37.2594 39.3337C37.0831 39.2198 36.9023 39.1178 36.7188 39.0163L36.609 38.9555L36.5091 39.0307C36.0533 39.4051 35.6822 39.872 35.4202 40.4004C35.3993 40.4432 35.3694 40.4811 35.3326 40.5114C35.2958 40.5417 35.2529 40.5638 35.2069 40.5761C35.144 40.5849 35.0801 40.5812 35.0187 40.5651C34.9573 40.549 34.8997 40.5208 34.8493 40.4823C34.8182 40.4706 34.7877 40.4572 34.758 40.4421C34.1201 40.0464 33.4966 39.6176 32.8957 39.2013C32.8333 39.1603 32.7841 39.1021 32.7541 39.0338C32.724 38.9655 32.7143 38.89 32.7262 38.8163L32.7293 38.7906L32.7262 38.7653C32.7162 38.683 32.7381 38.6 32.7875 38.5334L33.0271 38.1675C33.242 37.8377 33.4574 37.5074 33.6883 37.1884L33.8099 37.0215L33.6357 36.9112C33.527 36.8432 33.4172 36.7777 33.3079 36.7128L32.9792 36.5144L32.8725 36.6067C32.5165 36.9083 32.1353 37.179 31.7331 37.4157C31.6839 37.4496 31.6264 37.4694 31.5667 37.473C31.5071 37.4767 31.4476 37.464 31.3946 37.4363L31.3178 37.4152C31.274 37.4149 31.2307 37.4056 31.1907 37.3878C31.1506 37.3701 31.1146 37.3443 31.0849 37.3121C30.9233 37.1379 30.7312 36.9946 30.518 36.8896L30.3495 36.8035L30.2599 36.9705C29.5783 38.3429 28.675 39.5935 27.5864 40.672L27.4004 40.842L27.6132 40.9776C27.6381 40.9936 27.6606 41.013 27.6802 41.0353L27.8121 41.1832L28.1064 40.908C28.4555 40.6015 28.7806 40.2686 29.0788 39.9124C29.097 39.8819 29.1213 39.8555 29.1502 39.8348C29.1791 39.8142 29.2119 39.7997 29.2466 39.7924C29.2814 39.785 29.3173 39.7849 29.3521 39.7921C29.3868 39.7993 29.4198 39.8136 29.4488 39.8341L29.5348 39.8856L29.626 39.8449C29.7026 39.8147 29.7868 39.8102 29.8662 39.832C30.3247 39.9506 30.746 40.1827 31.0911 40.5071C31.1212 40.5381 31.1486 40.5718 31.173 40.6076C31.2247 40.6608 31.256 40.7304 31.2615 40.8044C31.2669 40.8783 31.2462 40.9519 31.2029 41.0121C31.1235 41.1383 31.0411 41.263 30.9586 41.3877C30.7321 41.7135 30.5301 42.0556 30.3542 42.4112L30.2841 42.5627L30.4232 42.6544C30.5833 42.7609 30.7489 42.8588 30.9195 42.9476L31.5095 43.2614L31.6126 43.1465C32.0624 42.6394 32.5216 42.1772 33.1209 42.187C33.7066 42.2341 34.2532 42.4999 34.6519 42.9316C34.8492 43.1022 35.0557 43.262 35.2703 43.4103C35.3036 43.4335 35.3331 43.4618 35.3574 43.4943L35.431 43.5541C35.48 43.5742 35.5241 43.6046 35.5602 43.6433C35.5963 43.682 35.6236 43.728 35.6403 43.7783C35.649 43.8217 35.6478 43.8665 35.6365 43.9093C35.6253 43.952 35.6043 43.9917 35.5753 44.0251C35.4398 44.2106 35.3027 44.4121 35.1631 44.6203C35.0234 44.8285 34.8745 45.0454 34.7204 45.2572L34.6132 45.4051L34.7549 45.5206C34.8104 45.5655 34.8519 45.6254 34.8745 45.6932L34.9724 45.9859L35.193 45.7695C36.1928 44.8263 37.0596 43.7514 37.7695 42.5745L37.8628 42.4142L37.7082 42.3143C37.1604 41.97 36.9254 41.599 36.9821 41.1816Z" fill="#964A26"/>
<path d="M34.1982 46.3615L34.1384 46.0085L33.8761 46.2518C33.6847 46.4359 33.4658 46.5893 33.2273 46.7063C32.3549 47.1299 31.4969 47.0155 30.4446 46.3414C30.3562 46.2893 30.2917 46.2046 30.265 46.1055C30.2383 46.0063 30.2515 45.9007 30.3019 45.8112C30.424 45.5932 30.5565 45.3809 30.6884 45.1686C30.8904 44.856 31.0767 44.5336 31.2465 44.2024L31.3258 44.0416L31.1712 43.9504C31.0367 43.871 30.8832 43.7958 30.7239 43.7133C30.497 43.6046 30.2769 43.4821 30.0648 43.3464L29.9329 43.2578L29.8201 43.3696C29.2641 43.922 28.6611 44.4518 28.0196 44.4193C27.3543 44.376 26.6457 43.9401 26.6112 43.2856C26.6132 42.7574 26.8175 42.2501 27.1822 41.868L27.3249 41.6923L27.1291 41.5789C27.0601 41.5387 26.9946 41.4944 26.9287 41.4506L26.7875 41.3563L26.6756 41.4851C26.3036 41.9139 25.9356 42.3462 25.5677 42.7786C24.4778 44.0586 23.3519 45.3819 22.145 46.5919C21.6997 46.9948 21.2145 47.3514 20.697 47.656C19.8513 48.1991 18.9758 48.7608 18.5301 49.5364L18.4595 49.659L18.5553 49.7621C18.6176 49.831 18.6565 49.9177 18.6666 50.01L18.6775 50.1053L18.7599 50.1568C19.1067 50.3629 19.4458 50.5835 19.7709 50.7974C19.8101 50.8272 19.8471 50.8597 19.8817 50.8947C19.9339 50.9414 19.9753 50.9988 20.003 51.0631C20.0306 51.1273 20.044 51.1969 20.042 51.2668C20.04 51.3286 20.0235 51.3891 19.9938 51.4434C19.9641 51.4976 19.922 51.5441 19.8709 51.5791C19.6699 51.7229 19.4587 51.8852 19.2402 52.0516L19.0078 52.2304L19.2654 52.3737C19.6943 52.634 20.0949 52.9381 20.461 53.2812C20.5671 53.3739 20.6733 53.4667 20.7804 53.5574L20.8835 53.646L21.002 53.5764C21.3828 53.357 21.7371 53.0945 22.0579 52.7942C22.1034 52.749 22.1596 52.716 22.2213 52.6983L22.2785 52.6824L22.3166 52.6386C22.3579 52.5885 22.4139 52.5527 22.4767 52.5362C22.5395 52.5197 22.6059 52.5235 22.6665 52.5468C23.2308 52.7409 23.7228 53.1017 24.0774 53.5816L24.129 53.6455L24.2114 53.6522C24.3028 53.6658 24.3877 53.7072 24.4547 53.7708C24.5216 53.8345 24.5673 53.9172 24.5855 54.0078C24.601 54.0765 24.5912 54.1485 24.558 54.2107C24.5248 54.2728 24.4704 54.321 24.4046 54.3463C24.1417 54.4825 23.8888 54.6375 23.6482 54.8101L23.5054 54.9132L23.5905 55.0678C23.7128 55.2889 23.8239 55.5161 23.9233 55.7485L23.9878 55.8959L24.1424 55.8593C26.1165 55.4022 27.5656 53.7264 28.8451 52.2474C29.0481 52.0125 29.2481 51.7837 29.446 51.56C30.7641 50.0903 32.2761 48.5815 34.2028 46.8114L34.2925 46.7284L34.2569 46.612C34.2319 46.5299 34.2123 46.4462 34.1982 46.3615Z" fill="#964A26"/>
<path d="M7.10047 32.1225C7.18862 32.2064 7.24659 32.3171 7.26537 32.4374C7.32465 32.5579 7.33553 32.6966 7.29578 32.8249C7.10047 33.5618 6.87786 34.2945 6.66658 35.0273C7.06595 35.2231 7.43955 35.4648 7.83325 35.6838C8.2017 35.2 8.50883 34.6707 8.8345 34.1564C8.91168 34.0337 9.03246 33.9448 9.17255 33.9075C9.23313 33.8641 9.30261 33.8347 9.37594 33.8215C9.44928 33.8082 9.52465 33.8114 9.5966 33.8308C9.66856 33.8503 9.73529 33.8854 9.79198 33.9338C9.84867 33.9822 9.8939 34.0426 9.92439 34.1106C10.128 34.4779 10.4081 34.7972 10.7458 35.0469C12.7602 30.9486 15.7747 27.4259 18.0174 23.473C17.4336 23.2429 16.9053 22.8916 16.4673 22.4423C16.3761 22.4137 16.2941 22.3615 16.2294 22.2911C16.1647 22.2208 16.1197 22.1346 16.0988 22.0413C16.0779 21.948 16.0819 21.8509 16.1104 21.7597C16.1389 21.6684 16.1909 21.5863 16.2612 21.5215C16.7431 21.0566 17.1524 20.5219 17.4753 19.9353C17.4326 19.9121 17.3947 19.8808 17.364 19.8431C17.0023 19.2565 16.4639 18.7997 15.8263 18.5383C15.3429 19.1567 14.8596 19.7751 14.3875 20.3934C14.3008 20.5073 14.1776 20.5878 14.0385 20.6214C13.8994 20.655 13.7529 20.6396 13.6238 20.5779C13.5634 20.5678 13.5061 20.5444 13.4558 20.5094C12.8802 20.0796 12.3046 19.6498 11.6945 19.2726C11.6274 19.3624 11.5344 19.4293 11.428 19.4643C11.3216 19.4993 11.2071 19.5008 11.0998 19.4685C11.0421 19.4453 10.9921 19.4169 10.9385 19.3953C8.18624 22.514 7.23085 26.7313 4.85938 30.104C4.90513 30.1739 4.93989 30.2503 4.96244 30.3308C5.76531 30.8113 6.48695 31.416 7.10047 32.1225ZM10.8185 22.7515C10.9911 22.4258 11.1601 21.9306 11.4518 21.3205L11.5595 21.0943L11.8048 21.1783C12.0109 21.2514 12.2268 21.3205 12.4417 21.4086C12.6478 21.5163 12.8756 21.6147 13.0786 21.7467C13.7889 22.2035 14.4506 22.7319 15.0533 23.3235C15.514 23.7646 15.7943 24.0372 15.7402 24.1176C15.6985 24.1908 15.3105 24.0372 14.7735 23.6842C14.2283 23.339 13.5367 22.7866 12.7437 22.3027C12.5556 22.18 12.3598 22.0919 12.1768 21.9883C12.0619 21.9368 11.9547 21.892 11.8434 21.8461C11.6419 22.243 11.3987 22.6174 11.1179 22.9628C10.8226 23.2813 10.6077 23.358 10.5613 23.3199C10.5041 23.2735 10.6613 23.0664 10.8185 22.7515ZM6.21362 29.7052C6.22424 29.6608 6.24389 29.619 6.27133 29.5825C6.28045 29.5711 6.29082 29.5607 6.30225 29.5516L6.33266 29.5248V29.5207C6.3589 29.4618 6.38195 29.4016 6.40171 29.3403C6.49573 29.0928 6.62503 28.8603 6.78562 28.6498C7.05843 28.3134 7.31087 27.961 7.54158 27.5944C7.96002 26.8807 8.35114 26.2629 8.65827 25.7336C9.25294 24.6664 9.63736 24.0563 9.69817 24.0872C9.75898 24.1181 9.49462 24.7896 8.99219 25.9021C8.73453 26.4546 8.38206 27.107 7.99042 27.8516C7.77106 28.2415 7.52501 28.6159 7.25404 28.9719C7.13332 29.1436 7.03545 29.3304 6.96288 29.5274C6.93557 29.5789 6.93197 29.6696 6.87425 29.785L6.95103 29.9041L6.96288 29.9231C7.09612 30.1012 7.26788 30.2469 7.46532 30.3493C7.68793 30.4797 7.94147 30.6023 8.20221 30.7255C8.48085 30.8524 8.75231 30.9945 9.01538 31.1511C9.26531 31.3238 9.51833 31.4964 9.77186 31.6731C9.86359 31.7381 9.95943 31.7999 10.0517 31.8726L10.3202 32.1029C10.416 32.1797 10.5046 32.2601 10.5969 32.3369C11.2681 31.5201 11.8518 30.6353 12.3386 29.6969C12.4731 29.463 12.6035 29.2331 12.7303 29.01L12.8261 28.841L12.9261 28.6725C12.991 28.5694 13.0565 28.4663 13.1214 28.3633C13.3749 27.9567 13.613 27.5805 13.8279 27.2389C14.6947 25.8728 15.2589 25.0668 15.328 25.1091C15.397 25.1513 14.9636 26.0366 14.1943 27.4615C13.9985 27.8145 13.7877 28.2061 13.5574 28.624C13.496 28.7271 13.4383 28.8353 13.377 28.9425L13.2925 29.1002L13.2018 29.2697C13.0864 29.4965 12.9637 29.7304 12.8411 29.9685C12.3242 31.0692 11.6564 32.0925 10.8571 33.0088L10.6536 33.2278L10.4005 33.013C10.2393 32.8785 10.078 32.744 9.91666 32.6059L9.67498 32.3997C9.58686 32.3307 9.49101 32.2694 9.39877 32.2039C9.15348 32.0313 8.90768 31.8628 8.6696 31.6938C8.42694 31.5509 8.17721 31.4203 7.92137 31.3026C7.66062 31.1717 7.39575 31.0414 7.13861 30.8842C6.84594 30.725 6.59993 30.4921 6.4249 30.2086L6.34039 30.0824L6.28886 30.0056C6.27236 29.9842 6.25836 29.9611 6.24711 29.9365L6.23526 29.917C6.23526 29.917 6.23166 29.9092 6.2198 29.8788C6.21251 29.8537 6.2075 29.828 6.20486 29.802C6.20288 29.7695 6.20583 29.7368 6.21362 29.7052Z" fill="#964A26"/>
<path d="M3.82966 36.645L3.93787 36.7079L4.04094 36.6352C4.4505 36.3004 4.79168 35.8898 5.0458 35.4258L5.20606 35.1769C5.24081 35.1248 5.28698 35.0812 5.34107 35.0496L5.3926 35.0089C5.44353 34.9481 5.51506 34.9081 5.59358 34.8966L5.71725 34.8785L5.97955 33.9659C6.09034 33.5825 6.20113 33.1996 6.3078 32.8152L6.33769 32.7075L6.20474 32.5725C5.80743 32.1407 5.36868 31.7489 4.89481 31.4027L4.74692 31.3023L4.63509 31.4419C3.96519 32.2783 2.8315 33.936 2.72483 35.6376L2.7207 35.7123L2.76708 35.7711C3.06489 36.1249 3.42503 36.4211 3.82966 36.645Z" fill="#964A26"/>
<path d="M6.65608 54.3512L6.6365 54.1245C6.58136 53.4948 6.58806 52.847 6.59476 52.2204L6.5994 51.6422L6.49066 51.5907C6.07841 51.3897 5.644 51.1676 5.22557 50.9089L5.08334 50.8213L4.97564 50.9491C4.93428 50.9953 4.88228 51.0307 4.82414 51.0522L4.75509 51.1011C4.70008 51.1675 4.62338 51.2124 4.53852 51.2278C4.45367 51.2431 4.36611 51.228 4.29131 51.1851C4.14959 51.1063 4.00943 51.0228 3.86926 50.9398C3.42246 50.6429 2.93318 50.4155 2.41814 50.2653C2.3344 50.2471 2.26047 50.1982 2.21082 50.1284C2.16117 50.0585 2.13936 49.9727 2.14966 49.8876C2.14043 49.8476 2.13661 49.8065 2.13833 49.7654C2.17903 49.2445 2.18419 48.7224 2.18419 48.2808V48.1597L2.07597 48.1082C1.63744 47.8943 1.20818 47.6382 0.792326 47.3914L0.519725 47.2291L0.453765 47.4759C0.0348145 49.0445 1.0572 50.7873 1.38133 51.2841L1.44677 51.3459C1.75596 51.5247 2.27128 51.8751 2.86543 52.2802C4.53711 53.42 5.86147 54.2951 6.43295 54.3378L6.65608 54.3512Z" fill="#964A26"/>
<path d="M2.626 47.3224C2.73271 47.366 2.82831 47.4329 2.90581 47.5182C2.98179 47.567 3.04372 47.6348 3.08548 47.7149C3.12723 47.795 3.14736 47.8845 3.14389 47.9748C3.14389 48.4777 3.13616 48.9765 3.10936 49.479C3.50173 49.6395 3.8808 49.8308 4.24305 50.051C4.25078 50.0391 4.25491 50.0278 4.26264 50.0164C4.27036 50.0051 4.26624 50.001 4.26985 49.9969C4.27141 49.9955 4.2726 49.9937 4.27332 49.9917C4.27404 49.9897 4.27426 49.9876 4.27397 49.9855C4.27758 49.9819 4.2817 49.9819 4.2817 49.9778C4.32497 49.8962 4.38556 49.8251 4.45925 49.7694C4.53293 49.7137 4.61791 49.6748 4.70822 49.6555C4.79853 49.6361 4.89198 49.6368 4.98201 49.6574C5.07204 49.678 5.15647 49.7181 5.22936 49.7748C5.55601 50.0284 5.90835 50.247 6.2806 50.4272C6.46737 48.7357 6.76744 47.0587 7.1788 45.4075C7.60496 43.9455 8.34547 42.614 8.7907 41.1675C8.76152 41.1317 8.73821 41.0915 8.72164 41.0484C8.21097 40.5996 7.66989 40.1812 7.14788 39.7478C7.08398 39.6929 7.03623 39.6216 7.00977 39.5417C6.94057 39.4918 6.88427 39.4261 6.84555 39.3501C6.80683 39.2741 6.78681 39.19 6.78716 39.1047C6.7921 38.2815 6.99369 37.4714 7.37513 36.742C6.89136 36.4326 6.38471 36.1606 5.85959 35.9283C5.53565 36.4667 5.12809 36.9501 4.65221 37.3603C4.62797 37.4445 4.58549 37.5223 4.52779 37.5882C4.4701 37.6541 4.3986 37.7065 4.31838 37.7417C4.23816 37.7768 4.15119 37.7939 4.06362 37.7917C3.97606 37.7895 3.89006 37.768 3.81174 37.7288C3.3266 37.4851 2.87519 37.1793 2.46883 36.8193C1.82093 38.1713 1.2901 39.5764 0.882178 41.0191C0.594633 41.975 -0.564308 45.1442 0.337491 46.165C0.461657 46.1465 0.588447 46.1695 0.698211 46.2304C1.32136 46.6277 1.96483 46.9922 2.626 47.3224ZM3.60819 38.8573C4.08513 39.0138 4.52522 39.2657 4.90162 39.5978C5.32727 39.9549 5.66893 40.2961 5.91834 40.5419C6.16775 40.7877 6.31771 40.9541 6.27906 41.0371C6.24041 41.1201 5.99873 41.0794 5.65347 40.9139C5.23608 40.6859 4.8456 40.4118 4.48937 40.0967C4.07712 39.7591 3.71022 39.4633 3.45875 39.2907C3.39727 39.24 3.33039 39.1963 3.25932 39.1603C3.2023 39.1314 3.14828 39.0968 3.09803 39.0573C3.01351 38.9923 2.97126 38.9382 2.9826 38.8924C3.00991 38.8192 3.23974 38.7692 3.60819 38.8573ZM0.856928 44.9355C0.898517 44.6628 0.960003 44.3936 1.04089 44.13C1.09861 43.8806 1.15632 43.6425 1.20992 43.4086C1.31298 42.9365 1.43614 42.5027 1.55157 42.1074C2.01535 40.5074 2.53376 39.6339 2.5992 39.6592C2.70227 39.6937 2.3266 40.6532 1.99268 42.2187C1.91229 42.6181 1.81644 43.0479 1.73502 43.5199C1.69277 43.7538 1.6469 43.9991 1.59692 44.2485C1.53245 44.4898 1.48254 44.7346 1.44748 44.9818C1.44748 45.0334 1.45108 45.0813 1.45108 45.1313C1.46654 45.1699 1.46294 45.2194 1.48561 45.2503C1.49334 45.2694 1.50468 45.2848 1.51241 45.3018L1.51653 45.3137C1.51696 45.3166 1.51821 45.3193 1.52014 45.3214L1.55106 45.3632L1.67782 45.5286C1.76594 45.6203 1.84272 45.678 1.93548 45.7625C2.04318 45.8393 2.15036 45.9171 2.26579 46.0006C2.7337 46.3098 3.26705 46.5721 3.82359 46.9137C4.17696 47.1597 4.51053 47.433 4.82124 47.731C5.04054 46.1976 5.44527 44.6965 6.02655 43.2607C6.52899 42.0595 6.98968 41.4148 7.04688 41.4494C7.12366 41.4916 6.79746 42.1899 6.41407 43.4024C5.8999 45.0126 5.55264 46.6713 5.37777 48.3525L5.32624 48.8786L4.88874 48.5906C4.33272 48.2262 3.96118 47.7661 3.47678 47.4626C2.97023 47.1534 2.41369 46.8715 1.91126 46.5262C1.78449 46.4376 1.65772 46.3381 1.53869 46.2459C1.40816 46.1367 1.28635 46.0174 1.17436 45.8893L1.05172 45.7162L1.0208 45.6744L0.994001 45.6358L0.978542 45.6012L0.917219 45.4667C0.884213 45.3777 0.862403 45.2849 0.85229 45.1905C0.847951 45.1055 0.8495 45.0203 0.856928 44.9355Z" fill="#964A26"/>
</svg>
