<svg width="81" height="67" viewBox="0 0 81 67" fill="none" xmlns="http://www.w3.org/2000/svg">
<path d="M18.3915 4.80075L23.8555 14.2646L21.7853 15.4598L16.3213 5.99595L18.3915 4.80075Z" fill="#964A26"/>
<path fill-rule="evenodd" clip-rule="evenodd" d="M30.5392 23.2638C26.5585 27.2823 22.47 31.3544 19.041 34.7834L40.4994 66.9708L61.9584 34.7834C58.2009 30.8765 54.1649 27.2066 50.4602 23.2638H30.5392Z" fill="#964A26"/>
<path d="M41.495 0V10.9279H39.1045V0H41.495Z" fill="#964A26"/>
<path d="M64.6787 5.99653L59.2148 15.4604L57.1445 14.2651L62.6085 4.80127L64.6787 5.99653Z" fill="#964A26"/>
<path d="M9.46388 28.7903L0 23.3263L1.19524 21.2561L10.6591 26.7201L9.46388 28.7903Z" fill="#964A26"/>
<path d="M80.9999 23.3263L71.5361 28.7903L70.3408 26.7201L79.8047 21.2561L80.9999 23.3263Z" fill="#964A26"/>
</svg>
