<svg width="72" height="67" viewBox="0 0 72 67" fill="none" xmlns="http://www.w3.org/2000/svg">
<path d="M44.5525 37.241L33.6417 35.7256C28.944 35.0436 25.2313 31.3309 24.5493 26.6332L23.0339 15.7224C22.9582 15.1163 22.0489 15.1163 21.9732 15.7224L20.4578 26.6332C19.7759 31.3309 16.0631 35.0436 11.3654 35.7256L0.454617 37.241C-0.151539 37.3167 -0.151539 38.226 0.454617 38.3017L11.3654 39.8171C16.0631 40.499 19.7759 44.2118 20.4578 48.9095L21.9732 59.8203C22.0489 60.4264 22.9582 60.4264 23.0339 59.8203L24.5493 48.9095C25.2313 44.2118 28.944 40.499 33.6417 39.8171L44.5525 38.3017C45.1586 38.226 45.1586 37.3167 44.5525 37.241Z" fill="#964A26"/>
<path d="M31.9748 15.1918L39.0971 16.1768C42.2036 16.6314 44.6283 19.056 45.0829 22.1626L46.0679 29.2849C46.1437 29.7395 46.7498 29.7395 46.8256 29.2849L47.8106 22.1626C48.2652 19.056 50.6898 16.6314 53.7964 16.1768L60.9187 15.1918C61.3733 15.116 61.3733 14.5099 60.9187 14.4341L53.7964 13.4491C50.6898 12.9945 48.2652 10.5698 47.8106 7.4633L46.8256 0.340963C46.7498 -0.113654 46.1437 -0.113654 46.0679 0.340963L45.0829 7.53907C44.6283 10.6456 42.2036 13.0702 39.0971 13.5249L31.9748 14.5099C31.5201 14.5099 31.5201 15.116 31.9748 15.1918Z" fill="#964A26"/>
<path d="M71.6019 48.8335L63.1158 47.6212C59.403 47.0908 56.5238 44.2116 55.9934 40.4989L54.7811 32.0127C54.7053 31.4823 54.0234 31.4823 53.9476 32.0127L52.7353 40.4989C52.2049 44.2116 49.3257 47.0908 45.613 47.6212L37.1268 48.8335C36.5964 48.9093 36.5964 49.5912 37.1268 49.667L45.613 50.8793C49.3257 51.4097 52.2049 54.289 52.7353 58.0017L53.9476 66.4878C54.0234 67.0182 54.7053 67.0182 54.7811 66.4878L55.9934 58.0017C56.5238 54.289 59.403 51.4097 63.1158 50.8793L71.6019 49.667C72.1323 49.5912 72.1323 48.9093 71.6019 48.8335Z" fill="#964A26"/>
</svg>
