<svg width="70" height="70" viewBox="0 0 70 70" fill="none" xmlns="http://www.w3.org/2000/svg">
<path d="M32.9771 61.9265V54.1928H34.7923H36.6076V61.9265V69.6603H34.7923H32.9771V61.9265ZM52.651 55.2604L47.1767 49.7857L47.508 49.5008C47.6904 49.3441 48.2574 48.7881 48.7682 48.2652L49.697 47.3146L55.1592 52.7768L60.6215 58.2391L59.3734 59.4871L58.1254 60.7352L52.651 55.2604ZM10.1916 59.3926L8.92557 58.1248L14.39 52.6661L19.8543 47.2073L20.4391 47.8767C20.7607 48.2448 21.3262 48.8172 21.6958 49.1485L22.3678 49.751L16.9128 55.2057L11.4577 60.6603L10.1916 59.3926ZM31.8794 45.2239C28.4868 42.5021 28.3046 42.3468 26.5158 40.6549C23.9892 38.2651 22.655 36.5414 22.1288 34.987C21.9703 34.5187 21.783 33.1208 21.783 32.4056C21.783 31.2675 22.1391 29.8808 22.7038 28.82C23.3766 27.556 24.5646 26.4178 25.9051 25.7531C27.1022 25.1594 27.9218 24.9598 29.1575 24.9611C30.3864 24.9623 30.9938 25.105 32.1644 25.6678C33.0686 26.1025 33.5983 26.4824 34.433 27.295L34.9436 27.792L35.4541 27.295C36.2888 26.4824 36.8185 26.1025 37.7227 25.6678C38.8934 25.105 39.5008 24.9623 40.7297 24.9611C41.9654 24.9598 42.7849 25.1594 43.982 25.7531C46.1284 26.8175 47.5647 28.7686 47.9877 31.1947C48.1331 32.0287 48.1349 32.7157 47.9944 33.7817C47.8691 34.731 47.7501 35.1253 47.3468 35.9268C46.5852 37.4407 44.5113 39.7367 41.5617 42.3316C40.9432 42.8758 35.0021 47.6503 34.9436 47.6503C34.9217 47.6503 33.5428 46.5584 31.8794 45.2239ZM0 34.9058V33.1283L7.73372 33.1284L15.4674 33.1284V34.9058V36.6832L7.73372 36.6832L0 36.6832V34.9058ZM54.1172 34.9058V33.1284L61.8887 33.1284L69.6602 33.1283V34.9058V36.6832L61.8887 36.6832L54.1172 36.6832V34.9058ZM14.3892 16.9985L8.92427 11.5333L10.1731 10.2864L11.4218 9.03937L16.8771 14.4948L22.3325 19.9502L21.1502 21.1289C20.4998 21.7772 19.9678 22.3428 19.9678 22.3857C19.9678 22.4286 19.9421 22.4637 19.9108 22.4637C19.8795 22.4637 17.3948 20.0044 14.3892 16.9985ZM49.2765 21.9999C48.8852 21.5339 48.1021 20.7581 47.4851 20.2255L47.1308 19.9196L52.6288 14.422L58.1269 8.92435L59.393 10.1921L60.659 11.4598L55.1568 16.9551L49.6547 22.4504L49.2765 21.9999ZM32.9771 7.77154V0H34.7923H36.6076V7.77154V15.5431H34.7923H32.9771V7.77154Z" fill="#964A26"/>
</svg>
