<svg width="67" height="71" viewBox="0 0 67 71" fill="none" xmlns="http://www.w3.org/2000/svg">
<path fill-rule="evenodd" clip-rule="evenodd" d="M31.5141 71C30.4981 71 30.4981 69.4564 31.5141 69.4564C38.3492 69.4564 42.4748 68.6537 44.2298 67.7583C44.6608 67.5422 44.8763 67.4187 44.8763 67.3724C44.8763 67.3416 44.6454 67.2644 44.199 67.1255C42.4132 66.5697 38.5185 66.5234 32.7303 67.6657C26.7111 68.8698 21.3232 68.5456 18.66 67.7583C17.5362 67.4187 16.7973 66.9557 16.551 66.3999C16.1815 65.6127 16.5664 64.8872 17.8287 64.3469C19.5374 63.6368 23.4938 63.0657 30.5289 63.0657C31.5449 63.0657 31.5449 64.6093 30.5289 64.6093C23.7247 64.6093 19.9531 65.1187 18.4137 65.767C18.152 65.8751 17.8903 65.6435 17.9364 65.7516C17.998 65.8905 18.3983 66.0603 19.091 66.261C21.5695 67.002 26.665 67.2798 32.4378 66.1375C38.4877 64.9335 42.6596 65.0261 44.6454 65.6281C46.8776 66.3228 47.0161 68.0362 44.9225 69.1013C42.9982 70.1047 38.6109 71 31.5141 71ZM22.0313 36.4532C21.0307 36.5458 20.8921 35.0176 21.8928 34.925C25.1717 34.6163 27.2807 38.3519 25.3103 41.0224H29.0511L29.2358 31.2357C29.2512 30.8806 29.4821 30.5873 29.8208 30.5102L29.8362 29.584C29.867 27.5464 31.5141 25.941 33.5462 25.941C35.5628 25.9564 37.1792 27.6081 37.1638 29.6457C37.1638 29.9545 37.1638 30.2632 37.1484 30.5719C37.4717 30.6645 37.718 30.9733 37.7026 31.3283L37.5179 41.0378H41.1509C38.5955 38.4136 39.5345 34.0605 42.8905 32.7021C43.8141 32.3317 44.8455 32.2236 45.8615 32.4397C46.8468 32.6558 46.5389 34.1532 45.5537 33.9525C42.4132 33.2887 40.0579 36.8082 41.8437 39.4633C42.4748 40.4204 43.4293 40.9143 44.5377 41.0378H44.8147C49.4484 41.0378 53.2046 37.2713 53.2046 32.625C53.2046 30.541 52.4657 28.6424 51.2187 27.1759C49.9718 25.694 48.2169 24.6597 46.231 24.3201C45.8923 24.2893 45.6152 24.0268 45.5537 23.6872C45.0149 20.6308 42.1515 18.5315 39.0727 18.9483C38.811 18.9791 38.5647 19.0254 38.3338 19.1026C37.9951 19.2107 37.6103 19.0563 37.4255 18.7321C34.7623 13.8079 28.0812 12.8045 24.1095 16.8026C22.6009 18.3154 21.6618 20.4147 21.6465 22.7302C25.572 22.9154 27.5116 27.639 24.8638 30.5565C23.5399 32.0075 21.4617 32.486 19.6452 31.7451C19.245 31.5907 19.0602 31.1276 19.2296 30.7417C19.3835 30.3404 19.8453 30.1551 20.2302 30.3249C22.9242 31.4209 25.5412 28.5343 24.1865 25.9564C23.5861 24.7987 22.293 24.1195 20.9999 24.2893C16.8742 24.845 13.7492 28.3954 13.7492 32.6404C13.7492 37.2868 17.5054 41.0533 22.1391 41.0533C24.7099 41.0533 25.3103 37.7962 23.2782 36.7311C22.9242 36.4995 22.4777 36.4069 22.0313 36.4532ZM32.7303 0.764105C32.7303 -0.254702 34.2697 -0.254702 34.2697 0.764105V5.76552C34.2697 6.78432 32.7303 6.78432 32.7303 5.76552V0.764105ZM65.8432 19.0409C66.7207 18.5315 67.4904 19.8744 66.613 20.3684L62.3026 22.8691C61.4251 23.3785 60.6554 22.051 61.5329 21.5416L65.8432 19.0409ZM51.7267 5.44135C52.2348 4.56147 53.5587 5.3333 53.0507 6.21318L50.5568 10.5354C50.0488 11.4153 48.7249 10.6434 49.2329 9.76356L51.7267 5.44135ZM0.387037 20.3684C-0.490433 19.859 0.279278 18.5315 1.15675 19.0409L5.46713 21.5416C6.3446 22.051 5.57489 23.3785 4.69742 22.8691L0.387037 20.3684ZM13.9339 6.21318C13.4259 5.3333 14.7652 4.57691 15.2579 5.44135L17.7517 9.76356C18.2597 10.6434 16.9204 11.3998 16.4278 10.5354L13.9339 6.21318ZM33.5462 27.4846C32.33 27.4846 31.391 28.4417 31.3756 29.5994L31.3602 30.4793L35.609 30.5256C35.6244 29.5994 35.7322 28.8585 35.024 28.1175C34.6546 27.7316 34.1312 27.4846 33.5462 27.4846ZM28.7432 57.3233L29.0357 42.566H22.1852C16.7049 42.566 12.256 38.1049 12.256 32.6095C12.256 27.8705 15.5811 23.8262 20.1532 22.8537C20.0916 17.2966 24.556 12.7737 30.0825 12.7737C33.5462 12.7737 36.7174 14.5797 38.5185 17.4664C42.3517 16.7408 46.0463 19.1335 46.9853 22.8691C51.4958 23.857 54.7748 27.886 54.7748 32.5941C54.7748 38.1049 50.3259 42.5506 44.8455 42.5506H37.5179L37.2254 57.3387C37.2408 57.4777 37.21 57.6166 37.133 57.7555L33.5462 64.1617C33.2537 64.6865 32.484 64.6865 32.1915 64.1462L28.8509 57.6783C28.774 57.5857 28.7278 57.4622 28.7432 57.3233Z" fill="#964A26"/>
</svg>
