<svg width="63" height="67" viewBox="0 0 63 67" fill="none" xmlns="http://www.w3.org/2000/svg">
<path d="M44.6106 62.5044C44.8983 63.0042 44.7268 63.6434 44.2271 63.934C44.0614 64.0299 43.8813 64.0735 43.7041 64.0735C43.3437 64.0735 42.9893 63.8846 42.7974 63.5505L40.8913 60.2467C40.6037 59.7469 40.7751 59.1077 41.2749 58.8171C41.7746 58.5295 42.4139 58.7009 42.7045 59.2007L44.6106 62.5044ZM47.4756 52.8403C47.0659 52.4306 46.4064 52.4306 45.9966 52.8403C45.5869 53.25 45.5869 53.9125 45.9966 54.3193L48.696 57.0187C48.8994 57.222 49.1667 57.3237 49.4341 57.3237C49.7014 57.3237 49.9687 57.222 50.1721 57.0187C50.5818 56.609 50.5818 55.9465 50.1721 55.5396L47.4727 52.8403H47.4756ZM54.9343 49.6557L51.6305 47.7496C51.1307 47.4619 50.4915 47.6334 50.2009 48.1331C49.9132 48.6329 50.0847 49.2721 50.5844 49.5627L53.8882 51.4689C54.0538 51.5647 54.234 51.6083 54.4112 51.6083C54.7715 51.6083 55.126 51.4195 55.3178 51.0853C55.6055 50.5855 55.434 49.9463 54.9343 49.6557ZM59.3189 43.5276L55.6345 42.5397C55.0766 42.3915 54.5042 42.7199 54.3531 43.2778C54.2049 43.8356 54.5332 44.408 55.0911 44.5592L58.7755 45.5471C58.8656 45.5703 58.9557 45.582 59.0457 45.582C59.5077 45.582 59.9291 45.274 60.054 44.8061C60.2022 44.2482 59.8739 43.6758 59.316 43.5247L59.3189 43.5276ZM60.9897 36.5714H57.1745C56.5963 36.5714 56.1285 37.0392 56.1285 37.6174C56.1285 38.1956 56.5963 38.6634 57.1745 38.6634H60.9897C61.5679 38.6634 62.0357 38.1956 62.0357 37.6174C62.0357 37.0392 61.5678 36.5714 60.9897 36.5714ZM55.3469 38.1376L31.8136 66.311C31.616 66.5493 31.3225 66.6858 31.0117 66.6858C30.7007 66.6858 30.4073 66.5493 30.2097 66.311L6.67645 38.1376C6.35682 37.7569 6.35101 37.202 6.66192 36.8155L14.6643 26.7906C14.8619 26.5408 15.1641 26.3984 15.4808 26.3984H46.5456C46.8652 26.3984 47.1645 26.5437 47.3621 26.7906L55.3645 36.8155C55.6754 37.2049 55.6696 37.757 55.3499 38.1376H55.3469ZM46.0398 28.4876H40.0599L43.5583 36.42H52.3715L46.0398 28.4876ZM20.609 38.5125L30.822 62.5218L41.2799 38.5125H20.609ZM41.2709 36.4204L37.7725 28.488H24.1303L20.6319 36.4204H41.2709ZM18.3335 38.5125H9.71226L27.2768 59.5434L18.3335 38.5125ZM34.0303 60.3922L52.3067 38.5125H43.5605L34.0303 60.3922ZM9.65201 36.42H18.3462L21.8446 28.4876H15.9809L9.64948 36.42H9.65201ZM4.30267 4.28338C4.015 3.94922 3.96851 3.47273 4.18353 3.08912C4.39855 2.70558 4.83149 2.49636 5.26442 2.56901L20.7752 5.1231C21.1239 5.18121 21.4203 5.41076 21.5627 5.7362C21.7051 6.06163 21.6731 6.43356 21.4784 6.72991L20.1999 8.67382C20.1505 8.74646 20.0924 8.83944 20.2173 9.0748C20.5718 9.73148 21.7748 10.3736 22.6464 10.3736C23.4659 10.3736 24.4363 9.88549 24.8577 9.26366C25.1105 8.89464 25.0553 8.64185 24.9943 8.48492L23.7157 5.26546C23.5268 4.78893 23.7099 4.24556 24.1516 3.98112L30.5411 0.148569C30.8753 -0.051922 31.2937 -0.0490136 31.6278 0.15438L37.8779 3.98693C38.3108 4.25135 38.491 4.79178 38.3021 5.26546L37.0236 8.48493C36.9596 8.64184 36.9073 8.89463 37.1601 9.26367C37.5815 9.88549 38.5549 10.3736 39.3714 10.3736C40.2431 10.3736 41.4461 9.73149 41.8005 9.07481C41.9284 8.83944 41.8673 8.74937 41.8179 8.67383L40.5394 6.72992C40.3447 6.43354 40.3128 6.05871 40.4552 5.7362C40.5975 5.41077 40.8939 5.18122 41.2426 5.12311L56.7534 2.56901C57.1893 2.49928 57.6193 2.70558 57.8343 3.08913C58.0493 3.47268 58.0028 3.94917 57.7152 4.28339L46.5403 17.2569C46.3427 17.4865 46.0521 17.6201 45.747 17.6201H16.2719C15.9668 17.6201 15.6791 17.4865 15.4786 17.2569L4.30267 4.28338ZM7.76917 5.1028L16.7504 15.5316H45.2698L54.251 5.1028L43.1743 6.92755L43.5666 7.52612C44.0722 8.29318 44.0983 9.2201 43.6421 10.0686C42.9157 11.4139 41.0415 12.4658 39.3737 12.4658C37.8628 12.4658 36.2414 11.6319 35.4307 10.4405C34.8495 9.58339 34.7246 8.61579 35.082 7.71498L36.035 5.31197L31.075 2.26976L25.9901 5.32075L26.9402 7.71506C27.2976 8.61579 27.1727 9.58339 26.5915 10.4406C25.7809 11.6349 24.1595 12.4659 22.6485 12.4659C20.9807 12.4659 19.1036 11.414 18.3801 10.0687C17.9239 9.22024 17.95 8.29333 18.4556 7.52619L18.8479 6.92762L7.77118 5.10288L7.76917 5.1028ZM46.6764 20.6597V24.1291C46.6764 24.7074 46.2086 25.1751 45.6304 25.1751H16.3903C15.812 25.1751 15.3443 24.7073 15.3443 24.1291V20.6597C15.3443 20.0815 15.8121 19.6137 16.3903 19.6137H45.6304C46.2086 19.6137 46.6764 20.0815 46.6764 20.6597ZM44.5843 21.7057H17.4366V23.0831H44.5843V21.7057ZM20.7609 58.8173C20.2611 58.5267 19.6219 58.7011 19.3313 59.2008L17.4252 62.5046C17.1375 63.0044 17.309 63.6436 17.8087 63.9342C17.9744 64.0301 18.1545 64.0737 18.3318 64.0737C18.6921 64.0737 19.0466 63.8848 19.2384 63.5506L21.1445 60.2469C21.4322 59.7471 21.2607 59.1079 20.7609 58.8173ZM14.5602 52.8403L11.8609 55.5396C11.4512 55.9493 11.4512 56.6118 11.8609 57.0187C12.0643 57.222 12.3316 57.3237 12.5989 57.3237C12.8662 57.3237 13.1336 57.222 13.337 57.0187L16.0363 54.3193C16.446 53.9096 16.446 53.2471 16.0363 52.8403C15.6266 52.4306 14.9641 52.4306 14.5573 52.8403H14.5602ZM11.8318 48.1331C11.5441 47.6333 10.9049 47.4619 10.4022 47.7496L7.09843 49.6557C6.59866 49.9433 6.42723 50.5826 6.71489 51.0853C6.90957 51.4194 7.26116 51.6083 7.6215 51.6083C7.79874 51.6083 7.9789 51.5618 8.14452 51.4688L11.4483 49.5627C11.948 49.2751 12.1195 48.6358 11.8318 48.1331ZM7.68251 43.2807C7.53432 42.7228 6.95899 42.3915 6.40107 42.5426L2.7167 43.5305C2.15881 43.6787 1.82757 44.254 1.97866 44.812C2.1036 45.2798 2.52783 45.5878 2.98695 45.5878C3.07702 45.5878 3.1671 45.5762 3.25717 45.5529L6.94155 44.565C7.49944 44.4168 7.83068 43.8415 7.67959 43.2836L7.68251 43.2807ZM5.90716 37.6175C5.90716 37.0393 5.43934 36.5715 4.86115 36.5715H1.04601C0.467779 36.5715 0 37.0393 0 37.6175C0 38.1957 0.467817 38.6635 1.04601 38.6635H4.86115C5.43938 38.6635 5.90716 38.1957 5.90716 37.6175Z" fill="#964A26"/>
</svg>
