<svg width="60" height="69" viewBox="0 0 60 69" fill="none" xmlns="http://www.w3.org/2000/svg">
<path d="M51.6529 41.4894C49.5786 40.3029 47.1209 40.6046 45.2925 42.2708L40.5579 45.7411L51.5874 28.6541C51.8262 28.2835 51.8214 27.7693 51.5778 27.4044L43.5052 15.3529C43.3436 15.1145 43.1 14.9737 42.8419 14.9737H14.21C13.9375 14.9737 13.6794 15.1317 13.5202 15.396L5.87924 28.0881C5.65252 28.4644 5.66941 28.9758 5.92025 29.3291L14.0194 40.7769C12.647 40.8315 11.3036 41.2624 10.0927 42.0351L10.0638 42.0581L1.19039 49.2343C0.992614 49.3779 0.85031 49.6135 0.79966 49.8835C0.751421 50.1536 0.797248 50.438 0.927491 50.6678C1.05774 50.8976 1.26275 51.0528 1.49188 51.0987C1.72342 51.1447 1.95738 51.0757 2.14551 50.9063L11.0023 43.7444C12.3481 42.7648 15.1918 42.4803 18.6117 42.9918C21.793 43.4141 24.89 44.5028 27.7531 46.2093C29.4921 47.3498 30.4545 48.5678 30.4641 49.6423C30.4713 50.6334 29.6609 51.7279 28.1173 52.8109C25.0807 52.5897 22.073 51.9548 19.1593 50.9149C18.7059 50.7684 18.2403 51.0873 18.1173 51.6274C17.9943 52.1675 18.2596 52.7219 18.7131 52.8684C26.4504 55.3734 31.3227 55.4827 33.5993 53.216L46.199 43.9827C46.2135 43.9712 46.2255 43.9626 46.24 43.9511H46.2424C47.5545 42.71 49.3417 42.4543 50.8661 43.2846C51.8043 43.8017 52.4241 44.8934 52.4772 46.1229C52.4772 47.4702 51.6283 48.7429 50.0822 49.7082C50.0533 49.7254 50.0267 49.7455 50.0002 49.7685L31.2642 64.8853L31.2522 64.8968H31.2498C29.4939 66.3877 27.2411 66.7727 25.203 65.9339C25.1838 65.9281 25.1669 65.9224 25.1476 65.9166L12.425 62.6015C12.2827 62.5641 12.1814 62.5296 12.0921 62.498C11.5904 62.2826 11.0308 62.4291 10.6522 62.8773L9.193 64.1326V64.1355C8.82638 64.4687 8.75162 65.0893 9.02175 65.5345C9.29189 65.9769 9.81042 66.0861 10.1891 65.7758L11.6483 64.5147L11.7038 64.4688C11.7955 64.5004 11.9136 64.5377 12.0632 64.575L24.7592 67.8816H24.7568C25.6468 68.1976 26.5682 68.3585 27.4944 68.3671C29.1924 68.3729 30.8469 67.738 32.2242 66.5573L50.9145 51.4721C53.7557 49.6738 54.1778 47.3496 54.1778 46.1173C54.1272 44.1351 53.153 42.3512 51.6529 41.4894ZM14.092 17.918L18.2332 27.4985L8.23793 27.6421L14.092 17.918ZM15.6043 16.9987H24.2486L19.6611 26.3726L15.6043 16.9987ZM26.2146 16.9987L30.9588 16.9959L36.2289 27.2346L21.0988 27.4529L26.2146 16.9987ZM32.9485 16.9987L41.47 16.9959L37.6543 26.1373L32.9485 16.9987ZM43.0087 17.8549L49.1663 27.0478L39.1086 27.1943L43.0087 17.8549ZM16.2026 40.7253L8.37821 29.6652L19.0219 29.51L22.659 41.8256H22.6566C20.5438 41.1936 18.3804 40.8259 16.2026 40.7253ZM28.5708 44.4398C27.3214 43.647 26.0141 42.9977 24.6611 42.4979L20.8188 29.4844L36.5398 29.2574L31.3952 47.1233C30.621 46.0029 29.6585 45.0891 28.5708 44.4398ZM32.6542 51.5327C32.6156 51.5614 32.5794 51.5959 32.5432 51.6304C32.2875 51.8861 32.0005 52.0929 31.6894 52.2423C31.7232 52.1762 31.7521 52.1073 31.7738 52.0354L38.3392 29.2312L49.1712 29.076L36.4893 48.7231L32.6542 51.5327ZM5.77584 14.0257L0.440676 10.3571C0.240485 10.225 0.0933586 10.0038 0.0306501 9.74236C-0.0296478 9.48093 -0.000705376 9.1994 0.115068 8.96383C0.228426 8.72826 0.416558 8.55877 0.638458 8.48982C0.860358 8.42087 1.09431 8.46396 1.28969 8.60473L6.62485 12.2733C7.01799 12.5606 7.14582 13.1667 6.91669 13.6407C6.68515 14.1176 6.17866 14.2871 5.77584 14.0257ZM7.13133 3.23837H7.12892C6.89496 2.75575 7.03485 2.13523 7.44006 1.85657C7.84768 1.57791 8.36624 1.74454 8.60019 2.22716L11.193 7.57338V7.57626C11.3112 7.80895 11.3474 8.08761 11.2895 8.35192C11.2316 8.61334 11.0893 8.84029 10.8915 8.97531C10.6937 9.11033 10.4574 9.14768 10.2379 9.07299C10.0184 9.00117 9.83267 8.82592 9.72172 8.58748L7.13133 3.23837ZM15.3175 7.66244L16.8636 0.776369C16.9166 0.51207 17.0589 0.285123 17.2567 0.144354C17.4521 0.00646043 17.6884 -0.0308847 17.9103 0.0380621C18.1298 0.109882 18.318 0.282247 18.4313 0.520689C18.5423 0.759131 18.5688 1.04066 18.5061 1.30209L16.9576 8.18815L16.9552 8.18528C16.8274 8.71387 16.3667 9.02125 15.9205 8.88049C15.4743 8.73685 15.2041 8.19677 15.3151 7.66247L15.3175 7.66244ZM59.5592 10.36L54.2241 14.0286L54.2265 14.0257C54.0311 14.1693 53.7947 14.2124 53.5728 14.1435C53.3485 14.0774 53.1604 13.905 53.0446 13.6695C52.9313 13.4339 52.8999 13.1524 52.9626 12.8881C53.0253 12.6266 53.1749 12.4026 53.3751 12.2733L58.7102 8.60473C58.9056 8.46396 59.1395 8.42375 59.3615 8.48982C59.5833 8.55877 59.7715 8.72826 59.8872 8.96383C60.0006 9.1994 60.0295 9.48093 59.9692 9.74236C59.9065 10.0067 59.7594 10.2279 59.5592 10.3571L59.5592 10.36ZM48.8044 7.57051L51.3972 2.22429C51.5082 1.99159 51.6939 1.82209 51.911 1.75315C52.1305 1.6842 52.362 1.71868 52.5574 1.8537C52.9626 2.13236 53.1025 2.75291 52.8685 3.2355L50.2757 8.58172V8.58459C50.0369 9.05573 49.5232 9.21086 49.1228 8.93795C48.7224 8.66216 48.5801 8.05317 48.8044 7.57051ZM41.4913 1.29926C41.4262 1.03784 41.4527 0.756307 41.5661 0.517865C41.677 0.279423 41.8652 0.104185 42.0871 0.035238C42.309 -0.0365813 42.5453 0.00363713 42.7431 0.14153C42.9385 0.282299 43.0808 0.512121 43.1338 0.776413L44.6799 7.66248C44.745 7.92391 44.7185 8.20544 44.6051 8.44101C44.4942 8.67945 44.306 8.85181 44.0841 8.92364C43.8622 8.99546 43.6283 8.95524 43.4305 8.81735C43.2351 8.67658 43.0928 8.44963 43.0374 8.18533L41.4913 1.29926Z" fill="#964A26"/>
</svg>
