<svg width="46" height="63" viewBox="0 0 46 63" fill="none" xmlns="http://www.w3.org/2000/svg">
<path d="M22.6593 0.255749C22.4789 0.278336 22.3136 0.367737 22.196 0.506264C22.0784 0.64479 22.0171 0.822348 22.0242 1.00388V3.90578C22.0228 4.00191 22.0406 4.09738 22.0765 4.18659C22.1123 4.27581 22.1656 4.357 22.2331 4.42546C22.3006 4.49392 22.3811 4.54827 22.4698 4.58538C22.5586 4.62249 22.6538 4.6416 22.75 4.6416C22.8462 4.6416 22.9414 4.62249 23.0302 4.58538C23.1189 4.54827 23.1994 4.49392 23.2669 4.42546C23.3344 4.357 23.3877 4.27581 23.4235 4.18659C23.4594 4.09738 23.4772 4.00191 23.4758 3.90578V1.00388C23.4799 0.898595 23.4611 0.793657 23.4205 0.696398C23.3799 0.599139 23.3187 0.5119 23.241 0.4407C23.1633 0.3695 23.071 0.316086 22.9705 0.284145C22.8701 0.252204 22.7639 0.242509 22.6593 0.255749ZM14.6981 1.7067C14.5773 1.71513 14.4605 1.75361 14.3584 1.81869C14.2563 1.88376 14.1721 1.97335 14.1135 2.07926C14.0549 2.18517 14.0237 2.30407 14.0228 2.42511C14.0219 2.54614 14.0513 2.66547 14.1084 2.77224L15.56 5.67413C15.6032 5.76047 15.663 5.83748 15.7359 5.90073C15.8089 5.96397 15.8936 6.01223 15.9852 6.04275C16.0768 6.07328 16.1735 6.08548 16.2699 6.07864C16.3662 6.07179 16.4602 6.04605 16.5466 6.00288C16.633 5.95971 16.71 5.89994 16.7733 5.82701C16.8366 5.75409 16.8849 5.66945 16.9154 5.57787C16.9459 5.48629 16.9581 5.38958 16.9513 5.29329C16.9444 5.197 16.9187 5.10302 16.8755 5.01668L15.4239 2.11479C15.3594 1.98054 15.2552 1.86936 15.1254 1.79636C14.9955 1.72335 14.8463 1.69205 14.6981 1.7067ZM30.7112 1.7067C30.5781 1.70995 30.4484 1.74972 30.3364 1.8217C30.2244 1.89368 30.1343 1.99508 30.0761 2.11479L28.6245 5.01668C28.5813 5.10302 28.5556 5.197 28.5487 5.29329C28.5419 5.38958 28.5541 5.48629 28.5846 5.57787C28.6151 5.66945 28.6634 5.75409 28.7267 5.82701C28.79 5.89994 28.867 5.95971 28.9534 6.00288C29.0398 6.04605 29.1338 6.07179 29.2301 6.07864C29.3265 6.08548 29.4232 6.07328 29.5148 6.04275C29.6064 6.01223 29.6911 5.96397 29.7641 5.90073C29.8371 5.83748 29.8968 5.76047 29.94 5.67413L31.3916 2.77224C31.4521 2.65871 31.4813 2.53113 31.4763 2.4026C31.4712 2.27407 31.4321 2.14919 31.3628 2.04076C31.2936 1.93234 31.1968 1.84426 31.0823 1.78555C30.9677 1.72685 30.8397 1.69965 30.7112 1.7067ZM17.5333 9.70962C17.4346 9.73015 17.3413 9.77099 17.2593 9.82954C17.1773 9.88808 17.1084 9.96303 17.057 10.0497L14.8795 13.6771C14.7883 13.823 14.7518 13.9965 14.7768 14.1668C14.8017 14.3371 14.8863 14.4929 15.0156 14.6066L18.9622 17.9846C8.39994 19.8559 0.25 29.1039 0.25 40.1796C0.25 52.5917 10.3322 62.6693 22.75 62.6693C35.1678 62.6693 45.25 52.5917 45.25 40.1796C45.25 29.1039 37.1001 19.8559 26.5378 17.9846L30.4844 14.6066C30.6137 14.4929 30.6983 14.3371 30.7232 14.1668C30.7482 13.9965 30.7117 13.823 30.6205 13.6771L28.443 10.0497C28.378 9.94593 28.2877 9.86038 28.1806 9.80092C28.0735 9.74146 27.9531 9.71005 27.8306 9.70962H17.6694C17.6241 9.70536 17.5785 9.70536 17.5333 9.70962ZM18.0549 11.1606H27.4451L29.0781 13.8811L24.4511 17.8485C24.344 17.9417 24.2666 18.0643 24.2285 18.201C24.1903 18.3378 24.1932 18.4827 24.2366 18.6178C24.2801 18.7529 24.3623 18.8724 24.473 18.9613C24.5836 19.0502 24.718 19.1048 24.8594 19.1181C35.4384 20.2252 43.7984 29.3057 43.7984 40.1796C43.7984 51.8076 34.3833 61.2184 22.75 61.2184C11.1167 61.2184 1.70161 51.8076 1.70161 40.1796C1.70161 29.3057 10.0617 20.2252 20.6406 19.1181C20.782 19.1048 20.9164 19.0502 21.0271 18.9613C21.1377 18.8724 21.2199 18.7529 21.2634 18.6178C21.3068 18.4827 21.3097 18.3378 21.2715 18.201C21.2334 18.0643 21.156 17.9417 21.0489 17.8485L16.4219 13.8811L18.0549 11.1606ZM22.75 22.7682C13.1382 22.7682 5.33065 30.5721 5.33065 40.1796C5.33065 49.7871 13.1382 57.591 22.75 57.591C32.3618 57.591 40.1694 49.7871 40.1694 40.1796C40.1694 30.5721 32.3618 22.7682 22.75 22.7682ZM22.75 24.2191C31.5773 24.2191 38.7177 31.3562 38.7177 40.1796C38.7177 49.0029 31.5773 56.1401 22.75 56.1401C13.9227 56.1401 6.78226 49.0029 6.78226 40.1796C6.78226 31.3562 13.9227 24.2191 22.75 24.2191Z" fill="#964A26" stroke="#964A26" stroke-width="0.5"/>
</svg>
