<svg width="63" height="63" viewBox="0 0 63 63" fill="none" xmlns="http://www.w3.org/2000/svg">
<path d="M61.475 60.7H54.819V54.7363C57.4356 54.3583 59.4546 52.1074 59.4546 49.3878C59.4546 47.2832 58.2436 45.4598 56.4839 44.5659C57.782 43.7507 58.6494 42.3103 58.6494 40.6676C58.6494 38.1285 56.5836 36.0624 54.044 36.0624C51.5048 36.0624 49.439 38.1285 49.439 40.6676C49.439 42.3103 50.3064 43.7507 51.6044 44.5659C49.8448 45.4598 48.6338 47.2832 48.6338 49.3878C48.6338 52.1073 50.6527 54.3582 53.269 54.7363V60.7H45.326V1.02595C45.326 0.782251 45.2113 0.552176 45.0161 0.406109C44.8201 0.259285 44.5669 0.211605 44.3342 0.28199L17.7322 8.03187C17.4014 8.12799 17.174 8.43147 17.174 8.77583V60.7H9.23099V54.7363C11.8473 54.3582 13.8662 52.1073 13.8662 49.3878C13.8662 47.2832 12.6552 45.4598 10.8956 44.5659C12.1936 43.7507 13.061 42.3103 13.061 40.6676C13.061 38.1285 10.9952 36.0624 8.45599 36.0624C5.91643 36.0624 3.85065 38.1285 3.85065 40.6676C3.85065 42.3103 4.71798 43.7507 6.0161 44.5659C4.25641 45.4598 3.04537 47.2832 3.04537 49.3878C3.04537 52.1074 5.06437 54.3583 7.68099 54.7363V60.7H1.025C0.597009 60.7 0.25 61.0466 0.25 61.475C0.25 61.9034 0.597009 62.25 1.025 62.25H61.475C61.903 62.25 62.25 61.9034 62.25 61.475C62.25 61.0466 61.903 60.7 61.475 60.7ZM54.044 37.6123C55.7287 37.6123 57.0993 38.983 57.0993 40.6676C57.0993 42.3516 55.7287 43.7222 54.044 43.7222C52.3597 43.7222 50.989 42.3516 50.989 40.6676C50.989 38.983 52.3597 37.6123 54.044 37.6123ZM50.1838 49.3878C50.1838 47.2596 51.9154 45.528 54.044 45.528C56.1726 45.528 57.9046 47.2596 57.9046 49.3878C57.9046 51.5167 56.1726 53.2483 54.044 53.2483C51.9154 53.2483 50.1838 51.5167 50.1838 49.3878ZM8.45599 37.6123C10.1403 37.6123 11.511 38.983 11.511 40.6676C11.511 42.3516 10.1403 43.7222 8.45599 43.7222C6.77128 43.7222 5.40065 42.3516 5.40065 40.6676C5.40065 38.983 6.77128 37.6123 8.45599 37.6123ZM4.59537 49.3878C4.59537 47.2596 6.32739 45.528 8.45599 45.528C10.5846 45.528 12.3162 47.2596 12.3162 49.3878C12.3162 51.5167 10.5846 53.2483 8.45599 53.2483C6.32739 53.2483 4.59537 51.5167 4.59537 49.3878ZM43.776 26.3841H18.724V16.4954H43.776V26.3841ZM18.724 27.9341H43.776V37.8227H18.724V27.9341ZM43.776 2.05901V14.9455H18.724V9.35707L43.776 2.05901ZM18.724 39.3727H43.776V60.7H37.5942V51.7415C37.5942 48.2435 34.7481 45.3978 31.25 45.3978C27.7519 45.3978 24.9058 48.2435 24.9058 51.7415V60.7H18.724V39.3727ZM36.0442 60.7H26.4558V51.7415C26.4558 49.0979 28.6064 46.9478 31.25 46.9478C33.8936 46.9478 36.0442 49.0979 36.0442 51.7415V60.7Z" fill="#964A26" stroke="#964A26" stroke-width="0.5"/>
</svg>
