<svg width="58" height="62" viewBox="0 0 58 62" fill="none" xmlns="http://www.w3.org/2000/svg">
<path d="M23.0344 62C20.5663 61.1571 18.878 59.5975 18.4189 56.7942C15.8196 58.5481 13.2422 58.7376 10.8154 56.7578C8.84288 55.1448 8.38619 52.9585 8.88904 50.8693C7.4315 50.1406 5.89623 49.6669 4.73749 48.7268C2.75039 47.1162 2.37143 44.1914 3.62734 41.8909C3.98686 41.2302 3.92856 40.8051 3.56904 40.1735C0.318737 34.4551 -0.805993 28.3213 0.585952 21.8863C1.51877 17.5793 4.34639 14.6788 8.41048 13.0026C8.74328 12.8666 9.13925 12.6285 9.43318 12.6965C9.87287 12.7986 10.4243 13.0512 10.6041 13.4034C10.7182 13.6245 10.332 14.2828 10.0065 14.5063C9.52063 14.8367 8.87446 14.9096 8.33517 15.1719C4.27837 17.1542 2.33256 20.5696 2.06535 24.9301C1.76412 29.8881 2.66294 34.647 5.15775 39.0196C5.23495 39.1606 5.3218 39.2962 5.41768 39.4253C5.4773 39.4773 5.54666 39.5169 5.62173 39.5419C10.915 36.9232 15.6496 41.2958 14.3864 46.3826C18.2464 47.1259 19.2229 47.9713 20.491 51.7099C22.019 50.5317 23.7267 50.0774 25.5924 50.5268C28.0216 51.1098 29.8289 53.1795 30.0281 55.531C30.2711 58.2372 28.9447 60.4769 26.5033 61.5604C26.2215 61.6867 25.9592 61.8519 25.6895 62H23.0344ZM12.6179 44.5485C12.5952 43.53 12.1767 42.5603 11.4511 41.8452C10.7255 41.13 9.74989 40.7256 8.73114 40.7176C7.7233 40.7491 6.76774 41.1735 6.06859 41.9001C5.36945 42.6267 4.98215 43.5978 4.98945 44.6061C4.99674 45.6144 5.39805 46.5799 6.10763 47.2963C6.81722 48.0127 7.77882 48.4232 8.78701 48.4401C9.80598 48.4162 10.7756 47.9966 11.4907 47.2702C12.2057 46.5439 12.61 45.5677 12.6179 44.5485ZM14.588 56.1821C15.3516 56.1772 16.0966 55.9462 16.729 55.5181C17.3613 55.09 17.8525 54.4841 18.1407 53.777C18.4288 53.0698 18.5008 52.2931 18.3476 51.545C18.1945 50.7969 17.823 50.111 17.2802 49.5739C16.7374 49.0369 16.0475 48.6728 15.2979 48.5276C14.5482 48.3825 13.7723 48.4628 13.0682 48.7584C12.3642 49.0541 11.7636 49.5518 11.3423 50.1887C10.921 50.8255 10.6979 51.573 10.7012 52.3366C10.722 53.3571 11.1395 54.3294 11.8651 55.0472C12.5907 55.7651 13.5673 56.1722 14.588 56.1821ZM24.2077 60.0518C25.2264 60.0476 26.203 59.6454 26.9292 58.931C27.6554 58.2166 28.0736 57.2467 28.0945 56.2282C28.1479 54.1804 26.3357 52.3414 24.2757 52.3414C23.2675 52.3549 22.3046 52.7623 21.5929 53.4766C20.8812 54.1909 20.4773 55.1552 20.4674 56.1635C20.4576 57.1717 20.8427 58.1438 21.5403 58.8718C22.2379 59.5998 23.1927 60.026 24.2004 60.0591L24.2077 60.0518Z" fill="#964A26"/>
<path d="M45.5412 21.8741V29.3731C45.5412 30.1019 45.6432 30.9812 44.5962 30.9934C43.4545 30.9934 43.6002 30.0703 43.5978 29.3099C43.5978 24.5924 43.627 19.8748 43.5638 15.1573C43.53 14.4672 43.2638 13.8088 42.8083 13.2892C41.2779 11.63 39.6698 10.0413 38.0179 8.50364C37.5534 8.10252 36.9691 7.86672 36.3563 7.83317C34.0194 7.75787 31.6801 7.81131 29.3407 7.79916C26.8799 7.78459 25.1965 6.17887 25.211 3.88569C25.228 1.65809 26.9115 0.0693778 29.2994 0.0596609C31.357 0.0596609 33.4291 0.171405 35.4672 0.0305103C37.9207 -0.139535 40.1265 0.40704 42.2958 1.52448C44.7614 2.79497 47.3121 3.90998 49.8482 5.03957C50.5938 5.34931 51.2615 5.82038 51.8033 6.41891C52.3451 7.01745 52.7477 7.72858 52.9819 8.50121C54.5876 13.3961 56.2444 18.274 57.8185 23.1786C58.0254 23.858 58.0439 24.581 57.8719 25.2701C55.7828 33.2056 53.654 41.1354 51.4855 49.0595C51.3495 49.5453 50.9049 50.1794 50.4604 50.33C49.6952 50.5948 49.2676 49.7518 49.5664 48.6295C50.7616 44.1598 51.9616 39.69 53.1665 35.2202C54.0653 31.88 54.9884 28.5423 55.8387 25.19C55.9831 24.6159 55.9714 24.0137 55.8047 23.4458C54.2767 18.7039 52.6661 13.984 51.126 9.22997C50.9726 8.68911 50.6992 8.1898 50.3261 7.76922C49.9531 7.34863 49.49 7.0176 48.9713 6.80075C45.738 5.34322 42.5362 3.83224 39.3078 2.37714C38.8014 2.14602 38.2537 2.01882 37.6972 2.00304C34.9959 1.96417 32.2946 1.97875 29.5933 1.98603C28.0872 1.98603 27.1641 2.74395 27.1641 3.92941C27.1641 5.11487 28.1115 5.8485 29.6055 5.85579C32.144 5.85579 34.685 5.81692 37.2235 5.88979C37.8424 5.91688 38.4339 6.15229 38.9021 6.55783C40.9184 8.4753 42.8844 10.443 44.8003 12.4608C45.2316 12.9582 45.4832 13.5863 45.5145 14.2439C45.5922 16.7824 45.5461 19.3234 45.5461 21.8644L45.5412 21.8741Z" fill="#964A26"/>
<path d="M27.1581 26.7203C27.1994 27.2434 27.1994 27.7689 27.1581 28.292C26.5483 32.0743 27.7217 35.2201 30.474 37.8267C30.6756 38.0186 30.7946 38.3125 31.0084 38.4802C34.6158 41.3952 34.0206 45.4545 33.904 49.3534C33.904 49.7007 33.2943 50.0287 32.9688 50.3663C32.6433 49.9874 32.0602 49.6376 32.036 49.2295C31.9315 47.5436 32.0627 45.8431 31.9655 44.1548C31.9231 43.4175 31.6794 42.7059 31.261 42.0973C29.5144 39.7312 27.6439 37.4575 25.8876 35.0962C25.4943 34.5581 25.2687 33.9159 25.239 33.25C25.188 29.0159 25.2098 24.7842 25.2244 20.5501C25.2244 17.618 27.2917 15.5167 30.1047 15.5289C32.84 15.5289 34.883 17.652 34.9049 20.5112C34.9219 22.6076 34.9049 24.704 34.9049 26.8005C34.9267 29.9293 36.9333 31.9407 40.0475 31.9796C40.9342 31.9796 41.8354 31.8994 42.7002 32.0354C43.0403 32.0864 43.5335 32.633 43.5335 32.9537C43.5335 33.2743 43.0088 33.8622 42.7051 33.8671C41.1431 33.8962 39.5301 33.991 38.024 33.6606C34.9559 32.9877 32.9615 30.2597 32.9518 27.1284C32.9518 24.9931 32.9518 22.8554 32.9396 20.7177C32.9202 18.8035 31.725 17.4795 30.0877 17.4892C28.3557 17.4892 27.1726 18.8229 27.1726 20.7954C27.1726 22.7679 27.1556 24.755 27.1581 26.7203Z" fill="#964A26"/>
<path d="M20.4386 17.4893C19.289 17.5036 18.161 17.1768 17.1971 16.5503C16.2332 15.9238 15.4765 15.0257 15.0228 13.9693C14.5691 12.913 14.4387 11.7459 14.648 10.6155C14.8573 9.48503 15.3969 8.44199 16.1987 7.61812C17.0006 6.79425 18.0286 6.22652 19.1529 5.98664C20.2773 5.74677 21.4475 5.84552 22.5157 6.27042C23.584 6.69532 24.5023 7.4273 25.1547 8.37389C25.8072 9.32048 26.1644 10.4392 26.1813 11.5887C26.1961 12.3544 26.0588 13.1154 25.7774 13.8277C25.496 14.5399 25.0761 15.1893 24.542 15.7381C24.0078 16.2869 23.3701 16.7243 22.6658 17.0249C21.9614 17.3255 21.2044 17.4833 20.4386 17.4893ZM24.2258 11.6349C24.2194 10.8774 23.99 10.1387 23.5662 9.5108C23.1425 8.88294 22.5432 8.39381 21.8432 8.1045C21.1431 7.8152 20.3734 7.73852 19.63 7.88406C18.8866 8.0296 18.2026 8.39089 17.6634 8.92284C17.1241 9.45478 16.7535 10.1338 16.5978 10.8751C16.4422 11.6164 16.5083 12.3871 16.788 13.0911C17.0678 13.795 17.5487 14.4009 18.1707 14.8332C18.7927 15.2655 19.5283 15.5049 20.2856 15.5216C20.7997 15.5261 21.3098 15.429 21.7863 15.236C22.2629 15.0429 22.6967 14.7576 23.0628 14.3965C23.4289 14.0354 23.72 13.6055 23.9196 13.1316C24.1192 12.6577 24.2232 12.1491 24.2258 11.6349Z" fill="#964A26"/>
</svg>
