<svg width="82" height="62" viewBox="0 0 82 62" fill="none" xmlns="http://www.w3.org/2000/svg">
<path d="M52.3986 49.4722C51.7594 50.3031 50.9924 50.9423 50.1614 51.4536L50.7367 58.868C50.7367 59.0598 50.8006 59.1876 50.8006 59.3155C50.6728 59.2515 50.545 59.1876 50.4171 59.1237L33.6707 50.3031C33.2872 50.1113 32.9037 49.9835 32.4563 49.9835C32.0728 49.9835 31.6254 50.1113 31.2419 50.3031L14.4955 59.1237C14.3676 59.1876 14.2398 59.2515 14.112 59.3155C14.112 59.1876 14.112 59.0598 14.1759 58.868L17.3718 40.2041C17.4996 39.3732 17.2439 38.5423 16.6048 37.967L3.11815 24.7361C2.99032 24.6082 2.9264 24.4804 2.79857 24.4165C2.9264 24.4165 3.05424 24.3526 3.24599 24.3526L21.9738 21.6041C22.8048 21.4763 23.5078 20.9649 23.8913 20.1979L32.2645 3.19588C32.3285 3.06804 32.3924 2.94021 32.4563 2.81237C32.5202 2.94021 32.5841 3.06804 32.648 3.19588L41.0212 20.134C41.4047 20.901 42.1078 21.4124 42.9388 21.5402L51.1202 22.7546C52.0151 21.9876 52.9738 21.2845 53.9326 20.5814L43.2584 19.0474L34.9491 2.10928C34.246 0.703092 33.3511 0 32.4563 0C31.5615 0 30.6666 0.703092 29.9635 2.10928L21.5903 19.1113L2.86248 21.7959C-0.269474 22.2433 -0.90865 24.4165 1.32846 26.5897L14.879 39.8206L11.6831 58.4845C11.2996 60.7216 12.1305 62 13.6645 62C14.2398 62 14.9429 61.8082 15.7099 61.4247L32.4563 52.6041L49.2027 61.4247C49.9697 61.8082 50.6728 62 51.248 62C52.7821 62 53.613 60.7216 53.2295 58.4845L52.3986 49.4722Z" fill="#964A26"/>
<path d="M77.2621 15.9158C77.4539 15.9158 77.6456 15.9158 77.8374 15.9797C80.7137 16.555 80.5858 21.5406 77.1343 22.0519C65.3734 23.7138 54.6992 33.1735 50.5446 44.0395C50.0972 45.19 49.0106 45.7014 47.924 45.7014C47.6683 45.7014 47.4126 45.7014 47.2209 45.6375C46.1343 45.4457 45.2394 44.7426 44.9198 43.656C43.5137 38.4148 41.2126 34.4519 36.9941 31.0643C34.5652 29.0828 36.6745 25.823 39.1673 25.823C39.359 25.823 39.5508 25.823 39.7425 25.8869C40.1899 26.0148 40.6374 26.2065 41.0848 26.5261C44.1528 29.0189 46.4539 31.8952 48.1796 35.155C54.3796 25.1839 65.3095 17.6416 76.7508 16.0436C76.9425 15.9797 77.0704 15.9158 77.2621 15.9158ZM77.2621 13.9983C77.0064 13.9983 76.7508 13.9983 76.4951 14.0622C65.6291 15.5962 55.0827 22.1797 48.2436 31.5117C46.6456 29.0828 44.6642 26.9096 42.2353 24.9921C41.5322 24.4808 40.8291 24.0973 40.0621 23.9694C39.7425 23.9055 39.4229 23.8416 39.1033 23.8416C36.9301 23.8416 34.9487 25.3117 34.1817 27.3571C33.5425 29.2107 34.1178 31.1921 35.7157 32.4705C39.4869 35.5385 41.66 38.99 43.0023 44.1034C43.4497 45.8292 44.9198 47.1076 46.7734 47.4911C47.157 47.555 47.5405 47.6189 47.924 47.6189C49.9054 47.6189 51.6312 46.5323 52.3343 44.7426C56.4889 34.0045 66.7796 25.4395 77.4539 23.9694C79.9466 23.5859 81.7363 21.5406 81.8642 18.9839C81.9281 16.555 80.458 14.5735 78.2848 14.1261C77.9013 14.0622 77.5817 13.9983 77.2621 13.9983Z" fill="#964A26"/>
</svg>
