<svg width="652" height="314" viewBox="0 0 652 314" fill="none" xmlns="http://www.w3.org/2000/svg">
<path d="M205.141 301.074C203.049 299.382 200.495 298.458 198.187 298.458C193.664 298.458 190.126 301.936 190.126 306.214C190.126 310.492 193.633 313.969 198.31 313.969C200.587 313.969 203.264 313.108 205.172 311.692V305.137H197.757V307.783H202.157V310.245C201.234 310.861 199.757 311.23 198.434 311.23C195.172 311.23 193.449 308.799 193.449 306.245C193.449 303.506 195.387 301.259 198.187 301.259C199.695 301.259 201.695 301.936 202.987 303.106L205.111 301.105L205.141 301.074Z" fill="white"/>
<path d="M214.28 306.183C214.28 303.475 216.434 301.228 219.173 301.228C221.911 301.228 224.157 303.475 224.157 306.183C224.157 308.891 221.973 311.23 219.173 311.23C216.373 311.23 214.28 308.953 214.28 306.183ZM210.896 306.183C210.896 310.522 214.526 313.969 219.142 313.969C223.757 313.969 227.48 310.522 227.48 306.183C227.48 301.844 223.757 298.458 219.142 298.458C214.526 298.458 210.896 301.936 210.896 306.183Z" fill="white"/>
<path d="M233.665 298.889V313.538H245.45V310.769H236.865V298.889H233.665Z" fill="white"/>
<path d="M254.004 310.769V301.69H257.573C259.296 301.69 260.065 302.121 260.834 302.859C261.634 303.69 262.065 304.86 262.065 306.245C262.065 307.722 261.573 308.891 260.711 309.753C259.942 310.43 259.265 310.799 257.573 310.799H254.004V310.769ZM257.665 313.538C260.434 313.538 262.004 312.8 263.265 311.6C264.619 310.245 265.358 308.337 265.358 306.214C265.358 304.09 264.65 302.305 263.388 300.982C262.096 299.659 260.342 298.889 257.665 298.889H250.803V313.508H257.665V313.538Z" fill="white"/>
<path d="M286.435 310.399C285.389 311.015 284.466 311.261 283.758 311.261C282.65 311.261 281.235 310.738 281.235 309.168C281.235 307.968 282.096 307.229 282.958 306.799L286.466 310.399H286.435ZM289.666 300.459C288.712 299.997 287.173 299.351 285.512 299.351C283.019 299.351 280.865 300.797 280.865 303.106C280.865 303.844 281.081 304.46 281.512 305.106C279.573 305.845 278.065 307.106 278.065 309.414C278.065 312.584 280.896 313.877 283.327 313.877C284.773 313.877 286.589 313.415 288.25 312.277L289.481 313.538H293.45L290.466 310.43C291.45 309.414 292.466 308.183 293.512 306.583L291.143 305.414C290.312 306.737 289.481 307.783 288.712 308.614L285.973 305.783C285.542 305.352 284.066 304.06 284.066 303.106C284.066 302.582 284.527 302.059 285.512 302.059C286.496 302.059 287.696 302.521 288.342 302.89L289.696 300.49L289.666 300.459Z" fill="white"/>
<path d="M309.604 310.769V301.69H313.173C314.896 301.69 315.666 302.121 316.404 302.859C317.204 303.69 317.635 304.86 317.635 306.245C317.635 307.722 317.143 308.891 316.281 309.753C315.512 310.43 314.835 310.799 313.143 310.799H309.573L309.604 310.769ZM313.296 313.538C316.035 313.538 317.635 312.8 318.897 311.6C320.25 310.245 320.989 308.337 320.989 306.214C320.989 304.09 320.281 302.305 319.02 300.982C317.727 299.659 315.973 298.889 313.296 298.889H306.435V313.508H313.296V313.538Z" fill="white"/>
<path d="M330.405 298.889H327.205V313.508H330.405V298.889Z" fill="white"/>
<path d="M343.666 302.736H343.789L346.005 307.907H341.451L343.666 302.736ZM335.666 313.538H339.051L340.374 310.461H347.143L348.497 313.538H352.005L345.236 298.92H342.466L335.697 313.538H335.666Z" fill="white"/>
<path d="M372.898 313.538V298.889H369.913L365.144 306.922H365.113L360.313 298.889H357.236V313.538H360.344V305.044H360.467L364.559 311.877H365.451L369.544 305.044H369.667V313.538H372.898Z" fill="white"/>
<path d="M382.406 306.183C382.406 303.475 384.56 301.228 387.298 301.228C390.037 301.228 392.283 303.475 392.283 306.183C392.283 308.891 390.098 311.23 387.298 311.23C384.498 311.23 382.406 308.953 382.406 306.183ZM379.052 306.183C379.052 310.522 382.683 313.969 387.298 313.969C391.913 313.969 395.637 310.522 395.637 306.183C395.637 301.844 391.913 298.458 387.298 298.458C382.683 298.458 379.052 301.936 379.052 306.183Z" fill="white"/>
<path d="M412.037 298.889V307.968H412.006L404.56 298.889H401.79V313.538H405.021V304.491H405.052L412.467 313.538H415.237V298.889H412.037Z" fill="white"/>
<path d="M425.698 310.769V301.69H429.268C430.991 301.69 431.76 302.121 432.498 302.859C433.298 303.69 433.729 304.86 433.729 306.245C433.729 307.722 433.237 308.891 432.375 309.753C431.606 310.43 430.929 310.799 429.237 310.799H425.668L425.698 310.769ZM429.36 313.538C432.098 313.538 433.698 312.8 434.96 311.6C436.314 310.245 437.052 308.337 437.052 306.214C437.052 304.09 436.345 302.305 435.083 300.982C433.791 299.659 432.037 298.889 429.36 298.889H422.498V313.508H429.36V313.538Z" fill="white"/>
<path d="M455.422 300.428C454.16 299.566 451.607 298.458 448.56 298.458C445.791 298.458 442.529 299.566 442.529 303.106C442.529 306.829 446.283 307.168 449.483 307.383C451.668 307.568 453.176 307.876 453.176 309.291C453.176 310.707 451.699 311.384 449.853 311.384C446.899 311.384 444.806 309.907 443.576 308.922L441.76 311.107C443.453 312.492 446.006 314 449.791 314C453.36 314 456.376 312.584 456.376 308.984C456.376 304.952 452.222 304.644 449.545 304.46C447.637 304.306 445.73 304.213 445.73 302.921C445.73 301.628 447.022 301.136 448.499 301.136C450.93 301.136 452.745 302.059 453.637 302.705L455.483 300.459L455.422 300.428Z" fill="white"/>
<path d="M27.8773 248.049C48.5545 248.049 55.6623 235.615 55.6623 224.567V188.314H44.0314V223.428C44.0314 232.692 40.7698 240.816 27.3235 240.816C15.6925 240.816 9.9386 231.091 7.56934 227.275L0 233.246C1.69233 236.292 9.04628 248.049 27.8773 248.049Z" fill="white"/>
<path d="M82.7703 246.571H138.094V239.462H94.4935V219.92H118.002V213.026H94.4935V195.3H135.725V188.314H82.7703V246.571Z" fill="white"/>
<path d="M175.449 246.571H182.587L199.634 202.87L216.557 246.571H223.665L246.034 188.314H237.327L221.757 230.784L205.942 188.314H197.603L181.233 230.784L165.972 188.314H153.572L175.449 246.571Z" fill="white"/>
<path d="M266.004 246.571H321.328V239.462H277.758V219.92H301.235V213.026H277.758V195.3H318.959V188.314H266.004V246.571Z" fill="white"/>
<path d="M341.328 246.571H388.405V239.462H353.051V188.314H341.328V246.571Z" fill="white"/>
<path d="M456.714 242.294C441.022 242.294 431.883 231.461 431.883 217.458C431.883 203.455 441.022 192.622 456.714 192.622C472.407 192.622 481.207 203.578 481.207 217.458C481.207 231.338 472.284 242.294 456.714 242.294ZM456.714 248.603C477.391 248.603 494.192 234.723 494.192 217.427C494.192 200.132 477.361 186.16 456.714 186.16C436.068 186.16 419.237 200.162 419.237 217.427C419.237 234.692 436.16 248.603 456.714 248.603Z" fill="white"/>
<path d="M513.73 246.571H521.854V202.655L561.608 246.571H570.316V188.314H562.285V230.66L524.223 188.314H513.73V246.571Z" fill="white"/>
<path d="M595.824 246.571H651.148V239.462H607.547V219.92H631.055V213.026H607.547V195.3H648.778V188.314H595.824V246.571Z" fill="white"/>
<path d="M385.421 104.728C380.621 113.868 377.913 130.641 354.528 131.564H320.651C323.42 129.872 326.004 127.871 328.466 125.594C356.405 105.375 364.313 61.3351 385.144 43.4547C390.528 39.2692 396.19 36.7764 402.375 35.8224C403.759 35.6685 405.667 35.5147 408.313 35.4223L408.067 35.3608C408.067 35.3608 408.221 35.3608 408.313 35.3608V29.6674C377.944 29.6674 363.205 37.9767 350.22 45.3012C344.959 48.2556 339.974 51.0562 334.251 53.1181C344.836 33.0834 354.528 13.7565 369.174 7.72459C371.697 6.77056 374.344 6.15505 377.144 5.8473C377.451 5.8473 377.79 5.81652 378.128 5.78575C378.221 5.78575 378.313 5.78575 378.405 5.7242C379.174 5.66265 379.944 5.63187 380.744 5.63187V0H284.25L284.004 0.58473L270.619 30.5598L276.188 32.5602C281.019 23.3584 283.696 6.49358 307.42 5.69342H360.528C359.697 6.18583 358.866 6.73978 358.066 7.29374C340.866 16.5879 330.651 36.5302 320.681 55.734C307.327 55.9187 292.896 50.0098 292.896 50.0098C292.773 49.8867 289.912 59.1808 289.912 59.1808C298.404 60.4118 306.527 62.6277 317.42 61.9814C307.727 80.3234 297.543 96.7882 280.804 101.066C278.25 101.62 275.604 101.897 272.865 101.897C257.45 101.897 250.311 95.034 247.05 89.279C246.496 88.2942 246.034 87.3094 245.603 86.2631C242.742 77.9537 245.757 69.7983 250.557 65.3051L245.788 62.6584L242.465 60.658C236.896 69.9829 236.742 82.6316 242.126 92.0796C247.788 102.051 258.711 107.56 272.865 107.56C272.865 107.56 276.127 107.467 277.665 107.313C303.358 105.251 317.974 83.2163 330.497 60.1964C339.266 58.0421 346.036 54.1952 353.02 50.2868C361.513 45.4858 370.19 40.5926 383.267 37.792C380.744 39.6078 378.498 41.7928 376.098 43.9163C350.62 66.5361 338.866 108.421 318.374 126.363C313.143 129.687 307.266 131.595 300.466 131.595H287.665C276.065 131.256 266.527 128.856 256.496 126.271C256.127 128.887 255.634 135.165 255.203 137.504L281.727 137.258H356.528H377.39H377.421L379.913 131.595L391.021 106.729L385.451 104.728H385.421Z" fill="white"/>
</svg>
