<svg width="20" height="20" viewBox="0 0 21 21" fill="none" xmlns="http://www.w3.org/2000/svg">
<path d="M10.4853 11.1566L18.7647 2.87721C18.8544 2.78542 18.9621 2.71315 19.081 2.66492C19.1962 2.61758 19.3195 2.59306 19.444 2.59274C19.7002 2.59816 19.9443 2.70233 20.1255 2.88351C20.3067 3.06469 20.4109 3.30887 20.4163 3.56504C20.4158 3.69783 20.3914 3.82944 20.3441 3.95353C20.3018 4.06833 20.2283 4.16905 20.1318 4.24437L11.1667 13.2222C11.09 13.3181 10.9887 13.3914 10.8737 13.4345C10.7501 13.4832 10.6182 13.5077 10.4853 13.5067C10.3606 13.5078 10.237 13.4832 10.1222 13.4345C10.0034 13.3861 9.89577 13.3138 9.80592 13.2222L5.94431 9.30967C5.84704 9.23516 5.77333 9.13418 5.73202 9.01883C5.68158 8.89558 5.65631 8.76349 5.65772 8.63033C5.66616 8.37663 5.77058 8.1356 5.94987 7.95591C6.12916 7.77622 6.36997 7.67128 6.62365 7.66228C6.75244 7.65713 6.87976 7.69118 6.98879 7.75993C7.08432 7.83211 7.20109 7.88094 7.30299 7.95524L10.4853 11.1566ZM18.4632 7.90429C19.0836 9.79751 19.0108 11.8496 18.2577 13.6941C17.5046 15.5386 16.1204 17.0553 14.3522 17.9733C12.584 18.8912 10.547 19.1507 8.60514 18.7054C6.66327 18.26 4.94296 17.1388 3.75151 15.542C2.56006 13.9453 1.97506 11.977 2.10102 9.98865C2.22698 8.00035 3.05568 6.12158 4.43911 4.68793C5.82254 3.25428 7.67058 2.35913 9.65313 2.16238C11.6357 1.96563 13.6236 2.48009 15.2618 3.61386L16.7861 2.0896C14.742 0.561786 12.2114 -0.169279 9.66742 0.033078C7.12346 0.235435 4.74026 1.35736 2.96337 3.18912C1.18648 5.02088 0.13752 7.43707 0.0125962 9.98601C-0.112327 12.5349 0.695335 15.0421 2.28459 17.0389C3.87385 19.0356 6.13592 20.3852 8.6479 20.8353C11.1599 21.2855 13.7498 20.8054 15.9336 19.4848C18.1173 18.1642 19.7453 16.0934 20.5133 13.6597C21.2813 11.226 21.1366 8.59595 20.1064 6.26115L18.4632 7.90429Z" fill="#C49966"/>
</svg>
