<svg width="388" height="82" viewBox="0 0 388 82" fill="none" xmlns="http://www.w3.org/2000/svg">
<path d="M333.419 28.0146L330.937 26.4248C330.05 28.3535 329.042 30.2015 327.902 31.985C327.04 33.3407 326.113 34.6561 325.112 35.9069C322.915 38.6829 320.368 41.1926 317.553 43.3796C315.242 45.1388 312.777 46.7124 310.19 48.0359C308.774 48.7702 307.309 49.4158 305.829 49.9968C303.249 50.9894 300.565 51.7399 297.823 52.208C300.32 51.4413 302.729 50.4245 305.039 49.206C306.366 48.5039 307.651 47.7453 308.888 46.898C314.396 43.2182 319.058 38.2794 322.313 32.5418C323.013 31.3152 323.639 30.0482 324.2 28.749C324.737 27.5062 325.226 26.215 325.624 24.9077L322.736 24.94L330.612 17.7982L333.419 28.0065V28.0146Z" fill="#E4A13E"/>
<path d="M151.878 0H150.691V81.8715H151.878V0Z" fill="#8C4E24"/>
<path d="M0 59.7143L1.17936 58.6794C1.90943 59.8748 2.86415 61.2788 5.15868 61.2788C7.68587 61.2788 8.79302 59.5539 8.79302 57.5963V50.464H10.6784V57.7808C10.6784 58.9602 10.4217 60.1395 9.42682 61.1023C8.59245 61.9527 7.21252 62.5544 5.25495 62.5544C1.67677 62.5544 0.296845 60.3 0.00802283 59.7223L0 59.7143Z" fill="#8C4E24"/>
<path d="M16.3907 50.456H26.6118V51.7236H18.2761V55.4782H23.0497V56.7298H18.2761V60.9418H27.029V62.2094H16.3907V50.4479V50.456Z" fill="#8C4E24"/>
<path d="M30.6232 50.456H32.6048L35.477 59.4095L38.4374 50.456H39.8735L42.7778 59.4095L45.5536 50.456H47.0619L42.9944 62.2175H41.8471L38.8145 52.9752L35.6776 62.2175H34.5303L30.6312 50.456H30.6232Z" fill="#8C4E24"/>
<path d="M51.5226 50.456H61.7437V51.7236H53.4079V55.4782H58.1815V56.7298H53.4079V60.9418H62.1609V62.2094H51.5226V50.4479V50.456Z" fill="#8C4E24"/>
<path d="M66.5172 50.456H68.4026V60.9498H75.8478V62.2175H66.5172V50.456Z" fill="#8C4E24"/>
<path d="M83.1808 56.3367C83.1808 52.903 86.1974 50.111 89.8959 50.111C93.5944 50.111 96.611 52.903 96.611 56.3367C96.611 59.7705 93.5784 62.5625 89.8959 62.5625C86.2134 62.5625 83.1808 59.7705 83.1808 56.3367ZM94.493 56.3367C94.493 53.4646 92.8082 51.2021 89.9039 51.2021C86.9996 51.2021 85.2747 53.4726 85.2747 56.3367C85.2747 59.2009 86.9836 61.4553 89.9039 61.4553C92.8242 61.4553 94.493 59.1848 94.493 56.3367Z" fill="#8C4E24"/>
<path d="M101.031 50.456H102.829L110.218 59.4817V50.456H111.557V62.2175H110.065L102.371 52.8308V62.2175H101.031V50.456Z" fill="#8C4E24"/>
<path d="M116.989 50.456H127.21V51.7236H118.874V55.4782H123.648V56.7298H118.874V60.9418H127.627V62.2094H116.989V50.4479V50.456Z" fill="#8C4E24"/>
<path d="M28.7057 74.5964C28.3286 74.2193 27.6868 73.9866 27.1573 73.9866C26.1865 73.9866 25.5046 74.7568 25.5046 75.6875C25.5046 76.5539 26.0982 77.3803 27.2295 77.3803C27.6948 77.3803 28.2484 77.2439 28.5532 77.0193V76.1207H27.1412V75.4307H29.2592V77.4044C28.6976 77.8215 27.8954 78.0783 27.1893 78.0783C25.7613 78.0783 24.7023 77.0112 24.7023 75.6875C24.7023 74.3637 25.7773 73.3047 27.1573 73.3047C27.8713 73.3047 28.6415 73.5935 29.2512 74.115L28.7137 74.5964H28.7057Z" fill="#8C4E24"/>
<path d="M33.367 73.297C34.7871 73.297 35.9183 74.356 35.9183 75.6717C35.9183 76.9875 34.7871 78.0706 33.367 78.0706C31.947 78.0706 30.8398 77.0115 30.8398 75.6717C30.8398 74.3319 31.947 73.297 33.367 73.297ZM33.367 77.3806C34.3378 77.3806 35.1 76.6104 35.1 75.6717C35.1 74.7331 34.3378 73.9869 33.367 73.9869C32.3963 73.9869 31.6502 74.7411 31.6502 75.6717C31.6502 76.6024 32.4043 77.3806 33.367 77.3806Z" fill="#8C4E24"/>
<path d="M38.4374 73.4333V77.2442H41.1973V77.9341H37.6672V73.4333H38.4374Z" fill="#8C4E24"/>
<path d="M42.6733 77.9341V73.4333H44.8315C45.6418 73.4333 46.0991 73.658 46.4842 74.0351C46.8853 74.4522 47.0939 75.0299 47.0939 75.6797C47.0939 76.3296 46.8613 76.9714 46.436 77.3806C46.051 77.7256 45.6418 77.9341 44.8315 77.9341H42.6733ZM44.7994 77.2442C45.369 77.2442 45.5616 77.1158 45.8343 76.8912C46.1232 76.6024 46.2997 76.1611 46.2997 75.6797C46.2997 75.1984 46.1472 74.7892 45.8664 74.5004C45.6097 74.2677 45.369 74.1233 44.8074 74.1233H43.4596V77.2442H44.8074H44.7994Z" fill="#8C4E24"/>
<path d="M54.0017 74.5806C53.8172 74.4442 53.4882 74.2597 53.1112 74.2597C52.7903 74.2597 52.5977 74.4602 52.5977 74.6849C52.5977 75.0299 53.1513 75.5032 53.3599 75.7198L54.1782 76.5381C54.4269 76.2894 54.6836 75.9605 54.9324 75.5513L55.5501 75.8722C55.2372 76.3376 54.9404 76.7066 54.6435 77.0035L55.5902 77.9341H54.5793L54.106 77.4688C53.5203 77.894 52.9908 78.0304 52.5736 78.0304C51.8195 78.0304 51.0172 77.6132 51.0172 76.7066C51.0172 75.9846 51.4825 75.5915 52.0682 75.3668C51.9158 75.1502 51.8436 74.9496 51.8436 74.7089C51.8436 74.0029 52.4533 73.5697 53.1433 73.5697C53.6888 73.5697 54.114 73.7943 54.4028 73.9708L54.0178 74.5806H54.0017ZM52.4774 75.8642C52.1565 75.9846 51.7714 76.1851 51.7714 76.6665C51.7714 77.1479 52.2206 77.3404 52.6218 77.3404C52.8865 77.3404 53.2315 77.2442 53.6166 76.9954L52.7421 76.129L52.4693 75.8562L52.4774 75.8642Z" fill="#8C4E24"/>
<path d="M59.4972 77.9341V73.4333H61.6553C62.4656 73.4333 62.9229 73.658 63.308 74.0351C63.7092 74.4522 63.9178 75.0299 63.9178 75.6797C63.9178 76.3296 63.6851 76.9714 63.2599 77.3806C62.8748 77.7256 62.4656 77.9341 61.6553 77.9341H59.4972ZM61.6152 77.2442C62.1848 77.2442 62.3774 77.1158 62.6502 76.8912C62.939 76.6024 63.1155 76.1611 63.1155 75.6797C63.1155 75.1984 62.963 74.7892 62.6822 74.5004C62.4255 74.2677 62.1848 74.1233 61.6232 74.1233H60.2754V77.2442H61.6232H61.6152Z" fill="#8C4E24"/>
<path d="M65.7069 77.9341V73.4333H66.4771V77.9341H65.7069Z" fill="#8C4E24"/>
<path d="M70.0393 73.4333H70.7453L72.8312 77.9341H71.9808L71.4353 76.7227H69.2932L68.7557 77.9341H67.9534L70.0393 73.4333ZM69.574 76.1049H71.1625L70.3923 74.364H70.3522L69.574 76.1049Z" fill="#8C4E24"/>
<path d="M78.2387 77.9341V74.8775H78.2066L76.7143 77.3966H76.594L75.1017 74.8775H75.0696V77.9341H74.3315V73.4333H75.1258L76.6902 76.0889H76.7063L78.2707 73.4333H79.0249V77.9341H78.2547H78.2387Z" fill="#8C4E24"/>
<path d="M83.285 73.297C84.705 73.297 85.8363 74.356 85.8363 75.6717C85.8363 76.9875 84.705 78.0706 83.285 78.0706C81.865 78.0706 80.7578 77.0115 80.7578 75.6717C80.7578 74.3319 81.865 73.297 83.285 73.297ZM83.285 77.3806C84.2558 77.3806 85.0179 76.6104 85.0179 75.6717C85.0179 74.7331 84.2558 73.9869 83.285 73.9869C82.3142 73.9869 81.5681 74.7411 81.5681 75.6717C81.5681 76.6024 82.3223 77.3806 83.285 77.3806Z" fill="#8C4E24"/>
<path d="M91.6367 73.4333V77.9341H90.9548L88.3554 74.8133V77.9341H87.5852V73.4333H88.2671L90.8665 76.5542V73.4333H91.6367Z" fill="#8C4E24"/>
<path d="M93.7227 77.9341V73.4333H95.8808C96.6911 73.4333 97.1484 73.658 97.5335 74.0351C97.9346 74.4522 98.1432 75.0299 98.1432 75.6797C98.1432 76.3296 97.9106 76.9714 97.4854 77.3806C97.1003 77.7256 96.6911 77.9341 95.8808 77.9341H93.7227ZM95.8407 77.2442C96.4103 77.2442 96.6029 77.1158 96.8756 76.8912C97.1644 76.6024 97.341 76.1611 97.341 75.6797C97.341 75.1984 97.1885 74.7892 96.9077 74.5004C96.651 74.2677 96.4103 74.1233 95.8487 74.1233H94.5009V77.2442H95.8487H95.8407Z" fill="#8C4E24"/>
<path d="M103.093 74.4923C102.845 74.2677 102.291 73.9708 101.465 73.9708C100.927 73.9708 100.454 74.1393 100.454 74.6207C100.454 75.1021 101.12 75.1342 101.802 75.1823C102.604 75.2385 103.872 75.3187 103.872 76.5702C103.872 77.6613 102.965 78.0785 101.89 78.0785C100.703 78.0785 99.9324 77.5891 99.427 77.1318L99.8923 76.5943C100.261 76.9232 100.887 77.4046 101.898 77.4046C102.564 77.4046 103.093 77.18 103.093 76.6665C103.093 76.1049 102.58 75.9846 101.794 75.9204C100.799 75.8482 99.6757 75.768 99.6757 74.6769C99.6757 73.5858 100.663 73.2889 101.489 73.2889C102.436 73.2889 103.206 73.658 103.559 73.9468L103.093 74.4843V74.4923Z" fill="#8C4E24"/>
<path d="M88.9665 11.1668V10.9742C80.8517 10.9742 76.92 13.1729 73.4422 15.1068C72.2586 15.7648 71.1318 16.3987 69.8996 16.9043C72.6478 11.6723 75.1203 6.66511 78.9791 5.0843C79.9194 4.7553 80.9409 4.57074 82.0434 4.57074V3.55966H56.2156L52.7216 11.4396L53.6377 11.8409H53.6539L53.7349 11.6643C54.5051 10.236 55.7049 7.02621 58.0558 5.60589C59.3366 4.83554 61.42 4.61889 63.6656 4.57074H67.1758C67.6622 4.57074 68.1324 4.57074 68.5944 4.57074H77.5118C72.1127 6.55277 69.0484 12.202 66.1868 17.7789C62.4496 17.9394 57.9666 16.6876 57.9666 16.6876C57.9342 16.6555 57.5126 18.5172 57.5126 18.5172C58.6719 18.6857 59.8798 18.8542 61.1768 18.9344C62.1172 19.0388 62.9846 19.0789 63.7953 19.0789C64.4114 19.0789 65.0032 19.0468 65.5544 18.9986C63.5116 22.9788 61.493 26.7823 58.7124 28.9971C56.9695 30.1526 55.1131 30.7143 53.0297 30.7223H52.9405C48.6926 30.7063 46.7227 28.8205 45.8147 27.2317C45.4418 26.5817 45.1824 25.8595 45.0446 25.1213C44.9554 23.3479 45.685 21.6788 46.7632 20.6838L45.8877 20.1381C45.8877 20.1381 45.8877 20.1301 45.8958 20.1221L45.0203 19.6005C43.5611 22.0158 43.5287 25.2818 44.9311 27.7292C46.3903 30.281 49.2114 31.7013 52.8756 31.7254H53.1188C54.878 31.7093 56.4345 31.3242 57.8369 30.6501C63.163 28.6921 66.3975 23.4843 69.2024 18.2283C70.9616 17.6425 72.4451 16.816 73.961 15.9734C76.5308 14.5371 79.3601 12.9643 84.0538 12.2983C83.4945 12.5791 82.9675 12.9001 82.4568 13.2612C72.7532 18.798 70.1266 34.5901 62.4334 37.9764C62.2875 38.0406 61.4687 38.0968 60.4391 38.1289H55.0725C52.3973 38.1048 50.5571 37.9443 48.0441 36.9974C47.9225 37.5672 47.8495 38.5301 47.7279 39.156L52.2757 39.1399H74.6744H80.2923L83.8187 31.1877H83.8106L83.2269 30.931L83.1134 30.8828C81.8083 33.3463 80.4545 37.9603 73.9448 38.1289H63.998C76.2552 33.6512 76.7822 14.3204 86.4858 12.2341C86.6966 12.1859 87.2316 12.0415 88.9908 11.9773H88.9502C88.9502 11.9773 88.9746 11.9773 88.9908 11.9773V11.7847V11.1508L88.9665 11.1668Z" fill="#8C4E24"/>
<path d="M195.42 31.153C193.222 29.035 190.638 27.7353 186.001 27.7353H173.726V53.3682H186.001C190.638 53.3682 192.957 52.1889 195.155 50.2313C197.586 47.8726 198.926 44.3827 198.926 40.5397C198.926 36.6968 197.706 33.5117 195.428 31.153H195.42ZM191.689 47.4394C190.157 48.6989 189.066 49.4451 185.801 49.4451H178.115V31.6665H185.801C189.018 31.6665 190.39 32.4928 191.842 33.8246C193.446 35.4693 194.321 37.8601 194.321 40.5317C194.321 43.2033 193.334 45.7867 191.689 47.4394Z" fill="#8C4E24"/>
<path d="M205.689 27.7353V53.3682H210.086V27.7353H205.689Z" fill="#8C4E24"/>
<path d="M230.616 39.0796V43.0027H238.655V48.1454C236.93 49.4451 233.793 50.2233 231.122 50.2233C224.655 50.2233 221.278 45.5059 221.278 40.5718C221.278 35.2768 225.161 30.8802 230.696 30.8802C233.721 30.8802 237.371 32.1719 239.53 34.3301L242.586 31.5863C239.088 28.6018 234.732 26.9491 230.656 26.9491C222.802 26.9491 216.68 32.9983 216.68 40.5317C216.68 48.0651 222.722 54.1465 230.849 54.1465C234.884 54.1465 239.441 52.6542 242.658 50.3035V39.0796H230.616Z" fill="#8C4E24"/>
<path d="M250.545 27.7353V53.3682H254.941V27.7353H250.545Z" fill="#8C4E24"/>
<path d="M284.289 39.0796V43.0027H292.336V48.1454C290.603 49.4451 287.466 50.2233 284.802 50.2233C278.328 50.2233 274.942 45.5059 274.942 40.5718C274.942 35.2768 278.833 30.8802 284.361 30.8802C287.386 30.8802 291.036 32.1719 293.194 34.3301L296.251 31.5863C292.753 28.6018 288.397 26.9491 284.321 26.9491C276.467 26.9491 270.345 32.9983 270.345 40.5317C270.345 48.0651 276.386 54.1465 284.513 54.1465C288.565 54.1465 293.114 52.6542 296.323 50.3035V39.0796H284.281H284.289Z" fill="#8C4E24"/>
<path d="M316.348 26.9491C308.261 26.9491 301.939 32.9983 301.939 40.4996C301.939 43.4841 302.91 46.2359 304.579 48.4583C305.894 47.7683 307.17 47.0142 308.397 46.1958C307.234 44.5913 306.568 42.6257 306.568 40.4996C306.568 35.1965 310.844 30.8883 316.348 30.8883C318.201 30.8883 319.91 31.3616 321.37 32.204C322.036 31.0166 322.638 29.7811 323.159 28.5215C321.138 27.5107 318.811 26.9491 316.34 26.9491H316.348ZM328.807 33.5278C327.877 34.9719 326.874 36.3438 325.807 37.6595C326.08 38.5581 326.232 39.5128 326.232 40.4996C326.232 45.8348 321.876 50.2313 316.348 50.2313C314.703 50.2313 313.163 49.8382 311.815 49.1402C310.363 49.9345 308.871 50.6325 307.362 51.2422C309.801 53.0714 312.914 54.1545 316.348 54.1545C324.427 54.1545 330.861 48.1133 330.861 40.4996C330.861 37.9403 330.115 35.5576 328.807 33.5278Z" fill="#8C4E24"/>
<path d="M341.805 49.4451V27.7353H337.408V53.3682H357.537V49.4451H341.805Z" fill="#8C4E24"/>
<path d="M384.502 31.153C382.304 29.035 379.72 27.7353 375.091 27.7353H362.8V53.3682H375.091C379.72 53.3682 382.031 52.1889 384.229 50.2313C386.66 47.8726 388 44.3827 388 40.5397C388 36.6968 386.78 33.5117 384.502 31.153ZM380.771 47.4394C379.239 48.6989 378.148 49.4451 374.883 49.4451H367.197V31.6665H374.883C378.108 31.6665 379.472 32.4928 380.924 33.8246C382.544 35.4693 383.403 37.8601 383.403 40.5317C383.403 43.2033 382.416 45.7867 380.771 47.4394Z" fill="#8C4E24"/>
</svg>
