<svg width="62" height="57" viewBox="0 0 62 57" fill="none" xmlns="http://www.w3.org/2000/svg">
<path d="M15.4428 20.7641C13.5513 20.8101 11.811 21.5329 10.4825 22.7063C9.14695 23.8859 8.22325 25.5237 7.97047 27.3896C7.68856 31.021 8.50359 34.6609 10.4164 38.3086C12.3582 42.0116 15.4357 45.734 19.6455 49.4696C19.8644 49.6641 19.9754 49.9333 19.9762 50.2033L19.9778 56.0118C19.9778 56.5573 19.5297 57 18.9777 57C18.4257 57 17.9776 56.5573 17.9776 56.0118V50.6399C13.7607 46.8459 10.6487 43.0355 8.64297 39.2112C6.55618 35.2313 5.66713 31.2404 5.97896 27.2433L5.98684 27.1928C6.29238 24.8188 7.46019 22.7366 9.15483 21.2388C10.6156 19.9479 12.474 19.0905 14.5104 18.857V7.78553C14.5104 6.46433 15.0585 5.26295 15.942 4.39071C16.8208 3.51768 18.039 2.97691 19.3785 2.97691C20.7172 2.97691 21.9354 3.51768 22.8166 4.38837C23.1726 4.74007 23.4749 5.14701 23.708 5.59364C24.5861 4.7424 25.7901 4.21563 27.1123 4.21563C28.451 4.21563 29.6692 4.75641 30.5504 5.6271C30.9071 5.97957 31.2087 6.38574 31.4418 6.83314C32.3198 5.98113 33.5238 5.45436 34.846 5.45436C36.1823 5.45436 37.399 5.99514 38.2809 6.86582C39.1298 7.7015 39.6677 8.84296 39.7102 10.1035C40.5166 9.51757 41.5103 9.17132 42.5805 9.17132C43.9169 9.17132 45.1335 9.71209 46.0155 10.5828C46.9006 11.4535 47.4479 12.6572 47.4479 13.9799V23.4953C47.4479 23.6306 47.4424 23.7645 47.4305 23.8975C47.1541 31.2778 46.2627 37.2029 44.7571 41.6684C43.2688 46.0849 41.1639 49.1195 38.4455 50.7706V56.0118C38.4455 56.5573 37.9974 57 37.4454 57C36.8934 57 36.4453 56.5573 36.4453 56.0118V50.2033C36.4453 49.7964 36.695 49.4463 37.0509 49.2953C39.5243 47.9585 41.4647 45.2103 42.8656 41.0506C44.0547 37.522 44.8469 33.0106 45.2398 27.518C44.4744 28.0144 43.5601 28.3039 42.5813 28.3039C41.2418 28.3039 40.0236 27.7631 39.1424 26.8924C38.2967 26.0567 37.7588 24.9153 37.7163 23.6555C36.9107 24.2399 35.917 24.5869 34.846 24.5869C33.5231 24.5869 32.319 24.0578 31.4394 23.205C30.7866 24.8359 29.5463 26.0972 27.7178 26.9873C26.1201 27.7662 24.064 28.2401 21.5512 28.4089L21.948 28.7661C23.3915 30.1923 24.0514 32.171 23.9301 34.6975C23.9041 35.2406 23.4364 35.6608 22.8867 35.6351C22.3371 35.6094 21.9118 35.1472 21.9378 34.6041C22.0315 32.662 21.5638 31.1813 20.5338 30.1635L20.4889 30.1161C19.4415 29.1131 17.7981 28.5101 15.5617 28.3117L15.4286 28.3008C14.8813 28.2564 14.4718 27.781 14.5143 27.2394C14.5569 26.6963 15.0388 26.2902 15.5884 26.3322C20.6763 26.764 24.4254 26.3937 26.8343 25.2195C28.7408 24.2912 29.7841 22.8059 29.9613 20.7665C25.1215 20.7657 20.2825 20.7649 15.4428 20.7641ZM56.751 15.3144L52.2916 16.2473C51.8679 16.3337 51.4191 16.1415 51.2057 15.7454C50.9474 15.2661 51.1309 14.6693 51.6159 14.4141C54.2902 13.0065 57.081 11.4122 59.7891 10.1206C60.3064 9.93541 60.8797 10.2 61.0671 10.7112L61.9404 13.0812L61.979 13.2166C62.0909 13.7488 61.7444 14.2717 61.2057 14.3822L56.751 15.3144ZM58.774 12.8758L59.6717 12.6883L59.5835 12.4494L58.774 12.8758ZM55.3643 8.5255L51.3427 13.6026C51.0828 13.9683 50.593 14.1247 50.1552 13.9512C49.6441 13.7488 49.3953 13.1746 49.6 12.6696L54.517 0.616948L54.58 0.493231C54.8532 0.0224838 55.4627 -0.13936 55.9391 0.130639L59.0922 1.92882L59.2457 2.02685C59.6788 2.36144 59.756 2.9808 59.4174 3.40875L55.3643 8.5255ZM54.087 6.94286L57.1408 3.08818L55.9399 2.40267L54.087 6.94286ZM9.70842 16.2465L0.794268 14.3822C0.255639 14.2717 -0.0908477 13.7488 0.0209729 13.2166L0.0595589 13.0812L0.932862 10.7112C1.12028 10.2 1.69356 9.93541 2.21092 10.1206C4.91903 11.4122 7.70982 13.0065 10.3841 14.4141C10.8691 14.6693 11.0526 15.2661 10.7943 15.7454C10.5809 16.1415 10.1321 16.3337 9.70842 16.2465ZM2.32826 12.6883L3.22597 12.8758L2.41645 12.4494L2.32826 12.6883ZM10.6573 13.6026L2.58261 3.40875C2.244 2.9808 2.32117 2.36144 2.75428 2.02685L2.90783 1.92882L6.06086 0.130639C6.53728 -0.13936 7.14678 0.0224838 7.42003 0.493231L7.48067 0.617726L12.4 12.6696C12.6047 13.1746 12.3559 13.7488 11.8448 13.9512C11.407 14.1247 10.9172 13.9683 10.6573 13.6026ZM4.85918 3.08818L7.91299 6.94286L6.06007 2.40267L4.85918 3.08818ZM29.9794 18.7901V10.2638V9.02426C29.9794 8.24694 29.6558 7.5381 29.1361 7.02455C28.6171 6.51179 27.8989 6.19199 27.1123 6.19199C26.3248 6.19199 25.6066 6.51179 25.0877 7.02455C24.5766 7.52954 24.2553 8.22438 24.2451 8.98769V9.02426V18.7925L29.9794 18.7901ZM22.2449 18.7932V9.02426V7.78553C22.2449 7.00744 21.9213 6.29859 21.4023 5.78583C20.8834 5.27306 20.1652 4.95327 19.3785 4.95327C18.5911 4.95327 17.8729 5.27306 17.354 5.78583C16.8326 6.29704 16.5106 7.0051 16.5106 7.78553V18.7956L22.2449 18.7932ZM39.7133 13.9434V19.7783V23.4953C39.7133 24.2726 40.037 24.9814 40.5567 25.495C41.0757 26.0077 41.7938 26.3275 42.5813 26.3275C43.368 26.3275 44.0846 26.0077 44.6043 25.4942C45.124 24.9806 45.4477 24.2718 45.4477 23.4953V13.9799C45.4477 13.2026 45.124 12.493 44.6059 11.9795C44.0877 11.4659 43.3696 11.1477 42.5805 11.1477C41.8143 11.1477 41.1143 11.448 40.5985 11.9351L40.5559 11.9802C40.0449 12.4852 39.7236 13.1808 39.7133 13.9434ZM31.9796 10.2272V10.2638V19.7783C31.9796 20.5307 32.2844 21.2458 32.8222 21.7772C33.3427 22.2915 34.0593 22.6106 34.846 22.6106C35.6327 22.6106 36.3501 22.2908 36.8698 21.7772C37.3816 21.2715 37.7029 20.5774 37.7132 19.8149V13.9799V10.2638C37.7132 9.48567 37.3895 8.77605 36.8714 8.2625C36.3532 7.74896 35.635 7.43072 34.846 7.43072C34.0585 7.43072 33.3411 7.75052 32.8222 8.26328C32.3111 8.76826 31.9898 9.46388 31.9796 10.2272Z" fill="#964A26"/>
</svg>
