<svg width="52" height="51" viewBox="0 0 52 51" fill="none" xmlns="http://www.w3.org/2000/svg">
<path fill-rule="evenodd" clip-rule="evenodd" d="M46.8508 46.9213H5.13219C4.68103 46.9213 4.31445 46.5547 4.31445 46.1036V17.652C4.31445 17.2008 4.68103 16.8342 5.13219 16.8342C5.58335 16.8342 5.94993 17.2008 5.94993 17.652V45.2999H46.0331V17.652C46.0331 17.2008 46.3997 16.8342 46.8508 16.8342C47.302 16.8342 47.6686 17.2008 47.6686 17.652V46.1177C47.6545 46.5547 47.302 46.9213 46.8508 46.9213Z" fill="#964A26"/>
<path fill-rule="evenodd" clip-rule="evenodd" d="M42.7763 41.6342H25.6039C25.1527 41.6342 24.7861 41.2677 24.7861 40.8165V23.1083C24.7861 22.6571 25.1527 22.2905 25.6039 22.2905H42.7622C43.2134 22.2905 43.58 22.6571 43.58 23.1083V40.8306C43.58 41.2818 43.2275 41.6342 42.7763 41.6342ZM26.4216 40.0129H41.9586V23.9119H26.4216V40.0129Z" fill="#964A26"/>
<path fill-rule="evenodd" clip-rule="evenodd" d="M30.5936 34.895C30.368 34.895 30.1424 34.7963 29.9873 34.6271C29.6912 34.2887 29.7194 33.7812 30.0578 33.4851L35.1475 28.9876C35.4859 28.6915 35.9934 28.7197 36.2895 29.0581C36.5856 29.3964 36.5574 29.904 36.219 30.2001L31.1293 34.6976C30.9742 34.8386 30.7909 34.895 30.5936 34.895Z" fill="#964A26"/>
<path fill-rule="evenodd" clip-rule="evenodd" d="M34.7677 35.1488C34.5421 35.1488 34.3306 35.0642 34.1755 34.8809C33.8653 34.5566 33.8935 34.035 34.2178 33.7389L37.235 30.9614C37.5592 30.6512 38.0809 30.6794 38.377 31.0037C38.6872 31.328 38.659 31.8496 38.3347 32.1457L35.3175 34.9232C35.1624 35.0783 34.9651 35.1488 34.7677 35.1488Z" fill="#964A26"/>
<path fill-rule="evenodd" clip-rule="evenodd" d="M49.8968 12.8864C49.6008 12.8864 49.3047 12.7172 49.1637 12.4352L43.8202 1.62137H8.16408L2.8206 12.4352C2.62321 12.8441 2.12975 12.9992 1.73498 12.8018C1.32611 12.6044 1.17102 12.111 1.36841 11.7162L6.93748 0.451165C7.07847 0.169186 7.36044 0 7.67062 0H44.3419C44.6521 0 44.934 0.169186 45.075 0.451165L50.6441 11.7162C50.8415 12.1251 50.6723 12.6044 50.2775 12.8018C50.1365 12.8582 50.0096 12.8864 49.8968 12.8864Z" fill="#964A26"/>
<path fill-rule="evenodd" clip-rule="evenodd" d="M6.07683 18.5683C3.42624 18.5683 1.2832 16.4112 1.2832 13.7747V12.0687C1.2832 11.6175 1.64978 11.251 2.10094 11.251H10.0668C10.518 11.251 10.8846 11.6175 10.8846 12.0687V13.7747C10.8705 16.4253 8.72742 18.5683 6.07683 18.5683ZM2.90458 12.8865V13.7747C2.90458 15.5229 4.32857 16.9469 6.07683 16.9469C7.82509 16.9469 9.24908 15.5229 9.24908 13.7747V12.8865H2.90458Z" fill="#964A26"/>
<path fill-rule="evenodd" clip-rule="evenodd" d="M14.0417 18.5683C11.3911 18.5683 9.24805 16.4112 9.24805 13.7747V12.0687C9.24805 11.6175 9.61462 11.251 10.0658 11.251H18.0317C18.4828 11.251 18.8494 11.6175 18.8494 12.0687V13.7747C18.8353 16.4253 16.6923 18.5683 14.0417 18.5683ZM10.8694 12.8865V13.7747C10.8694 15.5229 12.2934 16.9469 14.0417 16.9469C15.7899 16.9469 17.2139 15.5229 17.2139 13.7747V12.8865H10.8694Z" fill="#964A26"/>
<path fill-rule="evenodd" clip-rule="evenodd" d="M22.0085 18.5683C19.3579 18.5683 17.2148 16.4112 17.2148 13.7747V12.0687C17.2148 11.6175 17.5814 11.251 18.0326 11.251H25.9985C26.4496 11.251 26.8162 11.6175 26.8162 12.0687V13.7747C26.8021 16.4253 24.6591 18.5683 22.0085 18.5683ZM18.8362 12.8865V13.7747C18.8362 15.5229 20.2602 16.9469 22.0085 16.9469C23.7567 16.9469 25.1807 15.5229 25.1807 13.7747V12.8865H18.8362Z" fill="#964A26"/>
<path fill-rule="evenodd" clip-rule="evenodd" d="M29.9743 18.5683C27.3237 18.5683 25.1807 16.4112 25.1807 13.7747V12.0687C25.1807 11.6175 25.5472 11.251 25.9984 11.251H33.9643C34.4154 11.251 34.782 11.6175 34.782 12.0687V13.7747C34.7679 16.4253 32.6249 18.5683 29.9743 18.5683ZM26.802 12.8865V13.7747C26.802 15.5229 28.226 16.9469 29.9743 16.9469C31.7226 16.9469 33.1465 15.5229 33.1465 13.7747V12.8865H26.802Z" fill="#964A26"/>
<path fill-rule="evenodd" clip-rule="evenodd" d="M37.9391 18.5683C35.2885 18.5683 33.1455 16.4112 33.1455 13.7747V12.0687C33.1455 11.6175 33.5121 11.251 33.9632 11.251H41.9291C42.3803 11.251 42.7469 11.6175 42.7469 12.0687V13.7747C42.7328 16.4253 40.5897 18.5683 37.9391 18.5683ZM34.7669 12.8865V13.7747C34.7669 15.5229 36.1909 16.9469 37.9391 16.9469C39.6874 16.9469 41.1114 15.5229 41.1114 13.7747V12.8865H34.7669Z" fill="#964A26"/>
<path fill-rule="evenodd" clip-rule="evenodd" d="M45.9059 18.5683C43.2553 18.5683 41.1123 16.4112 41.1123 13.7747V12.0687C41.1123 11.6175 41.4789 11.251 41.93 11.251H49.8959C50.3471 11.251 50.7137 11.6175 50.7137 12.0687V13.7747C50.6996 16.4253 48.5565 18.5683 45.9059 18.5683ZM42.7337 12.8865V13.7747C42.7337 15.5229 44.1577 16.9469 45.9059 16.9469C47.6542 16.9469 49.0782 15.5229 49.0782 13.7747V12.8865H42.7337Z" fill="#964A26"/>
<path fill-rule="evenodd" clip-rule="evenodd" d="M21.1902 46.9213H9.2484C8.79724 46.9213 8.43066 46.5547 8.43066 46.1036V23.1083C8.43066 22.6571 8.79724 22.2905 9.2484 22.2905H21.1902C21.6413 22.2905 22.0079 22.6571 22.0079 23.1083V46.1177C21.9938 46.5547 21.6413 46.9213 21.1902 46.9213ZM10.052 45.2999H20.3724V23.9119H10.052V45.2999Z" fill="#964A26"/>
<path fill-rule="evenodd" clip-rule="evenodd" d="M18.0326 36.4739C17.5814 36.4739 17.2148 36.1073 17.2148 35.6562V31.0599C17.2148 30.6088 17.5814 30.2422 18.0326 30.2422C18.4837 30.2422 18.8503 30.6088 18.8503 31.0599V35.6562C18.8362 36.1073 18.4696 36.4739 18.0326 36.4739Z" fill="#964A26"/>
<path fill-rule="evenodd" clip-rule="evenodd" d="M51.1649 50.7137H0.817736C0.366571 50.7137 0 50.3471 0 49.896V46.1034C0 45.6522 0.366571 45.2856 0.817736 45.2856H51.1649C51.6161 45.2856 51.9827 45.6522 51.9827 46.1034V49.896C51.9827 50.3471 51.6161 50.7137 51.1649 50.7137ZM1.63547 49.0923H50.3613V46.9211H1.63547V49.0923Z" fill="#964A26"/>
</svg>
