<svg width="62" height="62" viewBox="0 0 62 62" fill="none" xmlns="http://www.w3.org/2000/svg">
<path d="M54.3393 54.2534H5.07333C2.27576 54.2534 0 52.0216 0 49.2782V17.898C0 15.1547 2.27576 12.9229 5.07333 12.9229H33.5811V15.506H5.07333C3.70167 15.506 2.58316 16.5806 2.58316 17.898V49.2782C2.58316 50.5982 3.70167 51.6702 5.07333 51.6702H54.3393C55.711 51.6702 56.8295 50.5982 56.8295 49.2782V20.6723H59.4127V49.2782C59.4127 52.0216 57.1369 54.2534 54.3393 54.2534Z" fill="#964A26"/>
<path d="M30.9982 53.7368H28.415V60.1095H30.9982V53.7368Z" fill="#964A26"/>
<path d="M41.3305 59.4197H18.082V62.0028H41.3305V59.4197Z" fill="#964A26"/>
<path d="M21.1771 43.9207H10.333V41.3375H13.6007C15.1351 41.3375 15.6569 40.0201 16.5636 36.7886C17.819 32.312 19.5394 26.1821 28.7535 26.1821L29.668 26.5593L35.3509 32.2422L35.7229 33.0197C35.7384 33.1696 36.0819 36.724 33.3412 39.7695C30.8614 42.5258 26.7697 43.9207 21.1771 43.9207ZM17.6692 41.3375H21.1771C25.9792 41.3375 29.4148 40.2397 31.3858 38.0776C32.9098 36.4063 33.1397 34.5309 33.1604 33.7095L28.2266 28.773C21.4354 28.9849 20.2239 33.3039 19.0512 37.4886C18.6818 38.8009 18.2943 40.188 17.6692 41.3375Z" fill="#964A26"/>
<path d="M34.8854 34.6395L33.0462 32.8236L58.6867 6.84731C59.6657 5.86829 59.6657 4.28223 58.6918 3.30838C57.718 2.33453 56.1345 2.33453 55.1607 3.30838L29.1792 28.954L27.3633 27.1174L53.337 1.47951C55.3131 -0.494029 58.5368 -0.494029 60.5155 1.48467C62.4942 3.46337 62.4968 6.68974 60.5155 8.66844L34.8854 34.6395Z" fill="#964A26"/>
</svg>
